{
.appVersion = "1270";
classes = (
{
automatic = 1;

glyphs = (
{
color = 5;
glyphname = A;
lastChange = "2019-10-31 17:08:04 +0000";
layers = (
{
anchors = (
{
name = ogonek;
position = "{670, 1}";
},
{
name = top;
position = "{468, 679}";
}
);
layerId = "36D41E8E-F531-4154-A930-CD44EA9C85A7";
paths = (
{
closed = 1;
nodes = (
"89 0 LINE",
"221 202 LINE",
"138 161 LINE",
"514 161 LINE",
"542 0 LINE",
"669 0 LINE",
"524 679 LINE",
"419 679 LINE",
"-39 0 LINE"
);
},
{
closed = 1;
nodes = (
"479 593 LINE",
"433 600 LINE",
"497 263 LINE",
"203 263 LINE",
"233 222 LINE"
);
}
);
width = 750;
}
);
leftKerningGroup = A;
rightKerningGroup = A;
unicode = 0041;
},
{
color = 5;
glyphname = B;
lastChange = "2018-03-05 11:09:36 +0000";
layers = (
{
components = (
{
name = I;
}
);
layerId = "36D41E8E-F531-4154-A930-CD44EA9C85A7";
paths = (
{
closed = 1;
nodes = (
"326 0 LINE SMOOTH",
"470 0 OFFCURVE",
"582 66 OFFCURVE",
"614 206 CURVE SMOOTH",
"634 295 OFFCURVE",
"592 361 OFFCURVE",
"502 369 CURVE",
"570 380 OFFCURVE",
"628 427 OFFCURVE",
"646 504 CURVE SMOOTH",
"674 625 OFFCURVE",
"612 679 OFFCURVE",
"465 679 CURVE SMOOTH",
"203 679 LINE",
"180 577 LINE",
"428 577 LINE SMOOTH",
"501 577 OFFCURVE",
"550 572 OFFCURVE",
"537 496 CURVE",
"521 427 OFFCURVE",
"471 408 OFFCURVE",
"383 408 CURVE SMOOTH",
"141 408 LINE",
"118 311 LINE",
"390 311 LINE SMOOTH",
"479 311 OFFCURVE",
"515 277 OFFCURVE",
"499 208 CURVE SMOOTH",
"483 137 OFFCURVE",
"431 102 OFFCURVE",
"342 102 CURVE SMOOTH",
"70 102 LINE",
"46 0 LINE"
);
}
);
width = 666;
}
);
rightKerningGroup = B;
unicode = 0042;
},
{
color = 5;
glyphname = C;
lastChange = "2018-03-05 11:09:36 +0000";
layers = (
{
anchors = (
{
name = bottom;
position = "{359, -9}";
},
{
name = top;
position = "{516, 679}";
}
);
layerId = "36D41E8E-F531-4154-A930-CD44EA9C85A7";
paths = (
{
closed = 1;
nodes = (
"510 -15 OFFCURVE",
"592 37 OFFCURVE",
"610 46 CURVE",
"637 163 LINE",
"568 114 OFFCURVE",
"470 88 OFFCURVE",
"381 88 CURVE SMOOTH",
"216 88 OFFCURVE",
"144 197 OFFCURVE",
"177 340 CURVE SMOOTH",
"210 482 OFFCURVE",
"332 593 OFFCURVE",
"497 593 CURVE SMOOTH",
"616 593 OFFCURVE",
"697 530 OFFCURVE",
"700 520 CURVE",
"727 635 LINE",
"697 659 OFFCURVE",
"633 695 OFFCURVE",
"521 695 CURVE SMOOTH",
"298 698 OFFCURVE",
"106 534 OFFCURVE",
"64 340 CURVE SMOOTH",
"16 146 OFFCURVE",
"133 -18 OFFCURVE",
"357 -15 CURVE SMOOTH"
);
}
);
width = 704;
}
);
leftKerningGroup = "ronde-cap";
rightKerningGroup = C;
unicode = 0043;
},
{
color = 5;
glyphname = D;
lastChange = "2018-03-11 15:14:24 +0000";
layers = (
{
anchors = (
{
name = center;
position = "{163, 340}";
},
{
name = top;
position = "{477, 679}";
}
);
components = (
{
name = I;
}
);
layerId = "36D41E8E-F531-4154-A930-CD44EA9C85A7";
paths = (
{
closed = 1;
nodes = (
"276 0 LINE SMOOTH",
"501 0 OFFCURVE",
"678 143 OFFCURVE",
"724 340 CURVE SMOOTH",
"770 538 OFFCURVE",
"666 679 OFFCURVE",
"433 679 CURVE SMOOTH",
"223 679 LINE",
"200 577 LINE",
"401 577 LINE SMOOTH",
"578 577 OFFCURVE",
"645 487 OFFCURVE",
"611 340 CURVE SMOOTH",
"568 177 OFFCURVE",
"449 103 OFFCURVE",
"292 103 CURVE SMOOTH",
"90 103 LINE",
"66 0 LINE"
);
}
);
width = 760;
}
);
rightKerningGroup = D;
unicode = 0044;
},
{
color = 5;
glyphname = E;
lastChange = "2018-03-11 15:14:15 +0000";
layers = (
{
anchors = (
{
name = "#entry";
position = "{30, 0}";
},
{
name = bottom;
position = "{261, 0}";
},
{
name = ogonek;
position = "{533, 1}";
},
{
name = top;
position = "{418, 679}";
}
);
components = (
{
name = I;
}
);
layerId = "36D41E8E-F531-4154-A930-CD44EA9C85A7";
paths = (
{
closed = 1;
nodes = (
"532 0 LINE",
"556 102 LINE",
"95 102 LINE",
"71 0 LINE"
);
},
{
closed = 1;
nodes = (
"519 311 LINE",
"543 413 LINE",
"167 413 LINE",
"143 311 LINE"
);
},
{
closed = 1;
nodes = (
"660 577 LINE",
"683 679 LINE",
"228 679 LINE",
"205 577 LINE"
);
}
);
width = 642;
}
);
rightKerningGroup = E;
unicode = 0045;
},
{
color = 5;
glyphname = F;
lastChange = "2018-03-11 15:15:00 +0000";
layers = (
{
components = (
{
name = I;
}
);
layerId = "36D41E8E-F531-4154-A930-CD44EA9C85A7";
paths = (
{
closed = 1;
nodes = (
"660 577 LINE",
"683 679 LINE",
"223 679 LINE",
"200 577 LINE"
);
},
{
closed = 1;
nodes = (
"519 311 LINE",
"543 413 LINE",
"162 413 LINE",
"138 311 LINE"
);
}
);
width = 624;
}
);
rightKerningGroup = F;
unicode = 0046;
},
{
color = 5;
glyphname = G;
lastChange = "2018-03-05 11:09:36 +0000";
layers = (
{
anchors = (
{
name = bottom;
position = "{347, -9}";
},
{
name = top;
position = "{485, 679}";
}
);
layerId = "36D41E8E-F531-4154-A930-CD44EA9C85A7";
paths = (
{
closed = 1;
nodes = (
"424 -15 OFFCURVE",
"494 10 OFFCURVE",
"539 35 CURVE",
"531 0 LINE",
"640 0 LINE",
"732 397 LINE",
"420 397 LINE",
"396 295 LINE",
"599 295 LINE",
"565 148 LINE",
"519 118 OFFCURVE",
"446 87 OFFCURVE",
"367 87 CURVE SMOOTH",
"224 87 OFFCURVE",
"149 199 OFFCURVE",
"182 340 CURVE SMOOTH",
"215 482 OFFCURVE",
"337 593 OFFCURVE",
"502 593 CURVE SMOOTH",
"562 593 OFFCURVE",
"610 584 OFFCURVE",
"647 566 CURVE SMOOTH",
"684 549 OFFCURVE",
"709 533 OFFCURVE",
"724 518 CURVE",
"751 634 LINE",
"734 646 OFFCURVE",
"706 659 OFFCURVE",
"668 673 CURVE SMOOTH",
"630 688 OFFCURVE",
"583 695 OFFCURVE",
"526 695 CURVE SMOOTH",
"303 698 OFFCURVE",
"111 534 OFFCURVE",
"69 340 CURVE SMOOTH",
"21 146 OFFCURVE",
"134 -15 OFFCURVE",
"344 -15 CURVE SMOOTH"
);
}
);
width = 776;
}
);
leftKerningGroup = "ronde-cap";
rightKerningGroup = G;
unicode = 0047;
},
{
color = 5;
glyphname = H;
lastChange = "2018-03-05 11:35:15 +0000";
layers = (
{
anchors = (
{
name = center;
position = "{443, 547}";
},
{
name = top;
position = "{473, 679}";
}
);
components = (
{
name = I;
},
{
name = I;
transform = "{1, 0, 0, 1, 465, 0}";
}
);
layerId = "36D41E8E-F531-4154-A930-CD44EA9C85A7";
paths = (
{
closed = 1;
nodes = (
"585 311 LINE",
"609 413 LINE",
"215 413 LINE",
"191 311 LINE"
);
}
);
width = 754;
}
);
leftKerningGroup = H;
rightKerningGroup = H;
unicode = 0048;
},
{
color = 5;
glyphname = I;
lastChange = "2018-03-05 11:09:36 +0000";
layers = (
{
anchors = (
{
name = ogonek;
position = "{136, 10}";
},
{
name = top;
position = "{242, 679}";
}
);
layerId = "36D41E8E-F531-4154-A930-CD44EA9C85A7";
paths = (
{
closed = 1;
nodes = (
"139 0 LINE",
"296 679 LINE",
"187 679 LINE",
"30 0 LINE"
);
}
);
width = 289;
}
);
leftKerningGroup = I;
rightKerningGroup = I;
unicode = 0049;
},
{
color = 5;
glyphname = J;
lastChange = "2018-03-05 11:09:36 +0000";
layers = (
{
anchors = (
{
name = top;
position = "{368, 679}";
}
);
layerId = "36D41E8E-F531-4154-A930-CD44EA9C85A7";
paths = (
{
closed = 1;
nodes = (
"315 -15 OFFCURVE",
"434 72 OFFCURVE",
"470 229 CURVE SMOOTH",
"574 679 LINE",
"465 679 LINE",
"361 227 LINE SMOOTH",
"338 128 OFFCURVE",
"285 88 OFFCURVE",
"175 88 CURVE SMOOTH",
"103 88 OFFCURVE",
"24 135 OFFCURVE",
"14 142 CURVE",
"-10 38 LINE SMOOTH",
"-11 33 OFFCURVE",
"72 -15 OFFCURVE",
"166 -15 CURVE SMOOTH"
);
}
);
width = 542;
}
);
leftKerningGroup = J;
rightKerningGroup = J;
unicode = 004A;
},
{
color = 5;
glyphname = K;
lastChange = "2018-03-05 11:22:03 +0000";
layers = (
{
anchors = (
{
name = bottom;
position = "{278, 0}";
},
{
name = top;
position = "{435, 679}";
}
);
layerId = "36D41E8E-F531-4154-A930-CD44EA9C85A7";
paths = (
{
closed = 1;
nodes = (
"138 0 LINE",
"205 290 LINE",
"156 203 LINE",
"343 349 LINE",
"298 372 LINE",
"487 0 LINE",
"608 0 LINE",
"380 447 LINE",
"363 365 LINE",
"765 679 LINE",
"613 679 LINE",
"176 334 LINE",
"213 323 LINE",
"295 679 LINE",
"187 679 LINE",
"30 0 LINE"
);
}
);
width = 686;
}
);
rightKerningGroup = K;
unicode = 004B;
},
{
color = 5;
glyphname = L;
lastChange = "2018-03-05 13:35:18 +0000";
layers = (
{
anchors = (
{
name = bottom;
position = "{264, 0}";
},
{
name = "caron-t";
position = "{357, 383}";
},
{
name = center;
position = "{169, 361}";
},
{
name = middle;
position = "{446, 355}";
},
{
name = top;
position = "{235, 679}";
}
);
layerId = "36D41E8E-F531-4154-A930-CD44EA9C85A7";
paths = (
{
closed = 1;
nodes = (
"550 0 LINE",
"574 102 LINE",
"162 102 LINE",
"295 679 LINE",
"187 679 LINE",
"30 0 LINE"
);
}
);
width = 648;
}
);
rightKerningGroup = L;
unicode = 004C;
},
{
color = 5;
glyphname = M;
lastChange = "2018-03-05 11:09:36 +0000";
layers = (
{
layerId = "36D41E8E-F531-4154-A930-CD44EA9C85A7";
paths = (
{
closed = 1;
nodes = (
"138 0 LINE",
"257 515 LINE",
"365 263 LINE",
"464 263 LINE",
"688 515 LINE",
"569 0 LINE",
"677 0 LINE",
"834 679 LINE",
"707 679 LINE",
"440 376 LINE",
"440 377 LINE",
"314 679 LINE",
"187 679 LINE",
"30 0 LINE"
);
}
);
width = 827;
}
);
leftKerningGroup = M;
rightKerningGroup = M;
unicode = 004D;
},
{
color = 5;
glyphname = N;
lastChange = "2018-03-05 11:16:24 +0000";
layers = (
{
anchors = (
{
name = bottom;
position = "{326, 0}";
},
{
name = top;
position = "{483, 679}";
}
);
layerId = "36D41E8E-F531-4154-A930-CD44EA9C85A7";
paths = (
{
closed = 1;
nodes = (
"138 0 LINE",
"270 570 LINE",
"235 567 LINE",
"500 0 LINE",
"621 0 LINE",
"778 679 LINE",
"670 679 LINE",
"540 118 LINE",
"575 121 LINE",
"312 679 LINE",
"187 679 LINE",
"30 0 LINE"
);
}
);
width = 771;
}
);
leftKerningGroup = N;
rightKerningGroup = N;
unicode = 004E;
},
{
color = 5;
glyphname = Eng;
lastChange = "2018-03-05 11:11:26 +0000";
layers = (
{
anchors = (
{
name = bottom;
position = "{326, 0}";
},
{
name = top;
position = "{483, 679}";
}
);
components = (
{
name = N;
}
);
layerId = "36D41E8E-F531-4154-A930-CD44EA9C85A7";
paths = (
{
closed = 1;
nodes = (
"544 -224 OFFCURVE",
"596 -108 OFFCURVE",
"614 -31 CURVE SMOOTH",
"641 84 LINE",
"533 84 LINE",
"504 -40 LINE SMOOTH",
"495 -81 OFFCURVE",
"470 -128 OFFCURVE",
"417 -128 CURVE SMOOTH",
"337 -128 OFFCURVE",
"304 -49 OFFCURVE",
"304 -49 CURVE",
"278 -161 LINE",
"278 -161 OFFCURVE",
"300 -224 OFFCURVE",
"410 -224 CURVE SMOOTH"
);
}
);
width = 771;
}
);
leftKerningGroup = N;
leftMetricsKey = N;
rightKerningGroup = N;
rightMetricsKey = N;
unicode = 014A;
},
{
color = 5;
glyphname = O;
lastChange = "2018-03-11 15:14:48 +0000";
layers = (
{
anchors = (
{
name = "#exit";
position = "{585, 0}";
},
{
name = bottom;
position = "{342, 0}";
},
{
name = center;
position = "{420, 340}";
},
{
name = top;
position = "{499, 679}";
}
);
layerId = "36D41E8E-F531-4154-A930-CD44EA9C85A7";
paths = (
{
closed = 1;
nodes = (
"544 -18 OFFCURVE",
"735 146 OFFCURVE",
"777 340 CURVE",
"825 534 OFFCURVE",
"709 698 OFFCURVE",
"502 695 CURVE SMOOTH",
"295 698 OFFCURVE",
"106 534 OFFCURVE",
"64 340 CURVE SMOOTH",
"16 146 OFFCURVE",
"130 -18 OFFCURVE",
"338 -15 CURVE SMOOTH"
);
},
{
closed = 1;
nodes = (
"214 88 OFFCURVE",
"143 197 OFFCURVE",
"176 340 CURVE SMOOTH",
"209 482 OFFCURVE",
"330 593 OFFCURVE",
"478 593 CURVE SMOOTH",
"628 593 OFFCURVE",
"697 482 OFFCURVE",
"664 340 CURVE SMOOTH",
"631 197 OFFCURVE",
"512 88 OFFCURVE",
"362 88 CURVE SMOOTH"
);
}
);
width = 803;
}
);
leftKerningGroup = "ronde-cap";
rightKerningGroup = "ronde-cap";
unicode = 004F;
},
{
color = 5;
glyphname = P;
lastChange = "2018-03-05 12:39:18 +0000";
layers = (
{
components = (
{
name = I;
}
);
layerId = "36D41E8E-F531-4154-A930-CD44EA9C85A7";
paths = (
{
closed = 1;
nodes = (
"400 233 LINE SMOOTH",
"538 233 OFFCURVE",
"664 322 OFFCURVE",
"695 456 CURVE SMOOTH",
"726 590 OFFCURVE",
"642 679 OFFCURVE",
"506 679 CURVE SMOOTH",
"219 679 LINE",
"196 577 LINE",
"475 577 LINE SMOOTH",
"549 577 OFFCURVE",
"599 528 OFFCURVE",
"582 454 CURVE SMOOTH",
"565 381 OFFCURVE",
"492 333 OFFCURVE",
"418 333 CURVE SMOOTH",
"139 333 LINE",
"116 233 LINE"
);
}
);
width = 698;
}
);
leftKerningGroup = P;
rightKerningGroup = P;
unicode = 0050;
},
{
color = 5;
glyphname = Thorn;
lastChange = "2018-03-05 11:09:25 +0000";
layers = (
{
components = (
{
name = I;
}
);
layerId = "36D41E8E-F531-4154-A930-CD44EA9C85A7";
paths = (
{
closed = 1;
nodes = (
"348 93 LINE SMOOTH",
"505 93 OFFCURVE",
"633 189 OFFCURVE",
"668 341 CURVE SMOOTH",
"704 496 OFFCURVE",
"629 589 OFFCURVE",
"465 589 CURVE SMOOTH",
"236 589 LINE",
"213 487 LINE",
"434 487 LINE SMOOTH",
"538 487 OFFCURVE",
"578 438 OFFCURVE",
"556 339 CURVE SMOOTH",
"533 242 OFFCURVE",
"470 193 OFFCURVE",
"366 193 CURVE SMOOTH",
"145 193 LINE",
"122 93 LINE"
);
}
);
width = 698;
}
);
leftMetricsKey = P;
rightKerningGroup = P;
rightMetricsKey = P;
unicode = 00DE;
},
{
color = 5;
glyphname = Q;
lastChange = "2018-03-11 15:14:54 +0000";
layers = (
{
anchors = (
{
name = bottom;
position = "{354, 0}";
},
{
name = top;
position = "{511, 679}";
}
);
components = (
{
name = O;
}
);
layerId = "36D41E8E-F531-4154-A930-CD44EA9C85A7";
paths = (
{
closed = 1;
nodes = (
"720 -15 LINE",
"743 87 LINE",
"361 87 LINE",
"338 -15 LINE"
);
}
);
width = 803;
}
);
leftKerningGroup = "ronde-cap";
rightKerningGroup = "ronde-cap";
unicode = 0051;
},
{
color = 5;
glyphname = R;
lastChange = "2018-03-05 11:09:36 +0000";
layers = (
{
anchors = (
{
name = bottom;
position = "{302, 0}";
},
{
name = top;
position = "{418, 679}";
}
);
components = (
{
name = I;
}
);
layerId = "36D41E8E-F531-4154-A930-CD44EA9C85A7";
paths = (
{
closed = 1;
nodes = (
"608 0 LINE",
"469 272 LINE",
"572 296 OFFCURVE",
"654 365 OFFCURVE",
"678 471 CURVE SMOOTH",
"709 605 OFFCURVE",
"622 679 OFFCURVE",
"486 679 CURVE SMOOTH",
"219 679 LINE",
"196 577 LINE",
"455 577 LINE SMOOTH",
"529 577 OFFCURVE",
"583 543 OFFCURVE",
"566 469 CURVE SMOOTH",
"549 396 OFFCURVE",
"479 363 OFFCURVE",
"405 363 CURVE SMOOTH",
"146 363 LINE",
"123 263 LINE",
"339 263 LINE",
"472 0 LINE"
);
}
);
width = 689;
}
);
leftKerningGroup = R;
rightKerningGroup = R;
unicode = 0052;
},
{
color = 5;
glyphname = S;
lastChange = "2018-03-11 15:14:30 +0000";
layers = (
{
anchors = (
{
name = bottom;
position = "{203, 0}";
},
{
name = top;
position = "{360, 679}";
}
);
layerId = "36D41E8E-F531-4154-A930-CD44EA9C85A7";
paths = (
{
closed = 1;
nodes = (
"383 -16 OFFCURVE",
"483 67 OFFCURVE",
"509 179 CURVE SMOOTH",
"536 298 OFFCURVE",
"479 344 OFFCURVE",
"356 400 CURVE SMOOTH",
"272 438 OFFCURVE",
"232 457 OFFCURVE",
"246 517 CURVE SMOOTH",
"257 567 OFFCURVE",
"312 594 OFFCURVE",
"387 595 CURVE SMOOTH",
"460 595 OFFCURVE",
"519 567 OFFCURVE",
"551 530 CURVE",
"578 647 LINE",
"536 680 OFFCURVE",
"464 700 OFFCURVE",
"401 699 CURVE SMOOTH",
"258 699 OFFCURVE",
"158 624 OFFCURVE",
"134 517 CURVE SMOOTH",
"106 398 OFFCURVE",
"161 351 OFFCURVE",
"282 295 CURVE SMOOTH",
"366 257 OFFCURVE",
"409 232 OFFCURVE",
"397 180 CURVE SMOOTH",
"384 125 OFFCURVE",
"336 87 OFFCURVE",
"232 87 CURVE SMOOTH",
"151 87 OFFCURVE",
"74 118 OFFCURVE",
"24 166 CURVE",
"-2 54 LINE",
"29 20 OFFCURVE",
"117 -16 OFFCURVE",
"229 -16 CURVE SMOOTH"
);
}
);
width = 582;
}
);
leftKerningGroup = S;
rightKerningGroup = S;
unicode = 0053;
},
{
color = 5;
glyphname = T;
lastChange = "2019-10-31 17:08:12 +0000";
layers = (
{
anchors = (
{
name = bottom;
position = "{272, 0}";
},
{
name = center;
position = "{369, 420}";
},
{
name = top;
position = "{429, 679}";
}
);
layerId = "36D41E8E-F531-4154-A930-CD44EA9C85A7";
paths = (
{
closed = 1;
nodes = (
"326 0 LINE",
"460 577 LINE",
"698 577 LINE",
"721 679 LINE",
"137 679 LINE",
"114 577 LINE",
"352 577 LINE",
"218 0 LINE"
);
}
);
width = 664;
}
);
leftKerningGroup = T;
rightKerningGroup = T;
unicode = 0054;
},
{
color = 5;
glyphname = U;
lastChange = "2018-03-11 15:06:57 +0000";
layers = (
{
anchors = (
{
name = bottom;
position = "{293, 0}";
},
{
name = ogonek;
position = "{356, 10}";
},
{
name = top;
position = "{450, 679}";
}
);
layerId = "36D41E8E-F531-4154-A930-CD44EA9C85A7";
paths = (
{
closed = 1;
nodes = (
"451 -15 OFFCURVE",
"586 65 OFFCURVE",
"631 259 CURVE SMOOTH",
"728 679 LINE",
"619 679 LINE",
"523 261 LINE SMOOTH",
"495 140 OFFCURVE",
"423 90 OFFCURVE",
"314 90 CURVE SMOOTH",
"222 90 OFFCURVE",
"157 140 OFFCURVE",
"185 261 CURVE SMOOTH",
"281 679 LINE",
"172 679 LINE",
"75 259 LINE SMOOTH",
"30 65 OFFCURVE",
"129 -15 OFFCURVE",
"290 -15 CURVE SMOOTH"
);
}
);
width = 706;
}
);
leftKerningGroup = U;
rightKerningGroup = U;
unicode = 0055;
},
{
color = 5;
glyphname = V;
lastChange = "2019-10-31 17:08:20 +0000";
layers = (
{
layerId = "36D41E8E-F531-4154-A930-CD44EA9C85A7";
paths = (
{
closed = 1;
nodes = (
"352 0 LINE",
"768 679 LINE",
"634 679 LINE",
"291 105 LINE",
"329 99 LINE",
"249 679 LINE",
"128 679 LINE",
"230 0 LINE"
);
}
);
width = 702;
}
);
leftKerningGroup = "diag-cap";
rightKerningGroup = "diag-cap";
unicode = 0056;
},
{
color = 5;
glyphname = W;
lastChange = "2018-03-05 11:15:37 +0000";
layers = (
{
anchors = (
{
name = top;
position = "{614, 679}";
}
);
layerId = "36D41E8E-F531-4154-A930-CD44EA9C85A7";
paths = (
{
closed = 1;
nodes = (
"313 0 LINE",
"600 567 LINE",
"575 573 LINE",
"606 0 LINE",
"732 0 LINE",
"1100 679 LINE",
"976 679 LINE",
"670 94 LINE",
"706 88 LINE",
"675 679 LINE",
"541 679 LINE",
"248 94 LINE",
"284 88 LINE",
"247 679 LINE",
"128 679 LINE",
"182 0 LINE"
);
}
);
width = 1034;
}
);
leftKerningGroup = "diag-cap";
rightKerningGroup = "diag-cap";
unicode = 0057;
},
{
color = 5;
glyphname = X;
lastChange = "2018-03-05 11:22:35 +0000";
layers = (
{
layerId = "36D41E8E-F531-4154-A930-CD44EA9C85A7";
paths = (
{
closed = 1;
nodes = (
"121 0 LINE",
"405 305 LINE",
"332 313 LINE",
"488 0 LINE",
"620 0 LINE",
"418 400 LINE",
"406 322 LINE",
"759 679 LINE",
"609 679 LINE",
"341 402 LINE",
"414 393 LINE",
"275 679 LINE",
"143 679 LINE",
"334 315 LINE",
"344 393 LINE",
"-29 0 LINE"
);
}
);
width = 711;
}
);
leftKerningGroup = X;
rightKerningGroup = X;
unicode = 0058;
},
{
color = 5;
glyphname = Y;
lastChange = "2019-10-31 17:08:16 +0000";
layers = (
{
anchors = (
{
name = center;
position = "{319, 169}";
},
{
name = top;
position = "{435, 679}";
}
);
layerId = "36D41E8E-F531-4154-A930-CD44EA9C85A7";
paths = (
{
closed = 1;
nodes = (
"333 0 LINE",
"401 291 LINE",
"753 679 LINE",
"613 679 LINE",
"319 350 LINE",
"386 341 LINE",
"240 679 LINE",
"117 679 LINE",
"291 291 LINE",
"223 0 LINE"
);
}
);
width = 676;
}
);
leftKerningGroup = Y;
rightKerningGroup = Y;
unicode = 0059;
},
{
color = 5;
glyphname = Z;
lastChange = "2018-03-11 15:10:11 +0000";
layers = (
{
anchors = (
{
name = top;
position = "{439, 679}";
}
);
layerId = "36D41E8E-F531-4154-A930-CD44EA9C85A7";
paths = (
{
closed = 1;
nodes = (
"569 0 LINE",
"593 102 LINE",
"190 102 LINE",
"690 577 LINE",
"713 679 LINE",
"191 679 LINE",
"168 577 LINE",
"542 577 LINE",
"39 102 LINE",
"15 0 LINE"
);
}
);
width = 684;
}
);
leftKerningGroup = Z;
rightKerningGroup = Z;
unicode = 005A;
},
{
color = 5;
glyphname = A.ss02;
lastChange = "2018-03-11 16:26:15 +0000";
layers = (
{
anchors = (
{
name = ogonek;
position = "{741, 0}";
},
{
name = top;
position = "{511, 679}";
}
);
layerId = "36D41E8E-F531-4154-A930-CD44EA9C85A7";
paths = (
{
closed = 1;
nodes = (
"741 0 LINE",
"518 721 LINE",
"-30 0 LINE"
);
},
{
closed = 1;
nodes = (
"498 536 LINE",
"454 536 LINE",
"588 58 LINE",
"625 101 LINE",
"124 99 LINE",
"141 56 LINE"
);
}
);
width = 827;
}
);
leftKerningGroup = A;
note = A;
rightKerningGroup = A;
},
{
color = 5;
glyphname = AE.ss02;
lastChange = "2018-03-11 16:26:15 +0000";
layers = (
{
layerId = "36D41E8E-F531-4154-A930-CD44EA9C85A7";
paths = (
{
closed = 1;
nodes = (
"824 0 LINE",
"848 102 LINE",
"567 102 LINE",
"613 302 LINE",
"804 302 LINE",
"828 404 LINE",
"637 404 LINE",
"681 597 LINE",
"962 597 LINE",
"986 699 LINE",
"587 699 LINE",
"-35 0 LINE"
);
},
{
closed = 1;
nodes = (
"546 522 LINE",
"449 102 LINE",
"186 102 LINE"
);
}
);
width = 980;
}
);
leftKerningGroup = A;
note = AE;
rightKerningGroup = E;
},
{
color = 5;
glyphname = B.ss02;
lastChange = "2018-03-05 14:11:45 +0000";
layers = (
{
layerId = "36D41E8E-F531-4154-A930-CD44EA9C85A7";
paths = (
{
closed = 1;
nodes = (
"367 0 LINE SMOOTH",
"537 0 OFFCURVE",
"623 88 OFFCURVE",
"649 202 CURVE SMOOTH",
"668 285 OFFCURVE",
"621 361 OFFCURVE",
"537 380 CURVE",
"590 396 OFFCURVE",
"636 465 OFFCURVE",
"647 514 CURVE SMOOTH",
"673 628 OFFCURVE",
"615 715 OFFCURVE",
"461 715 CURVE",
"438 613 LINE",
"506 613 OFFCURVE",
"541 568 OFFCURVE",
"529 514 CURVE SMOOTH",
"517 460 OFFCURVE",
"468 405 OFFCURVE",
"384 405 CURVE SMOOTH",
"138 405 LINE",
"44 0 LINE"
);
},
{
closed = 1;
nodes = (
"232 303 LINE",
"406 303 LINE SMOOTH",
"494 303 OFFCURVE",
"546 267 OFFCURVE",
"531 202 CURVE SMOOTH",
"518 148 OFFCURVE",
"481 102 OFFCURVE",
"391 102 CURVE SMOOTH",
"186 102 LINE"
);
}
);
width = 740;
}
);
note = B;
rightKerningGroup = B;
},
{
color = 5;
glyphname = C.ss02;
lastChange = "2018-03-11 16:26:15 +0000";
layers = (
{
layerId = "36D41E8E-F531-4154-A930-CD44EA9C85A7";
paths = (
{
closed = 1;
nodes = (
"460 95 LINE",
"324 95 OFFCURVE",
"184 161 OFFCURVE",
"226 340 CURVE SMOOTH",
"267 520 OFFCURVE",
"439 590 OFFCURVE",
"575 590 CURVE",
"526 378 LINE",
"643 378 LINE",
"717 699 LINE",
"600 699 LINE SMOOTH",
"398 699 OFFCURVE",
"166 597 OFFCURVE",
"107 340 CURVE SMOOTH",
"48 84 OFFCURVE",
"233 -14 OFFCURVE",
"435 -14 CURVE"
);
}
);
width = 714;
}
);
leftKerningGroup = "ronde-cap";
note = C;
rightKerningGroup = C.ss01;
},
{
color = 5;
glyphname = Ccedilla.ss02;
lastChange = "2018-03-11 16:26:15 +0000";
layers = (
{
layerId = "36D41E8E-F531-4154-A930-CD44EA9C85A7";
paths = (
{
closed = 1;
nodes = (
"382 -249 LINE",
"446 29 LINE",
"445 29 LINE",
"460 95 LINE",
"324 95 OFFCURVE",
"184 161 OFFCURVE",
"226 340 CURVE SMOOTH",
"267 520 OFFCURVE",
"439 590 OFFCURVE",
"575 590 CURVE",
"526 378 LINE",
"643 378 LINE",
"717 699 LINE",
"600 699 LINE SMOOTH",
"398 699 OFFCURVE",
"166 597 OFFCURVE",
"107 340 CURVE SMOOTH",
"59 133 OFFCURVE",
"171 29 OFFCURVE",
"323 -3 CURVE",
"266 -249 LINE"
);
}
);
width = 714;
}
);
leftKerningGroup = "ronde-cap";
note = Ccedilla;
rightKerningGroup = C.ss01;
},
{
color = 5;
glyphname = D.ss02;
lastChange = "2018-03-11 16:26:15 +0000";
layers = (
{
layerId = "36D41E8E-F531-4154-A930-CD44EA9C85A7";
paths = (
{
closed = 1;
nodes = (
"359 -14 OFFCURVE",
"590 86 OFFCURVE",
"649 342 CURVE SMOOTH",
"709 599 OFFCURVE",
"534 700 OFFCURVE",
"341 700 CURVE SMOOTH",
"206 700 LINE",
"108 277 LINE",
"360 277 LINE",
"384 379 LINE",
"249 379 LINE",
"298 591 LINE",
"460 591 OFFCURVE",
"573 522 OFFCURVE",
"531 342 CURVE SMOOTH",
"490 163 OFFCURVE",
"319 95 OFFCURVE",
"183 95 CURVE",
"158 -14 LINE"
);
}
);
width = 705;
}
);
note = D;
rightKerningGroup = D;
},
{
color = 5;
glyphname = E.ss02;
lastChange = "2018-03-11 16:26:15 +0000";
layers = (
{
anchors = (
{
name = top;
position = "{544, 679}";
}
);
layerId = "36D41E8E-F531-4154-A930-CD44EA9C85A7";
paths = (
{
closed = 1;
nodes = (
"580 0 LINE",
"604 102 LINE",
"323 102 LINE",
"437 597 LINE",
"718 597 LINE",
"742 699 LINE",
"343 699 LINE",
"275 404 LINE",
"84 404 LINE",
"60 302 LINE",
"251 302 LINE",
"181 0 LINE"
);
}
);
width = 728;
}
);
leftKerningGroup = "E-s2";
note = E;
rightKerningGroup = C;
},
{
color = 5;
glyphname = F.ss02;
lastChange = "2018-03-11 16:26:15 +0000";
layers = (
{
layerId = "36D41E8E-F531-4154-A930-CD44EA9C85A7";
paths = (
{
closed = 1;
nodes = (
"297 0 LINE",
"367 303 LINE",
"607 303 LINE",
"631 405 LINE",
"391 405 LINE",
"459 699 LINE",
"152 699 LINE",
"128 597 LINE",
"318 597 LINE",
"180 0 LINE"
);
}
);
width = 683;
}
);
leftKerningGroup = "E-s2";
note = F;
},
{
color = 5;
glyphname = G.ss02;
lastChange = "2018-03-11 16:26:15 +0000";
layers = (
{
layerId = "36D41E8E-F531-4154-A930-CD44EA9C85A7";
paths = (
{
closed = 1;
nodes = (
"552 -14 LINE",
"650 410 LINE",
"397 410 LINE",
"373 308 LINE",
"509 308 LINE",
"460 96 LINE",
"324 96 OFFCURVE",
"187 172 OFFCURVE",
"228 351 CURVE SMOOTH",
"270 530 OFFCURVE",
"442 606 OFFCURVE",
"578 606 CURVE",
"603 715 LINE",
"401 715 OFFCURVE",
"168 607 OFFCURVE",
"109 351 CURVE SMOOTH",
"50 95 OFFCURVE",
"233 -14 OFFCURVE",
"435 -14 CURVE SMOOTH"
);
}
);
width = 739;
}
);
leftKerningGroup = "ronde-cap";
note = G;
rightKerningGroup = G;
},
{
color = 5;
glyphname = H.ss02;
lastChange = "2018-03-11 16:26:15 +0000";
layers = (
{
layerId = "36D41E8E-F531-4154-A930-CD44EA9C85A7";
paths = (
{
closed = 1;
nodes = (
"751 0 LINE",
"913 699 LINE",
"796 699 LINE",
"728 404 LINE",
"531 404 LINE",
"507 302 LINE",
"704 302 LINE",
"634 0 LINE"
);
},
{
closed = 1;
nodes = (
"298 0 LINE",
"460 699 LINE",
"343 699 LINE",
"275 404 LINE",
"84 404 LINE",
"60 302 LINE",
"251 302 LINE",
"181 0 LINE"
);
}
);
width = 925;
}
);
note = H;
},
{
color = 5;
glyphname = I.ss02;
lastChange = "2018-03-11 16:26:15 +0000";
layers = (
{
layerId = "36D41E8E-F531-4154-A930-CD44EA9C85A7";
paths = (
{
closed = 1;
nodes = (
"171 0 LINE",
"333 699 LINE",
"216 699 LINE",
"54 0 LINE"
);
}
);
width = 345;
}
);
note = I;
},
{
color = 5;
glyphname = J.ss02;
lastChange = "2018-03-11 16:26:15 +0000";
layers = (
{
layerId = "36D41E8E-F531-4154-A930-CD44EA9C85A7";
paths = (
{
closed = 1;
nodes = (
"297 0 LINE",
"459 699 LINE",
"134 699 LINE",
"110 597 LINE",
"318 597 LINE",
"180 0 LINE"
);
}
);
width = 471;
}
);
note = J;
},
{
color = 5;
glyphname = K.ss02;
lastChange = "2018-03-11 16:26:15 +0000";
layers = (
{
layerId = "36D41E8E-F531-4154-A930-CD44EA9C85A7";
paths = (
{
closed = 1;
nodes = (
"171 0 LINE",
"287 499 LINE",
"520 0 LINE",
"662 0 LINE",
"498 348 LINE",
"848 699 LINE",
"711 699 LINE",
"456 439 LINE",
"333 699 LINE",
"333 699 LINE",
"216 699 LINE",
"54 0 LINE"
);
}
);
width = 791;
}
);
note = K;
rightKerningGroup = K;
},
{
color = 5;
glyphname = L.ss02;
lastChange = "2018-03-11 16:26:15 +0000";
layers = (
{
layerId = "36D41E8E-F531-4154-A930-CD44EA9C85A7";
paths = (
{
closed = 1;
nodes = (
"558 0 LINE",
"582 102 LINE",
"196 102 LINE",
"334 699 LINE",
"216 699 LINE",
"54 0 LINE"
);
}
);
width = 681;
}
);
note = L;
rightKerningGroup = L;
},
{
color = 5;
glyphname = M.ss02;
lastChange = "2018-03-11 16:26:15 +0000";
layers = (
{
layerId = "36D41E8E-F531-4154-A930-CD44EA9C85A7";
paths = (
{
closed = 1;
nodes = (
"176 0 LINE",
"687 531 LINE",
"564 0 LINE",
"682 0 LINE",
"844 700 LINE",
"726 700 LINE",
"474 435 LINE",
"371 700 LINE",
"216 700 LINE",
"54 0 LINE"
);
},
{
closed = 1;
nodes = (
"302 572 LINE",
"383 344 LINE",
"206 155 LINE"
);
}
);
width = 856;
}
);
leftKerningGroup = M;
note = M;
rightKerningGroup = M;
},
{
color = 5;
glyphname = N.ss02;
lastChange = "2018-03-11 16:26:15 +0000";
layers = (
{
layerId = "36D41E8E-F531-4154-A930-CD44EA9C85A7";
paths = (
{
closed = 1;
nodes = (
"171 0 LINE",
"296 538 LINE",
"560 254 LINE",
"501 0 LINE",
"618 0 LINE",
"780 699 LINE",
"663 699 LINE",
"597 413 LINE",
"332 698 LINE",
"333 699 LINE",
"216 699 LINE",
"54 0 LINE"
);
}
);
width = 791;
}
);
note = N;
rightKerningGroup = N;
},
{
color = 5;
glyphname = O.ss02;
lastChange = "2018-03-11 16:26:15 +0000";
layers = (
{
layerId = "36D41E8E-F531-4154-A930-CD44EA9C85A7";
paths = (
{
closed = 1;
nodes = (
"571 -15 OFFCURVE",
"772 148 OFFCURVE",
"819 349 CURVE SMOOTH",
"866 551 OFFCURVE",
"739 714 OFFCURVE",
"538 714 CURVE SMOOTH",
"337 714 OFFCURVE",
"137 551 OFFCURVE",
"90 349 CURVE SMOOTH",
"43 148 OFFCURVE",
"169 -15 OFFCURVE",
"370 -15 CURVE SMOOTH"
);
},
{
closed = 1;
nodes = (
"259 94 OFFCURVE",
"176 208 OFFCURVE",
"209 349 CURVE SMOOTH",
"241 490 OFFCURVE",
"377 605 OFFCURVE",
"513 605 CURVE SMOOTH",
"649 605 OFFCURVE",
"732 490 OFFCURVE",
"700 349 CURVE SMOOTH",
"667 208 OFFCURVE",
"531 94 OFFCURVE",
"395 94 CURVE SMOOTH"
);
}
);
width = 867;
}
);
leftKerningGroup = "ronde-cap";
note = O;
rightKerningGroup = "ronde-cap";
},
{
color = 5;
glyphname = P.ss02;
lastChange = "2018-03-11 16:26:15 +0000";
layers = (
{
layerId = "36D41E8E-F531-4154-A930-CD44EA9C85A7";
paths = (
{
closed = 1;
nodes = (
"298 0 LINE",
"435 591 LINE",
"600 591 LINE SMOOTH",
"652 591 OFFCURVE",
"684 547 OFFCURVE",
"671 493 CURVE SMOOTH",
"659 439 OFFCURVE",
"607 395 OFFCURVE",
"555 395 CURVE",
"530 287 LINE",
"643 287 OFFCURVE",
"757 379 OFFCURVE",
"783 493 CURVE SMOOTH",
"809 607 OFFCURVE",
"738 699 OFFCURVE",
"625 699 CURVE SMOOTH",
"342 699 LINE",
"274 404 LINE",
"84 404 LINE",
"60 302 LINE",
"250 302 LINE",
"180 0 LINE"
);
}
);
width = 821;
}
);
leftKerningGroup = P;
note = P;
rightKerningGroup = P;
},
{
color = 5;
glyphname = Q.ss02;
lastChange = "2018-03-11 16:26:15 +0000";
layers = (
{
layerId = "36D41E8E-F531-4154-A930-CD44EA9C85A7";
paths = (
{
closed = 1;
nodes = (
"406 -137 LINE",
"435 -10 LINE",
"613 20 OFFCURVE",
"777 169 OFFCURVE",
"819 349 CURVE SMOOTH",
"865 550 OFFCURVE",
"740 714 OFFCURVE",
"539 714 CURVE SMOOTH",
"338 714 OFFCURVE",
"136 550 OFFCURVE",
"90 349 CURVE SMOOTH",
"48 166 OFFCURVE",
"148 15 OFFCURVE",
"317 -11 CURVE",
"288 -137 LINE"
);
},
{
closed = 1;
nodes = (
"239 126 OFFCURVE",
"181 228 OFFCURVE",
"209 349 CURVE SMOOTH",
"241 490 OFFCURVE",
"378 604 OFFCURVE",
"514 604 CURVE SMOOTH",
"649 604 OFFCURVE",
"732 490 OFFCURVE",
"700 349 CURVE SMOOTH",
"673 231 OFFCURVE",
"573 131 OFFCURVE",
"461 102 CURVE",
"489 222 LINE",
"371 222 LINE",
"342 100 LINE"
);
}
);
width = 867;
}
);
leftKerningGroup = "ronde-cap";
note = Q;
rightKerningGroup = "ronde-cap";
},
{
color = 5;
glyphname = R.ss02;
lastChange = "2018-03-11 16:26:15 +0000";
layers = (
{
layerId = "36D41E8E-F531-4154-A930-CD44EA9C85A7";
paths = (
{
closed = 1;
nodes = (
"161 0 LINE",
"231 302 LINE",
"336 302 LINE",
"465 0 LINE",
"601 0 LINE",
"468 306 LINE",
"568 323 OFFCURVE",
"659 404 OFFCURVE",
"682 505 CURVE SMOOTH",
"708 619 OFFCURVE",
"651 714 OFFCURVE",
"519 714 CURVE SMOOTH",
"310 714 LINE",
"287 612 LINE",
"495 612 LINE SMOOTH",
"547 612 OFFCURVE",
"576 559 OFFCURVE",
"564 505 CURVE SMOOTH",
"551 451 OFFCURVE",
"499 404 OFFCURVE",
"447 404 CURVE SMOOTH",
"138 404 LINE",
"44 0 LINE"
);
}
);
width = 733;
}
);
leftKerningGroup = R;
note = R;
rightKerningGroup = R;
},
{
color = 5;
glyphname = S.ss02;
lastChange = "2018-03-11 16:26:15 +0000";
layers = (
{
layerId = "36D41E8E-F531-4154-A930-CD44EA9C85A7";
paths = (
{
closed = 1;
nodes = (
"496 0 LINE",
"239 508 LINE",
"238 508 LINE",
"250 560 OFFCURVE",
"303 602 OFFCURVE",
"357 602 CURVE SMOOTH",
"411 602 OFFCURVE",
"446 560 OFFCURVE",
"434 508 CURVE",
"542 508 LINE",
"568 622 OFFCURVE",
"492 714 OFFCURVE",
"378 714 CURVE SMOOTH",
"251 714 OFFCURVE",
"129 607 OFFCURVE",
"103 493 CURVE",
"353 0 LINE"
);
}
);
width = 602;
}
);
leftKerningGroup = S.ss01;
note = S;
rightKerningGroup = S.ss01;
},
{
color = 5;
glyphname = T.ss02;
lastChange = "2018-03-11 16:26:15 +0000";
layers = (
{
layerId = "36D41E8E-F531-4154-A930-CD44EA9C85A7";
paths = (
{
closed = 1;
nodes = (
"420 252 LINE",
"500 598 LINE",
"768 598 LINE",
"792 699 LINE",
"140 699 LINE",
"116 598 LINE",
"383 598 LINE",
"303 252 LINE"
);
}
);
width = 728;
}
);
leftKerningGroup = T;
note = T;
rightKerningGroup = T;
},
{
color = 5;
glyphname = U.ss02;
lastChange = "2018-03-05 14:11:40 +0000";
layers = (
{
layerId = "36D41E8E-F531-4154-A930-CD44EA9C85A7";
paths = (
{
closed = 1;
nodes = (
"483 -15 OFFCURVE",
"621 88 OFFCURVE",
"659 254 CURVE SMOOTH",
"762 699 LINE",
"645 699 LINE",
"545 265 LINE SMOOTH",
"521 162 OFFCURVE",
"434 94 OFFCURVE",
"347 94 CURVE SMOOTH",
"260 94 OFFCURVE",
"205 162 OFFCURVE",
"229 265 CURVE SMOOTH",
"329 699 LINE",
"212 699 LINE",
"109 254 LINE SMOOTH",
"71 88 OFFCURVE",
"161 -15 OFFCURVE",
"322 -15 CURVE SMOOTH"
);
}
);
width = 770;
}
);
leftKerningGroup = U;
note = U;
rightKerningGroup = U;
},
{
color = 5;
glyphname = V.ss02;
lastChange = "2018-03-05 14:11:40 +0000";
layers = (
{
layerId = "36D41E8E-F531-4154-A930-CD44EA9C85A7";
paths = (
{
closed = 1;
nodes = (
"354 254 LINE",
"784 699 LINE",
"648 699 LINE",
"392 438 LINE",
"259 699 LINE",
"122 699 LINE",
"346 254 LINE"
);
}
);
width = 702;
}
);
leftKerningGroup = "diag-cap-2";
note = V;
rightKerningGroup = "diag-cap-2";
},
{
color = 5;
glyphname = W.ss02;
lastChange = "2018-03-11 16:26:15 +0000";
layers = (
{
layerId = "36D41E8E-F531-4154-A930-CD44EA9C85A7";
paths = (
{
closed = 1;
nodes = (
"711 78 LINE",
"1140 523 LINE",
"1004 523 LINE",
"749 263 LINE",
"615 523 LINE",
"785 699 LINE",
"648 699 LINE",
"393 438 LINE",
"259 699 LINE",
"123 699 LINE",
"346 254 LINE",
"355 254 LINE",
"526 430 LINE",
"702 78 LINE"
);
}
);
width = 1101;
}
);
leftKerningGroup = "diag-cap";
note = W;
rightKerningGroup = "diag-cap";
},
{
color = 5;
glyphname = X.ss02;
lastChange = "2018-03-11 16:26:15 +0000";
layers = (
{
layerId = "36D41E8E-F531-4154-A930-CD44EA9C85A7";
paths = (
{
closed = 1;
nodes = (
"633 0 LINE",
"457 347 LINE",
"805 699 LINE",
"663 699 LINE",
"406 438 LINE",
"272 699 LINE",
"132 699 LINE",
"487 0 LINE"
);
}
);
width = 762;
}
);
leftKerningGroup = X;
note = X;
rightKerningGroup = X;
},
{
color = 5;
glyphname = Y.ss02;
lastChange = "2018-03-11 16:26:15 +0000";
layers = (
{
layerId = "36D41E8E-F531-4154-A930-CD44EA9C85A7";
paths = (
{
closed = 1;
nodes = (
"362 0 LINE",
"436 319 LINE",
"802 699 LINE",
"654 699 LINE",
"354 385 LINE",
"424 377 LINE",
"249 699 LINE",
"114 699 LINE",
"319 320 LINE",
"245 0 LINE"
);
}
);
width = 720;
}
);
leftKerningGroup = Y;
note = Y;
rightKerningGroup = Y;
},
{
color = 5;
glyphname = Z.ss02;
lastChange = "2018-03-11 16:26:15 +0000";
layers = (
{
layerId = "36D41E8E-F531-4154-A930-CD44EA9C85A7";
paths = (
{
closed = 1;
nodes = (
"646 0 LINE",
"471 385 LINE",
"676 607 LINE",
"698 699 LINE",
"203 699 LINE",
"179 597 LINE",
"532 597 LINE",
"-19 0 LINE"
);
},
{
closed = 1;
nodes = (
"380 286 LINE",
"464 102 LINE",
"211 102 LINE"
);
}
);
width = 733;
}
);
leftKerningGroup = Z;
note = Z;
},
{
color = 4;
glyphname = A.ss03;
lastChange = "2018-03-11 16:26:15 +0000";
layers = (
{
anchors = (
{
name = ogonek;
position = "{720, 0}";
},
{
name = top;
position = "{442, 679}";
}
);
layerId = "36D41E8E-F531-4154-A930-CD44EA9C85A7";
paths = (
{
closed = 1;
nodes = (
"720 0 LINE",
"407 700 LINE",
"271 700 LINE",
"388 434 LINE",
"-39 0 LINE"
);
},
{
closed = 1;
nodes = (
"429 338 LINE",
"533 105 LINE",
"203 105 LINE"
);
}
);
width = 801;
}
);
leftMetricsKey = A;
note = A.alt;
rightKerningGroup = A;
rightMetricsKey = A;
},
{
color = 4;
glyphname = AE.ss03;
lastChange = "2018-03-11 16:26:15 +0000";
layers = (
{
layerId = "36D41E8E-F531-4154-A930-CD44EA9C85A7";
paths = (
{
closed = 1;
nodes = (
"824 0 LINE",
"848 102 LINE",
"567 102 LINE",
"613 302 LINE",
"804 302 LINE",
"828 404 LINE",
"637 404 LINE",
"681 597 LINE",
"962 597 LINE",
"986 699 LINE",
"587 699 LINE",
"-35 0 LINE"
);
},
{
closed = 1;
nodes = (
"546 522 LINE",
"449 102 LINE",
"186 102 LINE"
);
}
);
width = 980;
}
);
leftKerningGroup = A;
note = AE;
rightKerningGroup = E;
},
{
color = 4;
glyphname = B.ss03;
lastChange = "2018-03-05 14:10:01 +0000";
layers = (
{
layerId = "36D41E8E-F531-4154-A930-CD44EA9C85A7";
paths = (
{
closed = 1;
nodes = (
"367 0 LINE SMOOTH",
"537 0 OFFCURVE",
"623 88 OFFCURVE",
"649 202 CURVE SMOOTH",
"668 285 OFFCURVE",
"621 361 OFFCURVE",
"537 380 CURVE",
"590 396 OFFCURVE",
"636 465 OFFCURVE",
"647 514 CURVE SMOOTH",
"673 628 OFFCURVE",
"615 715 OFFCURVE",
"461 715 CURVE",
"438 613 LINE",
"506 613 OFFCURVE",
"541 568 OFFCURVE",
"529 514 CURVE SMOOTH",
"517 460 OFFCURVE",
"468 405 OFFCURVE",
"384 405 CURVE SMOOTH",
"138 405 LINE",
"44 0 LINE"
);
},
{
closed = 1;
nodes = (
"232 303 LINE",
"406 303 LINE SMOOTH",
"494 303 OFFCURVE",
"546 267 OFFCURVE",
"531 202 CURVE SMOOTH",
"518 148 OFFCURVE",
"481 102 OFFCURVE",
"391 102 CURVE SMOOTH",
"186 102 LINE"
);
}
);
width = 740;
}
);
note = B;
rightKerningGroup = B;
},
{
color = 4;
glyphname = C.ss03;
lastChange = "2018-03-11 16:26:15 +0000";
layers = (
{
layerId = "36D41E8E-F531-4154-A930-CD44EA9C85A7";
paths = (
{
closed = 1;
nodes = (
"460 95 LINE",
"324 95 OFFCURVE",
"184 161 OFFCURVE",
"226 340 CURVE SMOOTH",
"267 520 OFFCURVE",
"439 590 OFFCURVE",
"575 590 CURVE",
"526 378 LINE",
"643 378 LINE",
"717 699 LINE",
"600 699 LINE SMOOTH",
"398 699 OFFCURVE",
"166 597 OFFCURVE",
"107 340 CURVE SMOOTH",
"48 84 OFFCURVE",
"233 -14 OFFCURVE",
"435 -14 CURVE"
);
}
);
width = 714;
}
);
leftKerningGroup = "ronde-cap";
note = C;
},
{
color = 4;
glyphname = Ccedilla.ss03;
lastChange = "2018-03-11 16:26:15 +0000";
layers = (
{
layerId = "36D41E8E-F531-4154-A930-CD44EA9C85A7";
paths = (
{
closed = 1;
nodes = (
"382 -249 LINE",
"446 29 LINE",
"445 29 LINE",
"460 95 LINE",
"324 95 OFFCURVE",
"184 161 OFFCURVE",
"226 340 CURVE SMOOTH",
"267 520 OFFCURVE",
"439 590 OFFCURVE",
"575 590 CURVE",
"526 378 LINE",
"643 378 LINE",
"717 699 LINE",
"600 699 LINE SMOOTH",
"398 699 OFFCURVE",
"166 597 OFFCURVE",
"107 340 CURVE SMOOTH",
"59 133 OFFCURVE",
"171 29 OFFCURVE",
"323 -3 CURVE",
"266 -249 LINE"
);
}
);
width = 714;
}
);
leftKerningGroup = "ronde-cap";
note = Ccedilla;
},
{
color = 4;
glyphname = D.ss03;
lastChange = "2018-03-11 16:26:15 +0000";
layers = (
{
layerId = "36D41E8E-F531-4154-A930-CD44EA9C85A7";
paths = (
{
closed = 1;
nodes = (
"359 -14 OFFCURVE",
"590 86 OFFCURVE",
"649 342 CURVE SMOOTH",
"709 599 OFFCURVE",
"534 700 OFFCURVE",
"341 700 CURVE SMOOTH",
"206 700 LINE",
"108 277 LINE",
"360 277 LINE",
"384 379 LINE",
"249 379 LINE",
"298 591 LINE",
"460 591 OFFCURVE",
"573 522 OFFCURVE",
"531 342 CURVE SMOOTH",
"490 163 OFFCURVE",
"319 95 OFFCURVE",
"183 95 CURVE",
"158 -14 LINE"
);
}
);
width = 705;
}
);
note = D;
},
{
color = 4;
glyphname = E.ss03;
lastChange = "2018-03-11 16:26:15 +0000";
layers = (
{
layerId = "36D41E8E-F531-4154-A930-CD44EA9C85A7";
paths = (
{
closed = 1;
nodes = (
"580 0 LINE",
"604 102 LINE",
"323 102 LINE",
"369 302 LINE",
"582 302 LINE",
"606 404 LINE",
"393 404 LINE",
"437 597 LINE",
"718 597 LINE",
"742 699 LINE",
"343 699 LINE",
"275 404 LINE",
"84 404 LINE",
"60 302 LINE",
"251 302 LINE",
"181 0 LINE"
);
}
);
width = 728;
}
);
leftKerningGroup = "E-s2";
note = E.alt;
rightKerningGroup = E;
},
{
color = 4;
glyphname = F.ss03;
lastChange = "2018-03-11 16:26:15 +0000";
layers = (
{
layerId = "36D41E8E-F531-4154-A930-CD44EA9C85A7";
paths = (
{
closed = 1;
nodes = (
"297 0 LINE",
"367 303 LINE",
"607 303 LINE",
"631 405 LINE",
"391 405 LINE",
"459 699 LINE",
"152 699 LINE",
"128 597 LINE",
"318 597 LINE",
"180 0 LINE"
);
}
);
width = 683;
}
);
note = F;
},
{
color = 4;
glyphname = G.ss03;
lastChange = "2018-03-11 16:26:15 +0000";
layers = (
{
layerId = "36D41E8E-F531-4154-A930-CD44EA9C85A7";
paths = (
{
closed = 1;
nodes = (
"552 -14 LINE",
"650 410 LINE",
"397 410 LINE",
"373 308 LINE",
"509 308 LINE",
"460 96 LINE",
"324 96 OFFCURVE",
"187 172 OFFCURVE",
"228 351 CURVE SMOOTH",
"270 530 OFFCURVE",
"442 606 OFFCURVE",
"578 606 CURVE",
"603 715 LINE",
"401 715 OFFCURVE",
"168 607 OFFCURVE",
"109 351 CURVE SMOOTH",
"50 95 OFFCURVE",
"233 -14 OFFCURVE",
"435 -14 CURVE SMOOTH"
);
}
);
width = 739;
}
);
leftKerningGroup = "ronde-cap";
note = G;
},
{
color = 4;
glyphname = H.ss03;
lastChange = "2018-03-11 16:26:15 +0000";
layers = (
{
layerId = "36D41E8E-F531-4154-A930-CD44EA9C85A7";
paths = (
{
closed = 1;
nodes = (
"751 0 LINE",
"913 699 LINE",
"796 699 LINE",
"728 404 LINE",
"531 404 LINE",
"507 302 LINE",
"704 302 LINE",
"634 0 LINE"
);
},
{
closed = 1;
nodes = (
"298 0 LINE",
"460 699 LINE",
"343 699 LINE",
"275 404 LINE",
"84 404 LINE",
"60 302 LINE",
"251 302 LINE",
"181 0 LINE"
);
}
);
width = 925;
}
);
leftKerningGroup = "E-s2";
note = H;
},
{
color = 4;
glyphname = I.ss03;
lastChange = "2018-03-11 16:26:15 +0000";
layers = (
{
layerId = "36D41E8E-F531-4154-A930-CD44EA9C85A7";
paths = (
{
closed = 1;
nodes = (
"171 0 LINE",
"333 699 LINE",
"216 699 LINE",
"54 0 LINE"
);
}
);
width = 345;
}
);
note = I;
},
{
color = 4;
glyphname = J.ss03;
lastChange = "2018-03-11 16:26:15 +0000";
layers = (
{
layerId = "36D41E8E-F531-4154-A930-CD44EA9C85A7";
paths = (
{
closed = 1;
nodes = (
"297 0 LINE",
"459 699 LINE",
"134 699 LINE",
"110 597 LINE",
"318 597 LINE",
"180 0 LINE"
);
}
);
width = 471;
}
);
note = J;
},
{
color = 4;
glyphname = K.ss03;
lastChange = "2018-03-11 16:26:15 +0000";
layers = (
{
layerId = "36D41E8E-F531-4154-A930-CD44EA9C85A7";
paths = (
{
closed = 1;
nodes = (
"171 0 LINE",
"287 499 LINE",
"520 0 LINE",
"662 0 LINE",
"498 348 LINE",
"848 699 LINE",
"711 699 LINE",
"456 439 LINE",
"333 699 LINE",
"333 699 LINE",
"216 699 LINE",
"54 0 LINE"
);
}
);
width = 791;
}
);
note = K;
rightKerningGroup = K;
},
{
color = 4;
glyphname = L.ss03;
lastChange = "2018-03-11 16:26:15 +0000";
layers = (
{
layerId = "36D41E8E-F531-4154-A930-CD44EA9C85A7";
paths = (
{
closed = 1;
nodes = (
"558 0 LINE",
"582 102 LINE",
"196 102 LINE",
"334 699 LINE",
"216 699 LINE",
"54 0 LINE"
);
}
);
width = 681;
}
);
note = L;
rightKerningGroup = L;
},
{
color = 4;
glyphname = M.ss03;
lastChange = "2018-03-11 16:26:15 +0000";
layers = (
{
layerId = "36D41E8E-F531-4154-A930-CD44EA9C85A7";
paths = (
{
closed = 1;
nodes = (
"176 0 LINE",
"687 531 LINE",
"564 0 LINE",
"682 0 LINE",
"844 700 LINE",
"726 700 LINE",
"474 435 LINE",
"371 700 LINE",
"216 700 LINE",
"54 0 LINE"
);
},
{
closed = 1;
nodes = (
"302 572 LINE",
"383 344 LINE",
"206 155 LINE"
);
}
);
width = 856;
}
);
note = M;
},
{
color = 4;
glyphname = N.ss03;
lastChange = "2018-03-11 16:26:15 +0000";
layers = (
{
layerId = "36D41E8E-F531-4154-A930-CD44EA9C85A7";
paths = (
{
closed = 1;
nodes = (
"171 0 LINE",
"296 538 LINE",
"560 254 LINE",
"501 0 LINE",
"618 0 LINE",
"780 699 LINE",
"663 699 LINE",
"597 413 LINE",
"332 698 LINE",
"333 699 LINE",
"216 699 LINE",
"54 0 LINE"
);
}
);
width = 791;
}
);
leftKerningGroup = N;
note = N;
rightKerningGroup = N;
},
{
color = 4;
glyphname = O.ss03;
lastChange = "2018-03-11 16:26:15 +0000";
layers = (
{
anchors = (
{
name = bottom;
position = "{306, 241}";
},
{
name = center;
position = "{361, 477}";
},
{
name = top;
position = "{408, 679}";
}
);
layerId = "36D41E8E-F531-4154-A930-CD44EA9C85A7";
paths = (
{
closed = 1;
nodes = (
"437 241 OFFCURVE",
"566 346 OFFCURVE",
"596 477 CURVE SMOOTH",
"627 608 OFFCURVE",
"546 713 OFFCURVE",
"415 713 CURVE SMOOTH",
"284 713 OFFCURVE",
"155 608 OFFCURVE",
"124 477 CURVE SMOOTH",
"94 346 OFFCURVE",
"175 241 OFFCURVE",
"306 241 CURVE SMOOTH"
);
},
{
closed = 1;
nodes = (
"263 346 OFFCURVE",
"221 407 OFFCURVE",
"237 477 CURVE SMOOTH",
"254 547 OFFCURVE",
"324 608 OFFCURVE",
"391 608 CURVE SMOOTH",
"458 608 OFFCURVE",
"500 547 OFFCURVE",
"483 477 CURVE SMOOTH",
"467 407 OFFCURVE",
"397 346 OFFCURVE",
"330 346 CURVE SMOOTH"
);
}
);
width = 621;
}
);
leftKerningGroup = "ronde-cap-alt";
note = O.alt;
rightKerningGroup = "ronde-cap-alt";
},
{
color = 4;
glyphname = P.ss03;
lastChange = "2018-03-11 16:26:15 +0000";
layers = (
{
layerId = "36D41E8E-F531-4154-A930-CD44EA9C85A7";
paths = (
{
closed = 1;
nodes = (
"298 0 LINE",
"435 591 LINE",
"600 591 LINE SMOOTH",
"652 591 OFFCURVE",
"684 547 OFFCURVE",
"671 493 CURVE SMOOTH",
"659 439 OFFCURVE",
"607 395 OFFCURVE",
"555 395 CURVE",
"530 287 LINE",
"643 287 OFFCURVE",
"757 379 OFFCURVE",
"783 493 CURVE SMOOTH",
"809 607 OFFCURVE",
"738 699 OFFCURVE",
"625 699 CURVE SMOOTH",
"342 699 LINE",
"274 404 LINE",
"84 404 LINE",
"60 302 LINE",
"250 302 LINE",
"180 0 LINE"
);
}
);
width = 821;
}
);
leftKerningGroup = P;
note = P;
rightKerningGroup = P;
},
{
color = 4;
glyphname = Q.ss03;
lastChange = "2018-03-11 16:26:15 +0000";
layers = (
{
layerId = "36D41E8E-F531-4154-A930-CD44EA9C85A7";
paths = (
{
closed = 1;
nodes = (
"406 -137 LINE",
"435 -10 LINE",
"613 20 OFFCURVE",
"777 169 OFFCURVE",
"819 349 CURVE SMOOTH",
"865 550 OFFCURVE",
"740 714 OFFCURVE",
"539 714 CURVE SMOOTH",
"338 714 OFFCURVE",
"136 550 OFFCURVE",
"90 349 CURVE SMOOTH",
"48 166 OFFCURVE",
"148 15 OFFCURVE",
"317 -11 CURVE",
"288 -137 LINE"
);
},
{
closed = 1;
nodes = (
"239 126 OFFCURVE",
"181 228 OFFCURVE",
"209 349 CURVE SMOOTH",
"241 490 OFFCURVE",
"378 604 OFFCURVE",
"514 604 CURVE SMOOTH",
"649 604 OFFCURVE",
"732 490 OFFCURVE",
"700 349 CURVE SMOOTH",
"673 231 OFFCURVE",
"573 131 OFFCURVE",
"461 102 CURVE",
"489 222 LINE",
"371 222 LINE",
"342 100 LINE"
);
}
);
width = 867;
}
);
leftKerningGroup = "ronde-cap";
note = Q;
rightKerningGroup = "ronde-cap";
},
{
color = 4;
glyphname = R.ss03;
lastChange = "2018-03-11 16:26:15 +0000";
layers = (
{
layerId = "36D41E8E-F531-4154-A930-CD44EA9C85A7";
paths = (
{
closed = 1;
nodes = (
"100 0 LINE",
"326 270 LINE",
"471 0 LINE",
"620 0 LINE",
"441 308 LINE",
"537 329 OFFCURVE",
"622 405 OFFCURVE",
"644 502 CURVE SMOOTH",
"671 616 OFFCURVE",
"607 714 OFFCURVE",
"487 714 CURVE",
"462 606 LINE",
"514 606 OFFCURVE",
"545 552 OFFCURVE",
"532 498 CURVE SMOOTH",
"520 444 OFFCURVE",
"464 390 OFFCURVE",
"412 390 CURVE SMOOTH",
"388 390 OFFCURVE",
"368 400 OFFCURVE",
"354 416 CURVE",
"346 431 LINE",
"-32 0 LINE"
);
}
);
width = 695;
}
);
leftKerningGroup = A;
note = R.alt;
rightKerningGroup = R;
},
{
color = 4;
glyphname = S.ss03;
lastChange = "2018-03-11 16:26:15 +0000";
layers = (
{
layerId = "36D41E8E-F531-4154-A930-CD44EA9C85A7";
paths = (
{
closed = 1;
nodes = (
"496 0 LINE",
"239 508 LINE",
"238 508 LINE",
"250 560 OFFCURVE",
"303 602 OFFCURVE",
"357 602 CURVE SMOOTH",
"411 602 OFFCURVE",
"446 560 OFFCURVE",
"434 508 CURVE",
"542 508 LINE",
"568 622 OFFCURVE",
"492 714 OFFCURVE",
"378 714 CURVE SMOOTH",
"251 714 OFFCURVE",
"129 607 OFFCURVE",
"103 493 CURVE",
"353 0 LINE"
);
}
);
width = 602;
}
);
leftKerningGroup = S.ss01;
note = S;
rightKerningGroup = S.ss01;
},
{
color = 4;
glyphname = T.ss03;
lastChange = "2018-03-11 16:26:15 +0000";
layers = (
{
layerId = "36D41E8E-F531-4154-A930-CD44EA9C85A7";
paths = (
{
closed = 1;
nodes = (
"420 252 LINE",
"500 598 LINE",
"768 598 LINE",
"792 699 LINE",
"140 699 LINE",
"116 598 LINE",
"383 598 LINE",
"303 252 LINE"
);
}
);
width = 728;
}
);
leftKerningGroup = T;
note = T;
rightKerningGroup = T;
},
{
color = 4;
glyphname = U.ss03;
lastChange = "2018-03-05 14:10:01 +0000";
layers = (
{
layerId = "36D41E8E-F531-4154-A930-CD44EA9C85A7";
paths = (
{
closed = 1;
nodes = (
"483 -15 OFFCURVE",
"621 88 OFFCURVE",
"659 254 CURVE SMOOTH",
"762 699 LINE",
"645 699 LINE",
"545 265 LINE SMOOTH",
"521 162 OFFCURVE",
"434 94 OFFCURVE",
"347 94 CURVE SMOOTH",
"260 94 OFFCURVE",
"205 162 OFFCURVE",
"229 265 CURVE SMOOTH",
"329 699 LINE",
"212 699 LINE",
"109 254 LINE SMOOTH",
"71 88 OFFCURVE",
"161 -15 OFFCURVE",
"322 -15 CURVE SMOOTH"
);
}
);
width = 770;
}
);
leftKerningGroup = U;
note = U;
rightKerningGroup = U;
},
{
color = 4;
glyphname = V.ss03;
lastChange = "2018-03-05 14:14:54 +0000";
layers = (
{
layerId = "36D41E8E-F531-4154-A930-CD44EA9C85A7";
paths = (
{
closed = 1;
nodes = (
"354 254 LINE",
"784 699 LINE",
"648 699 LINE",
"392 438 LINE",
"259 699 LINE",
"122 699 LINE",
"346 254 LINE"
);
}
);
width = 702;
}
);
leftKerningGroup = "diag-cap-2";
note = V;
rightKerningGroup = "diag-cap-2";
},
{
color = 4;
glyphname = W.ss03;
lastChange = "2018-03-11 16:26:15 +0000";
layers = (
{
layerId = "36D41E8E-F531-4154-A930-CD44EA9C85A7";
paths = (
{
closed = 1;
nodes = (
"711 78 LINE",
"1140 523 LINE",
"1004 523 LINE",
"749 263 LINE",
"615 523 LINE",
"785 699 LINE",
"648 699 LINE",
"393 438 LINE",
"259 699 LINE",
"123 699 LINE",
"346 254 LINE",
"355 254 LINE",
"526 430 LINE",
"702 78 LINE"
);
}
);
width = 1101;
}
);
leftKerningGroup = "diag-cap";
note = W;
rightKerningGroup = "diag-cap";
},
{
color = 4;
glyphname = X.ss03;
lastChange = "2018-03-11 16:26:15 +0000";
layers = (
{
layerId = "36D41E8E-F531-4154-A930-CD44EA9C85A7";
paths = (
{
closed = 1;
nodes = (
"633 0 LINE",
"457 347 LINE",
"805 699 LINE",
"663 699 LINE",
"406 438 LINE",
"272 699 LINE",
"132 699 LINE",
"487 0 LINE"
);
}
);
width = 762;
}
);
leftKerningGroup = X;
note = X;
rightKerningGroup = X;
},
{
color = 4;
glyphname = Y.ss03;
lastChange = "2018-03-11 16:26:15 +0000";
layers = (
{
layerId = "36D41E8E-F531-4154-A930-CD44EA9C85A7";
paths = (
{
closed = 1;
nodes = (
"157 0 LINE",
"836 699 LINE",
"701 699 LINE",
"445 438 LINE",
"310 699 LINE",
"173 699 LINE",
"355 346 LINE",
"18 0 LINE"
);
}
);
width = 753;
}
);
leftKerningGroup = Y;
note = Y.alt;
rightKerningGroup = Y;
},
{
color = 4;
glyphname = Z.ss03;
lastChange = "2018-03-11 16:26:15 +0000";
layers = (
{
layerId = "36D41E8E-F531-4154-A930-CD44EA9C85A7";
paths = (
{
closed = 1;
nodes = (
"646 0 LINE",
"471 385 LINE",
"676 607 LINE",
"698 699 LINE",
"203 699 LINE",
"179 597 LINE",
"532 597 LINE",
"-19 0 LINE"
);
},
{
closed = 1;
nodes = (
"380 286 LINE",
"464 102 LINE",
"211 102 LINE"
);
}
);
width = 733;
}
);
leftKerningGroup = Z;
note = Z;
},
{
color = 5;
glyphname = a;
lastChange = "2018-03-05 11:09:36 +0000";
layers = (
{
anchors = (
{
name = ogonek;
position = "{531, 1}";
},
{
name = top;
position = "{390, 516}";
}
);
layerId = "36D41E8E-F531-4154-A930-CD44EA9C85A7";
paths = (
{
closed = 1;
nodes = (
"331 -15 OFFCURVE",
"393 18 OFFCURVE",
"436 53 CURVE",
"422 0 LINE",
"530 0 LINE",
"652 517 LINE",
"544 517 LINE",
"532 467 LINE",
"504 503 OFFCURVE",
"448 532 OFFCURVE",
"373 532 CURVE SMOOTH",
"215 532 OFFCURVE",
"75 409 OFFCURVE",
"40 258 CURVE SMOOTH",
"5 107 OFFCURVE",
"89 -15 OFFCURVE",
"247 -15 CURVE SMOOTH"
);
},
{
closed = 1;
nodes = (
"180 81 OFFCURVE",
"125 161 OFFCURVE",
"148 259 CURVE SMOOTH",
"171 357 OFFCURVE",
"262 436 OFFCURVE",
"359 436 CURVE SMOOTH",
"455 436 OFFCURVE",
"516 371 OFFCURVE",
"490 259 CURVE SMOOTH",
"464 146 OFFCURVE",
"373 81 OFFCURVE",
"277 81 CURVE SMOOTH"
);
}
);
width = 672;
}
);
leftKerningGroup = "ronde-min";
note = a;
rightKerningGroup = a;
unicode = 0061;
},
{
color = 5;
glyphname = b;
lastChange = "2018-03-05 11:09:36 +0000";
layers = (
{
layerId = "36D41E8E-F531-4154-A930-CD44EA9C85A7";
paths = (
{
closed = 1;
nodes = (
"457 -15 OFFCURVE",
"597 107 OFFCURVE",
"632 258 CURVE SMOOTH",
"667 409 OFFCURVE",
"583 532 OFFCURVE",
"425 532 CURVE SMOOTH",
"350 532 OFFCURVE",
"280 503 OFFCURVE",
"236 467 CURVE",
"289 697 LINE",
"178 679 LINE",
"21 0 LINE",
"130 0 LINE",
"142 53 LINE",
"167 18 OFFCURVE",
"215 -15 OFFCURVE",
"299 -15 CURVE SMOOTH"
);
},
{
closed = 1;
nodes = (
"217 81 OFFCURVE",
"156 146 OFFCURVE",
"182 259 CURVE SMOOTH",
"208 371 OFFCURVE",
"299 436 OFFCURVE",
"395 436 CURVE SMOOTH",
"492 436 OFFCURVE",
"550 357 OFFCURVE",
"527 259 CURVE SMOOTH",
"504 161 OFFCURVE",
"410 81 OFFCURVE",
"313 81 CURVE SMOOTH"
);
}
);
width = 672;
}
);
note = b;
rightKerningGroup = "ronde-min";
unicode = 0062;
},
{
color = 5;
glyphname = c;
lastChange = "2018-03-05 12:55:43 +0000";
layers = (
{
anchors = (
{
name = bottom;
position = "{272, -9}";
},
{
name = top;
position = "{383, 516}";
}
);
layerId = "36D41E8E-F531-4154-A930-CD44EA9C85A7";
paths = (
{
closed = 1;
nodes = (
"323 -15 OFFCURVE",
"411 -3 OFFCURVE",
"466 34 CURVE",
"489 134 LINE",
"489 134 OFFCURVE",
"413 80 OFFCURVE",
"292 80 CURVE SMOOTH",
"177 80 OFFCURVE",
"120 152 OFFCURVE",
"145 259 CURVE SMOOTH",
"168 357 OFFCURVE",
"262 437 OFFCURVE",
"364 437 CURVE SMOOTH",
"488 437 OFFCURVE",
"531 359 OFFCURVE",
"531 359 CURVE",
"557 470 LINE",
"521 513 OFFCURVE",
"450 532 OFFCURVE",
"386 532 CURVE SMOOTH",
"218 532 OFFCURVE",
"75 410 OFFCURVE",
"40 259 CURVE SMOOTH",
"5 108 OFFCURVE",
"77 -15 OFFCURVE",
"270 -15 CURVE SMOOTH"
);
}
);
width = 553;
}
);
leftKerningGroup = "ronde-min";
note = c;
rightKerningGroup = c;
unicode = 0063;
},
{
color = 5;
glyphname = d;
lastChange = "2018-03-05 11:09:36 +0000";
layers = (
{
anchors = (
{
name = "caron-t";
position = "{670, 401}";
},
{
name = center;
position = "{590, 580}";
}
);
layerId = "36D41E8E-F531-4154-A930-CD44EA9C85A7";
paths = (
{
closed = 1;
nodes = (
"331 -15 OFFCURVE",
"393 18 OFFCURVE",
"436 53 CURVE",
"422 0 LINE",
"532 0 LINE",
"693 697 LINE",
"581 679 LINE",
"532 467 LINE",
"504 503 OFFCURVE",
"448 532 OFFCURVE",
"373 532 CURVE SMOOTH",
"215 532 OFFCURVE",
"75 409 OFFCURVE",
"40 258 CURVE SMOOTH",
"5 107 OFFCURVE",
"89 -15 OFFCURVE",
"247 -15 CURVE SMOOTH"
);
},
{
closed = 1;
nodes = (
"180 81 OFFCURVE",
"122 161 OFFCURVE",
"145 259 CURVE SMOOTH",
"168 357 OFFCURVE",
"262 436 OFFCURVE",
"359 436 CURVE SMOOTH",
"455 436 OFFCURVE",
"516 371 OFFCURVE",
"490 259 CURVE SMOOTH",
"464 146 OFFCURVE",
"373 81 OFFCURVE",
"277 81 CURVE SMOOTH"
);
}
);
width = 672;
}
);
leftKerningGroup = "ronde-min";
note = d;
rightKerningGroup = d;
unicode = 0064;
},
{
color = 5;
glyphname = eth;
lastChange = "2018-03-05 11:09:25 +0000";
layers = (
{
layerId = "36D41E8E-F531-4154-A930-CD44EA9C85A7";
paths = (
{
closed = 1;
nodes = (
"377 -15 OFFCURVE",
"508 80 OFFCURVE",
"552 273 CURVE SMOOTH",
"586 417 OFFCURVE",
"568 542 OFFCURVE",
"462 614 CURVE",
"491 656 LINE",
"420 696 LINE",
"388 649 LINE",
"337 667 OFFCURVE",
"274 676 OFFCURVE",
"197 676 CURVE",
"176 582 LINE",
"237 582 OFFCURVE",
"289 578 OFFCURVE",
"332 567 CURVE",
"298 517 LINE",
"370 478 LINE",
"408 534 LINE",
"454 501 OFFCURVE",
"478 449 OFFCURVE",
"481 369 CURVE",
"459 413 OFFCURVE",
"405 450 OFFCURVE",
"328 450 CURVE SMOOTH",
"182 450 OFFCURVE",
"63 357 OFFCURVE",
"30 217 CURVE SMOOTH",
"-2 78 OFFCURVE",
"79 -15 OFFCURVE",
"232 -15 CURVE SMOOTH"
);
},
{
closed = 1;
nodes = (
"166 81 OFFCURVE",
"120 137 OFFCURVE",
"139 220 CURVE SMOOTH",
"158 300 OFFCURVE",
"224 354 OFFCURVE",
"306 354 CURVE SMOOTH",
"405 354 OFFCURVE",
"451 298 OFFCURVE",
"433 220 CURVE SMOOTH",
"416 148 OFFCURVE",
"344 81 OFFCURVE",
"254 81 CURVE SMOOTH"
);
}
);
width = 589;
}
);
leftKerningGroup = "ronde-min";
leftMetricsKey = o;
rightKerningGroup = "ronde-min";
rightMetricsKey = o;
unicode = 00F0;
},
{
color = 5;
glyphname = dcroat;
lastChange = "2018-03-05 11:11:26 +0000";
layers = (
{
anchors = (
{
name = _center;
position = "{590, 580}";
}
);
components = (
{
name = d;
}
);
layerId = "36D41E8E-F531-4154-A930-CD44EA9C85A7";
paths = (
{
closed = 1;
nodes = (
"718 537 LINE",
"739 627 LINE",
"482 627 LINE",
"461 537 LINE"
);
}
);
width = 664;
}
);
leftKerningGroup = "ronde-min";
unicode = 0111;
},
{
color = 5;
glyphname = e;
lastChange = "2018-03-05 11:09:36 +0000";
layers = (
{
anchors = (
{
name = "#entry";
position = "{-20, 0}";
},
{
name = ogonek;
position = "{482, 38}";
},
{
name = top;
position = "{378, 516}";
}
);
layerId = "36D41E8E-F531-4154-A930-CD44EA9C85A7";
paths = (
{
closed = 1;
nodes = (
"414 -15 OFFCURVE",
"482 38 OFFCURVE",
"482 38 CURVE",
"504 135 LINE",
"503 135 OFFCURVE",
"414 81 OFFCURVE",
"287 81 CURVE SMOOTH",
"170 81 OFFCURVE",
"131 153 OFFCURVE",
"137 233 CURVE",
"550 233 LINE",
"562 283 LINE SMOOTH",
"591 408 OFFCURVE",
"532 532 OFFCURVE",
"382 532 CURVE SMOOTH",
"222 532 OFFCURVE",
"76 414 OFFCURVE",
"40 259 CURVE SMOOTH",
"6 110 OFFCURVE",
"81 -15 OFFCURVE",
"263 -15 CURVE SMOOTH"
);
},
{
closed = 1;
nodes = (
"177 357 OFFCURVE",
"235 444 OFFCURVE",
"348 444 CURVE SMOOTH",
"461 444 OFFCURVE",
"467 357 OFFCURVE",
"462 317 CURVE",
"162 317 LINE"
);
}
);
width = 596;
}
);
leftKerningGroup = "ronde-min";
note = e;
rightKerningGroup = "ronde-min";
unicode = 0065;
},
{
color = 5;
glyphname = f;
lastChange = "2018-03-05 12:57:10 +0000";
layers = (
{
layerId = "36D41E8E-F531-4154-A930-CD44EA9C85A7";
paths = (
{
closed = 1;
nodes = (
"130 -250 LINE",
"274 370 LINE",
"507 370 LINE",
"527 458 LINE",
"294 458 LINE",
"322 579 OFFCURVE",
"379 621 OFFCURVE",
"459 621 CURVE SMOOTH",
"539 621 OFFCURVE",
"577 567 OFFCURVE",
"577 567 CURVE",
"599 663 LINE",
"599 663 OFFCURVE",
"576 717 OFFCURVE",
"466 717 CURVE SMOOTH",
"337 717 OFFCURVE",
"224 623 OFFCURVE",
"186 458 CURVE",
"76 458 LINE",
"56 370 LINE",
"166 370 LINE",
"22 -250 LINE"
);
}
);
width = 521;
}
);
leftKerningGroup = f;
note = f;
rightKerningGroup = f;
unicode = 0066;
},
{
color = 5;
glyphname = g;
lastChange = "2018-03-05 11:09:36 +0000";
layers = (
{
anchors = (
{
name = top;
position = "{380, 516}";
}
);
layerId = "36D41E8E-F531-4154-A930-CD44EA9C85A7";
paths = (
{
closed = 1;
nodes = (
"397 -225 OFFCURVE",
"508 -97 OFFCURVE",
"543 54 CURVE SMOOTH",
"652 517 LINE",
"544 517 LINE",
"532 467 LINE",
"504 503 OFFCURVE",
"448 532 OFFCURVE",
"373 532 CURVE SMOOTH",
"215 532 OFFCURVE",
"75 409 OFFCURVE",
"40 258 CURVE SMOOTH",
"5 107 OFFCURVE",
"89 -15 OFFCURVE",
"247 -15 CURVE SMOOTH",
"330 -15 OFFCURVE",
"392 17 OFFCURVE",
"434 52 CURVE",
"432 40 LINE SMOOTH",
"404 -81 OFFCURVE",
"319 -129 OFFCURVE",
"202 -129 CURVE SMOOTH",
"75 -129 OFFCURVE",
"11 -75 OFFCURVE",
"11 -75 CURVE",
"-11 -172 LINE",
"-11 -172 OFFCURVE",
"32 -225 OFFCURVE",
"183 -225 CURVE SMOOTH"
);
},
{
closed = 1;
nodes = (
"180 81 OFFCURVE",
"125 161 OFFCURVE",
"148 259 CURVE SMOOTH",
"171 357 OFFCURVE",
"262 436 OFFCURVE",
"359 436 CURVE SMOOTH",
"455 436 OFFCURVE",
"516 371 OFFCURVE",
"490 259 CURVE SMOOTH",
"464 146 OFFCURVE",
"373 81 OFFCURVE",
"277 81 CURVE SMOOTH"
);
}
);
width = 645;
}
);
leftKerningGroup = "ronde-min";
note = g;
unicode = 0067;
},
{
color = 5;
glyphname = h;
lastChange = "2018-03-05 11:12:16 +0000";
layers = (
{
anchors = (
{
name = center;
position = "{249, 574}";
},
{
name = top;
position = "{411, 680}";
}
);
components = (
{
name = l;
}
);
layerId = "36D41E8E-F531-4154-A930-CD44EA9C85A7";
paths = (
{
closed = 1;
nodes = (
"496 0 LINE",
"570 318 LINE SMOOTH",
"603 460 OFFCURVE",
"527 533 OFFCURVE",
"411 533 CURVE SMOOTH",
"285 533 OFFCURVE",
"232 453 OFFCURVE",
"232 453 CURVE",
"195 291 LINE",
"217 388 OFFCURVE",
"298 437 OFFCURVE",
"373 437 CURVE SMOOTH",
"444 437 OFFCURVE",
"478 390 OFFCURVE",
"459 307 CURVE SMOOTH",
"388 0 LINE"
);
}
);
width = 626;
}
);
note = h;
rightKerningGroup = n;
unicode = 0068;
},
{
color = 5;
glyphname = hbar;
lastChange = "2018-03-05 11:12:43 +0000";
layers = (
{
anchors = (
{
name = _center;
position = "{232, 574}";
}
);
components = (
{
name = h;
transform = "{1, 0, 0, 1, -17, 0}";
}
);
layerId = "36D41E8E-F531-4154-A930-CD44EA9C85A7";
paths = (
{
closed = 1;
nodes = (
"321 537 LINE",
"342 627 LINE",
"85 627 LINE",
"64 537 LINE"
);
}
);
width = 610;
}
);
rightKerningGroup = n;
unicode = 0127;
},
{
color = 5;
glyphname = i;
lastChange = "2018-03-05 11:09:36 +0000";
layers = (
{
anchors = (
{
name = ogonek;
position = "{141, 1}";
}
);
layerId = "36D41E8E-F531-4154-A930-CD44EA9C85A7";
paths = (
{
closed = 1;
nodes = (
"140 0 LINE",
"260 518 LINE",
"152 518 LINE",
"32 0 LINE"
);
},
{
closed = 1;
nodes = (
"253 591 OFFCURVE",
"286 618 OFFCURVE",
"294 652 CURVE SMOOTH",
"302 687 OFFCURVE",
"281 714 OFFCURVE",
"246 714 CURVE SMOOTH",
"212 714 OFFCURVE",
"179 687 OFFCURVE",
"171 652 CURVE SMOOTH",
"163 618 OFFCURVE",
"184 591 OFFCURVE",
"218 591 CURVE SMOOTH"
);
}
);
width = 283;
}
);
leftKerningGroup = i;
note = i;
rightKerningGroup = i;
unicode = 0069;
},
{
color = 5;
glyphname = j;
lastChange = "2018-03-05 11:09:36 +0000";
layers = (
{
layerId = "36D41E8E-F531-4154-A930-CD44EA9C85A7";
paths = (
{
closed = 1;
nodes = (
"60 -224 OFFCURVE",
"112 -108 OFFCURVE",
"130 -31 CURVE SMOOTH",
"257 518 LINE",
"149 518 LINE",
"20 -40 LINE SMOOTH",
"11 -81 OFFCURVE",
"-14 -128 OFFCURVE",
"-67 -128 CURVE SMOOTH",
"-147 -128 OFFCURVE",
"-180 -49 OFFCURVE",
"-180 -49 CURVE",
"-206 -161 LINE",
"-206 -161 OFFCURVE",
"-184 -224 OFFCURVE",
"-74 -224 CURVE SMOOTH"
);
},
{
closed = 1;
nodes = (
"247 591 OFFCURVE",
"280 618 OFFCURVE",
"288 652 CURVE SMOOTH",
"296 687 OFFCURVE",
"275 714 OFFCURVE",
"240 714 CURVE SMOOTH",
"206 714 OFFCURVE",
"173 687 OFFCURVE",
"165 652 CURVE SMOOTH",
"157 618 OFFCURVE",
"178 591 OFFCURVE",
"212 591 CURVE SMOOTH"
);
}
);
width = 268;
}
);
leftKerningGroup = j;
note = j;
rightKerningGroup = j;
unicode = 006A;
},
{
color = 5;
glyphname = k;
lastChange = "2018-03-05 12:48:55 +0000";
layers = (
{
anchors = (
{
name = bottom;
position = "{254, 0}";
}
);
layerId = "36D41E8E-F531-4154-A930-CD44EA9C85A7";
paths = (
{
closed = 1;
nodes = (
"128 0 LINE",
"178 217 LINE",
"241 261 LINE",
"394 0 LINE",
"526 0 LINE",
"331 324 LINE",
"606 517 LINE",
"451 517 LINE",
"142 301 LINE",
"193 282 LINE",
"289 697 LINE",
"177 679 LINE",
"20 0 LINE"
);
}
);
width = 576;
}
);
note = k;
rightKerningGroup = k;
unicode = 006B;
},
{
color = 5;
glyphname = l;
lastChange = "2018-03-05 13:38:17 +0000";
layers = (
{
anchors = (
{
name = bottom;
position = "{66, 0}";
},
{
name = "caron-t";
position = "{267, 401}";
},
{
name = center;
position = "{162, 368}";
},
{
name = middle;
position = "{331, 355}";
},
{
name = top;
position = "{231, 679}";
}
);
layerId = "36D41E8E-F531-4154-A930-CD44EA9C85A7";
paths = (
{
closed = 1;
nodes = (
"128 0 LINE",
"289 697 LINE",
"177 679 LINE",
"20 0 LINE"
);
}
);
width = 268;
}
);
note = l;
unicode = 006C;
},
{
color = 5;
glyphname = m;
lastChange = "2018-03-05 12:31:42 +0000";
layers = (
{
components = (
{
name = idotless;
}
);
layerId = "36D41E8E-F531-4154-A930-CD44EA9C85A7";
paths = (
{
closed = 1;
nodes = (
"472 0 LINE",
"540 291 LINE SMOOTH",
"562 388 OFFCURVE",
"638 437 OFFCURVE",
"703 437 CURVE SMOOTH",
"774 437 OFFCURVE",
"793 390 OFFCURVE",
"774 307 CURVE SMOOTH",
"703 0 LINE",
"811 0 LINE",
"885 318 LINE SMOOTH",
"918 460 OFFCURVE",
"857 533 OFFCURVE",
"741 533 CURVE SMOOTH",
"643 533 OFFCURVE",
"580 493 OFFCURVE",
"546 448 CURVE",
"526 504 OFFCURVE",
"475 533 OFFCURVE",
"402 533 CURVE SMOOTH",
"286 533 OFFCURVE",
"238 453 OFFCURVE",
"238 453 CURVE",
"201 291 LINE",
"223 388 OFFCURVE",
"299 437 OFFCURVE",
"364 437 CURVE SMOOTH",
"435 437 OFFCURVE",
"454 390 OFFCURVE",
"435 307 CURVE SMOOTH",
"364 0 LINE"
);
}
);
width = 941;
}
);
note = m;
rightMetricsKey = n;
unicode = 006D;
},
{
color = 5;
glyphname = n;
lastChange = "2018-03-11 16:26:47 +0000";
layers = (
{
anchors = (
{
name = bottom;
position = "{254, 0}";
},
{
name = top;
position = "{408, 516}";
}
);
components = (
{
name = idotless;
}
);
layerId = "36D41E8E-F531-4154-A930-CD44EA9C85A7";
paths = (
{
closed = 1;
nodes = (
"503 0 LINE",
"577 318 LINE SMOOTH",
"610 460 OFFCURVE",
"534 533 OFFCURVE",
"418 533 CURVE SMOOTH",
"292 533 OFFCURVE",
"239 453 OFFCURVE",
"239 453 CURVE",
"202 291 LINE",
"224 388 OFFCURVE",
"305 437 OFFCURVE",
"380 437 CURVE SMOOTH",
"451 437 OFFCURVE",
"485 390 OFFCURVE",
"466 307 CURVE SMOOTH",
"395 0 LINE"
);
}
);
width = 633;
}
);
note = n;
rightKerningGroup = n;
unicode = 006E;
},
{
color = 5;
glyphname = eng;
lastChange = "2018-03-05 11:11:26 +0000";
layers = (
{
components = (
{
name = n;
}
);
layerId = "36D41E8E-F531-4154-A930-CD44EA9C85A7";
paths = (
{
closed = 1;
nodes = (
"426 -224 OFFCURVE",
"478 -108 OFFCURVE",
"496 -31 CURVE SMOOTH",
"555 223 LINE",
"447 223 LINE",
"386 -40 LINE SMOOTH",
"377 -81 OFFCURVE",
"352 -128 OFFCURVE",
"299 -128 CURVE SMOOTH",
"219 -128 OFFCURVE",
"186 -49 OFFCURVE",
"186 -49 CURVE",
"160 -161 LINE",
"160 -161 OFFCURVE",
"182 -224 OFFCURVE",
"292 -224 CURVE SMOOTH"
);
}
);
width = 633;
}
);
leftKerningGroup = n;
rightKerningGroup = n;
rightMetricsKey = n;
unicode = 014B;
},
{
color = 5;
glyphname = o;
lastChange = "2018-03-11 15:10:12 +0000";
layers = (
{
anchors = (
{
name = "#exit";
position = "{442, 0}";
},
{
name = center;
position = "{323, 258}";
},
{
name = top;
position = "{382, 516}";
}
);
layerId = "36D41E8E-F531-4154-A930-CD44EA9C85A7";
paths = (
{
closed = 1;
nodes = (
"417 -15 OFFCURVE",
"571 107 OFFCURVE",
"606 258 CURVE SMOOTH",
"641 409 OFFCURVE",
"543 532 OFFCURVE",
"386 532 CURVE SMOOTH",
"229 532 OFFCURVE",
"75 409 OFFCURVE",
"40 258 CURVE SMOOTH",
"5 107 OFFCURVE",
"103 -15 OFFCURVE",
"260 -15 CURVE SMOOTH"
);
},
{
closed = 1;
nodes = (
"180 82 OFFCURVE",
"121 161 OFFCURVE",
"144 258 CURVE SMOOTH",
"167 356 OFFCURVE",
"262 435 OFFCURVE",
"364 435 CURVE SMOOTH",
"466 435 OFFCURVE",
"525 356 OFFCURVE",
"502 258 CURVE SMOOTH",
"479 161 OFFCURVE",
"384 82 OFFCURVE",
"282 82 CURVE SMOOTH"
);
}
);
width = 646;
}
);
leftKerningGroup = "ronde-min";
note = o;
rightKerningGroup = "ronde-min";
unicode = 006F;
},
{
color = 5;
glyphname = p;
lastChange = "2018-03-05 12:55:38 +0000";
layers = (
{
layerId = "36D41E8E-F531-4154-A930-CD44EA9C85A7";
paths = (
{
closed = 1;
nodes = (
"79 -212 LINE",
"141 55 LINE",
"166 18 OFFCURVE",
"214 -15 OFFCURVE",
"299 -15 CURVE SMOOTH",
"457 -15 OFFCURVE",
"597 107 OFFCURVE",
"632 258 CURVE SMOOTH",
"667 409 OFFCURVE",
"583 532 OFFCURVE",
"425 532 CURVE SMOOTH",
"350 532 OFFCURVE",
"280 503 OFFCURVE",
"236 467 CURVE",
"248 517 LINE",
"140 517 LINE",
"-29 -212 LINE"
);
},
{
closed = 1;
nodes = (
"226 81 OFFCURVE",
"156 146 OFFCURVE",
"182 258 CURVE SMOOTH",
"208 371 OFFCURVE",
"308 436 OFFCURVE",
"405 436 CURVE SMOOTH",
"502 436 OFFCURVE",
"550 356 OFFCURVE",
"527 258 CURVE SMOOTH",
"504 160 OFFCURVE",
"420 81 OFFCURVE",
"323 81 CURVE SMOOTH"
);
}
);
width = 672;
}
);
note = p;
rightKerningGroup = "ronde-min";
unicode = 0070;
},
{
color = 5;
glyphname = thorn;
lastChange = "2018-03-05 11:09:25 +0000";
layers = (
{
anchors = (
{
name = bottom;
position = "{67, 0}";
},
{
name = "caron-t";
position = "{268, 401}";
},
{
name = center;
position = "{163, 368}";
},
{
name = top;
position = "{232, 679}";
}
);
layerId = "36D41E8E-F531-4154-A930-CD44EA9C85A7";
paths = (
{
closed = 1;
nodes = (
"80 -212 LINE",
"142 55 LINE",
"167 18 OFFCURVE",
"215 -15 OFFCURVE",
"300 -15 CURVE SMOOTH",
"458 -15 OFFCURVE",
"598 107 OFFCURVE",
"633 258 CURVE SMOOTH",
"668 409 OFFCURVE",
"584 532 OFFCURVE",
"426 532 CURVE SMOOTH",
"351 532 OFFCURVE",
"281 503 OFFCURVE",
"237 467 CURVE",
"290 697 LINE",
"178 679 LINE",
"-28 -212 LINE"
);
},
{
closed = 1;
nodes = (
"227 81 OFFCURVE",
"157 146 OFFCURVE",
"183 258 CURVE SMOOTH",
"209 371 OFFCURVE",
"309 436 OFFCURVE",
"406 436 CURVE SMOOTH",
"503 436 OFFCURVE",
"551 356 OFFCURVE",
"528 258 CURVE SMOOTH",
"505 160 OFFCURVE",
"421 81 OFFCURVE",
"324 81 CURVE SMOOTH"
);
}
);
width = 673;
}
);
leftKerningGroup = thorn;
leftMetricsKey = b;
rightKerningGroup = "ronde-min";
rightMetricsKey = p;
unicode = 00FE;
},
{
color = 5;
glyphname = q;
lastChange = "2018-03-05 11:09:36 +0000";
layers = (
{
layerId = "36D41E8E-F531-4154-A930-CD44EA9C85A7";
paths = (
{
closed = 1;
nodes = (
"483 -212 LINE",
"652 517 LINE",
"544 517 LINE",
"532 467 LINE",
"504 503 OFFCURVE",
"448 532 OFFCURVE",
"373 532 CURVE SMOOTH",
"215 532 OFFCURVE",
"75 409 OFFCURVE",
"40 258 CURVE SMOOTH",
"5 107 OFFCURVE",
"89 -15 OFFCURVE",
"247 -15 CURVE SMOOTH",
"332 -15 OFFCURVE",
"394 18 OFFCURVE",
"437 55 CURVE",
"375 -212 LINE"
);
},
{
closed = 1;
nodes = (
"170 81 OFFCURVE",
"122 160 OFFCURVE",
"145 258 CURVE SMOOTH",
"168 356 OFFCURVE",
"252 436 OFFCURVE",
"349 436 CURVE SMOOTH",
"446 436 OFFCURVE",
"516 371 OFFCURVE",
"490 258 CURVE SMOOTH",
"464 146 OFFCURVE",
"364 81 OFFCURVE",
"267 81 CURVE SMOOTH"
);
}
);
width = 669;
}
);
leftKerningGroup = "ronde-min";
note = q;
unicode = 0071;
},
{
color = 5;
glyphname = r;
lastChange = "2018-03-05 14:54:10 +0000";
layers = (
{
anchors = (
{
name = bottom;
position = "{67, 0}";
},
{
name = top;
position = "{284, 516}";
}
);
layerId = "36D41E8E-F531-4154-A930-CD44EA9C85A7";
paths = (
{
closed = 1;
nodes = (
"128 0 LINE",
"188 259 LINE SMOOTH",
"216 369 OFFCURVE",
"312 444 OFFCURVE",
"443 444 CURVE",
"463 533 LINE",
"353 533 OFFCURVE",
"263 481 OFFCURVE",
"225 418 CURVE",
"248 518 LINE",
"140 518 LINE",
"20 0 LINE"
);
}
);
width = 410;
}
);
leftKerningGroup = r;
note = r;
rightKerningGroup = r;
unicode = 0072;
},
{
color = 5;
glyphname = s;
lastChange = "2018-03-05 12:25:20 +0000";
layers = (
{
anchors = (
{
name = bottom;
position = "{132, 0}";
},
{
name = top;
position = "{298, 516}";
}
);
layerId = "36D41E8E-F531-4154-A930-CD44EA9C85A7";
paths = (
{
closed = 1;
nodes = (
"285 -15 OFFCURVE",
"352 63 OFFCURVE",
"370 142 CURVE SMOOTH",
"388 220 OFFCURVE",
"357 254 OFFCURVE",
"297 294 CURVE SMOOTH",
"220 346 OFFCURVE",
"195 357 OFFCURVE",
"202 390 CURVE SMOOTH",
"209 417 OFFCURVE",
"237 436 OFFCURVE",
"295 436 CURVE SMOOTH",
"347 436 OFFCURVE",
"388 414 OFFCURVE",
"406 392 CURVE",
"430 498 LINE",
"409 513 OFFCURVE",
"357 532 OFFCURVE",
"294 532 CURVE SMOOTH",
"200 532 OFFCURVE",
"120 476 OFFCURVE",
"100 388 CURVE SMOOTH",
"80 302 OFFCURVE",
"134 269 OFFCURVE",
"194 231 CURVE SMOOTH",
"247 197 OFFCURVE",
"276 174 OFFCURVE",
"268 136 CURVE SMOOTH",
"260 102 OFFCURVE",
"220 81 OFFCURVE",
"151 81 CURVE SMOOTH",
"67 81 OFFCURVE",
"13 140 OFFCURVE",
"13 140 CURVE",
"-12 34 LINE",
"-12 34 OFFCURVE",
"52 -15 OFFCURVE",
"140 -15 CURVE SMOOTH"
);
}
);
width = 437;
}
);
leftKerningGroup = s;
note = s;
rightKerningGroup = s;
unicode = 0073;
},
{
color = 5;
glyphname = germandbls;
lastChange = "2018-03-05 11:11:26 +0000";
layers = (
{
layerId = "36D41E8E-F531-4154-A930-CD44EA9C85A7";
paths = (
{
closed = 1;
nodes = (
"400 -13 OFFCURVE",
"520 57 OFFCURVE",
"551 190 CURVE SMOOTH",
"572 278 OFFCURVE",
"529 352 OFFCURVE",
"429 369 CURVE",
"503 383 OFFCURVE",
"564 439 OFFCURVE",
"581 515 CURVE SMOOTH",
"608 632 OFFCURVE",
"551 698 OFFCURVE",
"417 698 CURVE SMOOTH",
"276 698 OFFCURVE",
"170 603 OFFCURVE",
"137 462 CURVE SMOOTH",
"123 403 LINE",
"43 403 LINE",
"24 317 LINE",
"104 317 LINE",
"30 0 LINE",
"137 0 LINE",
"246 472 LINE SMOOTH",
"267 563 OFFCURVE",
"337 610 OFFCURVE",
"397 610 CURVE SMOOTH",
"462 610 OFFCURVE",
"494 580 OFFCURVE",
"479 514 CURVE SMOOTH",
"460 430 OFFCURVE",
"383 404 OFFCURVE",
"327 404 CURVE",
"306 313 LINE",
"323 313 LINE SMOOTH",
"394 313 OFFCURVE",
"459 268 OFFCURVE",
"440 187 CURVE SMOOTH",
"421 102 OFFCURVE",
"344 80 OFFCURVE",
"295 80 CURVE SMOOTH",
"280 80 OFFCURVE",
"265 82 OFFCURVE",
"253 84 CURVE",
"231 -10 LINE",
"244 -12 OFFCURVE",
"257 -13 OFFCURVE",
"273 -13 CURVE SMOOTH"
);
}
);
width = 607;
}
);
rightKerningGroup = "ronde-min";
rightMetricsKey = o;
unicode = 00DF;
},
{
color = 5;
glyphname = t;
lastChange = "2018-03-05 11:09:36 +0000";
layers = (
{
anchors = (
{
name = bottom;
position = "{190, 0}";
},
{
name = "caron-t";
position = "{384, 401}";
}
);
layerId = "36D41E8E-F531-4154-A930-CD44EA9C85A7";
paths = (
{
closed = 1;
nodes = (
"252 0 LINE",
"355 443 LINE",
"532 443 LINE",
"552 531 LINE",
"375 531 LINE",
"413 696 LINE",
"48 443 LINE",
"247 443 LINE",
"144 0 LINE"
);
}
);
width = 502;
}
);
leftKerningGroup = t;
note = t;
rightKerningGroup = t;
unicode = 0074;
},
{
color = 5;
glyphname = u;
lastChange = "2018-03-05 11:09:36 +0000";
layers = (
{
anchors = (
{
name = ogonek;
position = "{311, -6}";
},
{
name = top;
position = "{364, 516}";
}
);
layerId = "36D41E8E-F531-4154-A930-CD44EA9C85A7";
paths = (
{
closed = 1;
nodes = (
"307 -16 OFFCURVE",
"478 -11 OFFCURVE",
"529 209 CURVE SMOOTH",
"600 517 LINE",
"492 517 LINE",
"420 206 LINE",
"420 206 OFFCURVE",
"397 79 OFFCURVE",
"264 79 CURVE SMOOTH",
"131 79 OFFCURVE",
"166 206 OFFCURVE",
"166 206 CURVE",
"238 517 LINE",
"130 517 LINE",
"59 209 LINE SMOOTH",
"8 -11 OFFCURVE",
"177 -16 OFFCURVE",
"242 -16 CURVE SMOOTH"
);
}
);
width = 610;
}
);
leftKerningGroup = u;
note = u;
rightKerningGroup = u;
unicode = 0075;
},
{
color = 5;
glyphname = v;
lastChange = "2018-03-05 13:15:54 +0000";
layers = (
{
layerId = "36D41E8E-F531-4154-A930-CD44EA9C85A7";
paths = (
{
closed = 1;
nodes = (
"605 517 LINE",
"492 517 LINE",
"258 179 LINE",
"178 517 LINE",
"65 517 LINE",
"206 -41 LINE"
);
}
);
width = 550;
}
);
leftKerningGroup = "diag-min";
note = v;
rightKerningGroup = "diag-min";
unicode = 0076;
},
{
color = 5;
glyphname = w;
lastChange = "2018-03-05 11:09:36 +0000";
layers = (
{
anchors = (
{
name = top;
position = "{433, 516}";
}
);
layerId = "36D41E8E-F531-4154-A930-CD44EA9C85A7";
paths = (
{
closed = 1;
nodes = (
"382 304 LINE",
"448 -41 LINE",
"777 517 LINE",
"664 517 LINE",
"500 218 LINE",
"437 538 LINE",
"237 219 LINE",
"203 517 LINE",
"90 517 LINE",
"161 -41 LINE"
);
}
);
width = 747;
}
);
leftKerningGroup = "diag-min";
note = w;
rightKerningGroup = "diag-min";
unicode = 0077;
},
{
color = 5;
glyphname = x;
lastChange = "2018-03-11 16:15:46 +0000";
layers = (
{
layerId = "36D41E8E-F531-4154-A930-CD44EA9C85A7";
paths = (
{
closed = 1;
nodes = (
"110 0 LINE",
"352 236 LINE",
"274 245 LINE",
"408 0 LINE",
"538 0 LINE",
"355 312 LINE",
"345 236 LINE",
"638 517 LINE",
"500 517 LINE",
"280 312 LINE",
"361 303 LINE",
"235 517 LINE",
"105 517 LINE",
"277 237 LINE",
"287 312 LINE",
"-35 0 LINE"
);
}
);
width = 623;
}
);
leftKerningGroup = x;
note = x;
rightKerningGroup = x;
unicode = 0078;
},
{
color = 5;
glyphname = y;
lastChange = "2018-03-05 11:24:29 +0000";
layers = (
{
anchors = (
{
name = top;
position = "{352, 516}";
}
);
layerId = "36D41E8E-F531-4154-A930-CD44EA9C85A7";
paths = (
{
closed = 1;
nodes = (
"109 -208 LINE",
"626 517 LINE",
"501 517 LINE",
"233 134 LINE",
"284 127 LINE",
"193 517 LINE",
"80 517 LINE",
"202 13 LINE",
"208 99 LINE",
"-18 -208 LINE"
);
}
);
width = 586;
}
);
leftKerningGroup = "diag-min";
note = y;
rightKerningGroup = "diag-min";
unicode = 0079;
},
{
color = 5;
glyphname = z;
lastChange = "2018-03-05 14:09:11 +0000";
layers = (
{
anchors = (
{
name = top;
position = "{347, 516}";
}
);
layerId = "36D41E8E-F531-4154-A930-CD44EA9C85A7";
paths = (
{
closed = 1;
nodes = (
"466 0 LINE",
"488 94 LINE",
"175 94 LINE",
"557 434 LINE",
"576 518 LINE",
"130 518 LINE",
"108 424 LINE",
"400 424 LINE",
"7 74 LINE",
"-10 0 LINE"
);
}
);
width = 576;
}
);
leftKerningGroup = z;
note = z;
rightKerningGroup = z;
unicode = 007A;
},
{
color = 5;
glyphname = j.calt;
lastChange = "2018-03-05 11:13:13 +0000";
layers = (
{
layerId = "36D41E8E-F531-4154-A930-CD44EA9C85A7";
paths = (
{
closed = 1;
nodes = (
"-32 -224 OFFCURVE",
"15 -209 OFFCURVE",
"50 -180 CURVE SMOOTH",
"85 -151 OFFCURVE",
"116 -77 OFFCURVE",
"142 42 CURVE",
"252 518 LINE",
"144 518 LINE",
"15 -40 LINE SMOOTH",
"4 -89 OFFCURVE",
"-24 -128 OFFCURVE",
"-72 -128 CURVE",
"-83 -176 LINE SMOOTH",
"-90 -208 OFFCURVE",
"-93 -224 OFFCURVE",
"-93 -224 CURVE"
);
},
{
closed = 1;
nodes = (
"245 591 OFFCURVE",
"278 618 OFFCURVE",
"286 652 CURVE SMOOTH",
"294 687 OFFCURVE",
"273 714 OFFCURVE",
"238 714 CURVE SMOOTH",
"204 714 OFFCURVE",
"171 687 OFFCURVE",
"163 652 CURVE SMOOTH",
"155 618 OFFCURVE",
"176 591 OFFCURVE",
"210 591 CURVE SMOOTH"
);
}
);
width = 272;
}
);
rightKerningGroup = j;
},
{
glyphname = a.ss01;
lastChange = "2018-03-11 16:26:15 +0000";
layers = (
{
anchors = (
{
name = "#exit";
position = "{362, 0}";
},
{
name = bottom;
position = "{227, 0}";
},
{
name = center;
position = "{296, 258}";
},
{
name = ogonek;
position = "{470, 0}";
},
{
name = top;
position = "{361, 516}";
}
);
layerId = "36D41E8E-F531-4154-A930-CD44EA9C85A7";
paths = (
{
closed = 1;
nodes = (
"275 -15 OFFCURVE",
"333 14 OFFCURVE",
"373 46 CURVE",
"362 0 LINE",
"470 0 LINE",
"544 318 LINE SMOOTH",
"574 447 OFFCURVE",
"524 533 OFFCURVE",
"359 533 CURVE SMOOTH",
"301 533 OFFCURVE",
"202 514 OFFCURVE",
"146 471 CURVE",
"120 360 LINE",
"120 360 OFFCURVE",
"219 438 OFFCURVE",
"337 437 CURVE SMOOTH",
"421 437 OFFCURVE",
"453 392 OFFCURVE",
"435 314 CURVE SMOOTH",
"431 296 LINE",
"394 321 OFFCURVE",
"347 335 OFFCURVE",
"287 335 CURVE SMOOTH",
"156 335 OFFCURVE",
"47 265 OFFCURVE",
"22 159 CURVE SMOOTH",
"-2 55 OFFCURVE",
"72 -15 OFFCURVE",
"196 -15 CURVE SMOOTH"
);
},
{
closed = 1;
nodes = (
"173 73 OFFCURVE",
"118 105 OFFCURVE",
"131 163 CURVE SMOOTH",
"143 216 OFFCURVE",
"195 257 OFFCURVE",
"289 257 CURVE SMOOTH",
"350 257 OFFCURVE",
"391 233 OFFCURVE",
"411 213 CURVE",
"404 179 LINE SMOOTH",
"386 101 OFFCURVE",
"303 73 OFFCURVE",
"236 73 CURVE SMOOTH"
);
}
);
width = 600;
}
);
leftKerningGroup = "ronde-min";
rightKerningGroup = n;
},
{
color = 5;
glyphname = g.ss01;
lastChange = "2018-03-05 12:48:38 +0000";
layers = (
{
anchors = (
{
name = top;
position = "{371, 516}";
}
);
layerId = "36D41E8E-F531-4154-A930-CD44EA9C85A7";
paths = (
{
closed = 1;
nodes = (
"367 -225 OFFCURVE",
"459 -144 OFFCURVE",
"481 -49 CURVE SMOOTH",
"501 37 OFFCURVE",
"440 83 OFFCURVE",
"391 117 CURVE SMOOTH",
"291 188 LINE",
"404 187 OFFCURVE",
"496 259 OFFCURVE",
"518 353 CURVE SMOOTH",
"527 392 OFFCURVE",
"524 427 OFFCURVE",
"509 455 CURVE",
"614 455 LINE",
"632 532 LINE",
"345 532 LINE SMOOTH",
"209 532 OFFCURVE",
"112 457 OFFCURVE",
"88 353 CURVE SMOOTH",
"74 293 OFFCURVE",
"91 252 OFFCURVE",
"131 215 CURVE SMOOTH",
"165 184 OFFCURVE",
"202 153 OFFCURVE",
"237 122 CURVE",
"89 127 OFFCURVE",
"-10 41 OFFCURVE",
"-31 -49 CURVE SMOOTH",
"-53 -144 OFFCURVE",
"1 -225 OFFCURVE",
"184 -225 CURVE SMOOTH"
);
},
{
closed = 1;
nodes = (
"104 -139 OFFCURVE",
"62 -100 OFFCURVE",
"75 -45 CURVE SMOOTH",
"88 10 OFFCURVE",
"154 55 OFFCURVE",
"249 55 CURVE SMOOTH",
"337 55 OFFCURVE",
"390 10 OFFCURVE",
"377 -45 CURVE SMOOTH",
"364 -100 OFFCURVE",
"304 -139 OFFCURVE",
"204 -139 CURVE SMOOTH"
);
},
{
closed = 1;
nodes = (
"208 249 OFFCURVE",
"175 292 OFFCURVE",
"187 347 CURVE SMOOTH",
"200 402 OFFCURVE",
"255 453 OFFCURVE",
"327 453 CURVE SMOOTH",
"400 453 OFFCURVE",
"427 402 OFFCURVE",
"414 347 CURVE SMOOTH",
"402 292 OFFCURVE",
"353 249 OFFCURVE",
"280 249 CURVE SMOOTH"
);
}
);
width = 609;
}
);
leftKerningGroup = "ronde-min";
rightKerningGroup = "ronde-min";
},
{
color = 5;
glyphname = i.ss01;
lastChange = "2018-03-05 11:13:52 +0000";
layers = (
{
layerId = "36D41E8E-F531-4154-A930-CD44EA9C85A7";
paths = (
{
closed = 1;
nodes = (
"338 0 LINE",
"359 88 LINE",
"239 88 LINE",
"338 518 LINE",
"230 518 LINE",
"131 88 LINE",
"11 88 LINE",
"-10 0 LINE"
);
},
{
closed = 1;
nodes = (
"331 591 OFFCURVE",
"364 618 OFFCURVE",
"372 652 CURVE SMOOTH",
"380 687 OFFCURVE",
"359 714 OFFCURVE",
"324 714 CURVE SMOOTH",
"290 714 OFFCURVE",
"257 687 OFFCURVE",
"249 652 CURVE SMOOTH",
"241 618 OFFCURVE",
"262 591 OFFCURVE",
"296 591 CURVE SMOOTH"
);
}
);
width = 448;
}
);
leftKerningGroup = i.ss01;
note = i;
rightKerningGroup = I.ss01;
},
{
color = 5;
glyphname = r.ss01;
lastChange = "2018-03-05 14:43:28 +0000";
layers = (
{
anchors = (
{
name = bottom;
position = "{202, -9}";
},
{
name = top;
position = "{284, 516}";
}
);
layerId = "36D41E8E-F531-4154-A930-CD44EA9C85A7";
paths = (
{
closed = 1;
nodes = (
"388 0 LINE",
"409 88 LINE",
"239 88 LINE",
"277 254 LINE SMOOTH",
"303 367 OFFCURVE",
"401 444 OFFCURVE",
"533 444 CURVE",
"553 533 LINE",
"443 533 OFFCURVE",
"352 481 OFFCURVE",
"315 417 CURVE",
"338 518 LINE",
"230 518 LINE",
"131 88 LINE",
"14 88 LINE",
"-7 0 LINE"
);
}
);
width = 523;
}
);
leftKerningGroup = i.ss01;
note = r;
rightKerningGroup = r.ss01;
},
{
glyphname = f_f;
lastChange = "2018-03-05 12:57:37 +0000";
layers = (
{
layerId = "36D41E8E-F531-4154-A930-CD44EA9C85A7";
paths = (
{
closed = 1;
nodes = (
"150 -250 LINE",
"294 370 LINE",
"528 370 LINE",
"384 -250 LINE",
"492 -250 LINE",
"636 370 LINE",
"869 370 LINE",
"889 458 LINE",
"656 458 LINE",
"684 579 OFFCURVE",
"741 621 OFFCURVE",
"821 621 CURVE SMOOTH",
"901 621 OFFCURVE",
"939 567 OFFCURVE",
"939 567 CURVE",
"961 663 LINE",
"961 663 OFFCURVE",
"938 717 OFFCURVE",
"828 717 CURVE SMOOTH",
"745 717 OFFCURVE",
"669 678 OFFCURVE",
"616 608 CURVE",
"605 633 OFFCURVE",
"574 687 OFFCURVE",
"478 687 CURVE SMOOTH",
"349 687 OFFCURVE",
"238 596 OFFCURVE",
"206 458 CURVE",
"96 458 LINE",
"76 370 LINE",
"186 370 LINE",
"42 -250 LINE"
);
},
{
closed = 1;
nodes = (
"334 543 OFFCURVE",
"379 591 OFFCURVE",
"459 591 CURVE SMOOTH",
"530 591 OFFCURVE",
"555 523 OFFCURVE",
"560 503 CURVE",
"556 489 OFFCURVE",
"552 474 OFFCURVE",
"548 458 CURVE",
"314 458 LINE"
);
}
);
width = 901;
}
);
leftKerningGroup = f;
note = ff;
rightKerningGroup = f;
},
{
glyphname = f_f_i;
lastChange = "2018-03-11 16:26:15 +0000";
layers = (
{
layerId = "36D41E8E-F531-4154-A930-CD44EA9C85A7";
paths = (
{
closed = 1;
nodes = (
"150 -250 LINE",
"294 370 LINE",
"528 370 LINE",
"384 -250 LINE",
"492 -250 LINE",
"636 370 LINE",
"875 370 LINE",
"807 78 LINE",
"687 78 LINE",
"669 0 LINE",
"1017 0 LINE",
"1035 78 LINE",
"915 78 LINE",
"1003 458 LINE",
"656 458 LINE",
"681 566 OFFCURVE",
"766 621 OFFCURVE",
"862 621 CURVE SMOOTH",
"983 621 OFFCURVE",
"1012 527 OFFCURVE",
"1012 527 CURVE",
"1037 635 LINE",
"1037 635 OFFCURVE",
"1022 717 OFFCURVE",
"877 717 CURVE SMOOTH",
"776 717 OFFCURVE",
"673 671 OFFCURVE",
"608 586 CURVE",
"626 597 LINE",
"615 626 OFFCURVE",
"574 687 OFFCURVE",
"478 687 CURVE SMOOTH",
"349 687 OFFCURVE",
"238 596 OFFCURVE",
"206 458 CURVE",
"96 458 LINE",
"76 370 LINE",
"186 370 LINE",
"42 -250 LINE"
);
},
{
closed = 1;
nodes = (
"334 543 OFFCURVE",
"379 591 OFFCURVE",
"459 591 CURVE SMOOTH",
"530 591 OFFCURVE",
"555 523 OFFCURVE",
"560 503 CURVE",
"548 458 LINE",
"314 458 LINE"
);
}
);
width = 1127;
}
);
leftKerningGroup = f;
note = ffi;
rightKerningGroup = I.ss01;
},
{
glyphname = f_f_l;
lastChange = "2018-03-05 12:58:00 +0000";
layers = (
{
layerId = "36D41E8E-F531-4154-A930-CD44EA9C85A7";
paths = (
{
closed = 1;
nodes = (
"150 -250 LINE",
"294 370 LINE",
"528 370 LINE",
"384 -250 LINE",
"492 -250 LINE",
"636 370 LINE",
"799 370 LINE",
"819 458 LINE",
"656 458 LINE",
"684 579 OFFCURVE",
"746 621 OFFCURVE",
"826 621 CURVE SMOOTH",
"917 621 OFFCURVE",
"925 563 OFFCURVE",
"925 563 CURVE",
"795 0 LINE",
"903 0 LINE",
"1039 588 LINE",
"1037 589 LINE",
"1040 590 LINE",
"1040 590 OFFCURVE",
"1021 717 OFFCURVE",
"843 717 CURVE SMOOTH",
"759 717 OFFCURVE",
"676 677 OFFCURVE",
"617 604 CURVE",
"609 627 OFFCURVE",
"579 687 OFFCURVE",
"478 687 CURVE SMOOTH",
"349 687 OFFCURVE",
"238 596 OFFCURVE",
"206 458 CURVE",
"96 458 LINE",
"76 370 LINE",
"186 370 LINE",
"42 -250 LINE"
);
},
{
closed = 1;
nodes = (
"334 543 OFFCURVE",
"379 591 OFFCURVE",
"459 591 CURVE SMOOTH",
"530 591 OFFCURVE",
"555 522 OFFCURVE",
"560 502 CURVE",
"555 488 OFFCURVE",
"552 473 OFFCURVE",
"548 458 CURVE",
"314 458 LINE"
);
}
);
width = 1043;
}
);
leftKerningGroup = f;
note = ffl;
rightKerningGroup = l;
},
{
color = 3;
glyphname = fi;
lastChange = "2018-03-05 12:58:08 +0000";
layers = (
{
layerId = "36D41E8E-F531-4154-A930-CD44EA9C85A7";
paths = (
{
closed = 1;
nodes = (
"150 -250 LINE",
"294 370 LINE",
"533 370 LINE",
"465 78 LINE",
"345 78 LINE",
"327 0 LINE",
"675 0 LINE",
"693 78 LINE",
"573 78 LINE",
"661 458 LINE",
"314 458 LINE",
"339 566 OFFCURVE",
"424 621 OFFCURVE",
"520 621 CURVE SMOOTH",
"641 621 OFFCURVE",
"670 527 OFFCURVE",
"670 527 CURVE",
"695 635 LINE",
"695 635 OFFCURVE",
"680 717 OFFCURVE",
"535 717 CURVE SMOOTH",
"391 717 OFFCURVE",
"244 623 OFFCURVE",
"206 458 CURVE",
"96 458 LINE",
"76 370 LINE",
"186 370 LINE",
"42 -250 LINE"
);
}
);
width = 785;
}
);
leftKerningGroup = f;
note = fi;
rightKerningGroup = I.ss01;
unicode = FB01;
},
{
color = 3;
glyphname = fl;
lastChange = "2018-03-05 12:58:14 +0000";
layers = (
{
layerId = "36D41E8E-F531-4154-A930-CD44EA9C85A7";
paths = (
{
closed = 1;
nodes = (
"150 -250 LINE",
"294 370 LINE",
"457 370 LINE",
"477 458 LINE",
"314 458 LINE",
"342 579 OFFCURVE",
"404 621 OFFCURVE",
"484 621 CURVE SMOOTH",
"575 621 OFFCURVE",
"583 563 OFFCURVE",
"583 563 CURVE",
"453 0 LINE",
"561 0 LINE",
"697 588 LINE",
"695 589 LINE",
"698 590 LINE",
"698 590 OFFCURVE",
"679 717 OFFCURVE",
"501 717 CURVE SMOOTH",
"372 717 OFFCURVE",
"244 623 OFFCURVE",
"206 458 CURVE",
"96 458 LINE",
"76 370 LINE",
"186 370 LINE",
"42 -250 LINE"
);
}
);
width = 701;
}
);
leftKerningGroup = f;
note = fl;
rightKerningGroup = l;
unicode = FB02;
},
{
glyphname = S_R.alt;
lastChange = "2018-03-05 11:14:13 +0000";
layers = (
{
layerId = "36D41E8E-F531-4154-A930-CD44EA9C85A7";
paths = (
{
closed = 1;
nodes = (
"496 0 LINE",
"465 62 LINE",
"638 270 LINE",
"783 0 LINE",
"932 0 LINE",
"753 308 LINE",
"849 329 OFFCURVE",
"934 405 OFFCURVE",
"956 502 CURVE SMOOTH",
"983 616 OFFCURVE",
"919 714 OFFCURVE",
"799 714 CURVE",
"774 606 LINE",
"826 606 OFFCURVE",
"857 552 OFFCURVE",
"844 498 CURVE SMOOTH",
"832 444 OFFCURVE",
"776 390 OFFCURVE",
"724 390 CURVE SMOOTH",
"700 390 OFFCURVE",
"680 400 OFFCURVE",
"666 416 CURVE",
"658 431 LINE",
"416 156 LINE",
"239 508 LINE",
"238 508 LINE",
"250 560 OFFCURVE",
"303 602 OFFCURVE",
"357 602 CURVE SMOOTH",
"411 602 OFFCURVE",
"446 560 OFFCURVE",
"434 508 CURVE",
"542 508 LINE",
"568 622 OFFCURVE",
"492 714 OFFCURVE",
"378 714 CURVE SMOOTH",
"251 714 OFFCURVE",
"129 607 OFFCURVE",
"103 493 CURVE",
"327 53 LINE",
"280 0 LINE"
);
}
);
width = 1007;
}
);
leftKerningGroup = S.ss01;
note = S_R.alt;
rightKerningGroup = K;
},
{
glyphname = ordfeminine;
lastChange = "2018-03-01 16:25:51 +0000";
layers = (
{
anchors = (
{
name = ogonek;
position = "{332, 255}";
},
{
name = top;
position = "{192, 519}";
}
);
layerId = "36D41E8E-F531-4154-A930-CD44EA9C85A7";
paths = (
{
closed = 1;
nodes = (
"222 246 OFFCURVE",
"252 260 OFFCURVE",
"261 281 CURVE",
"260 254 LINE",
"336 254 LINE",
"337 519 LINE",
"261 519 LINE",
"261 494 LINE",
"252 513 OFFCURVE",
"222 527 OFFCURVE",
"188 527 CURVE SMOOTH",
"107 527 OFFCURVE",
"50 464 OFFCURVE",
"50 386 CURVE SMOOTH",
"50 309 OFFCURVE",
"107 246 OFFCURVE",
"188 246 CURVE SMOOTH"
);
},
{
closed = 1;
nodes = (
"155 318 OFFCURVE",
"127 349 OFFCURVE",
"127 387 CURVE SMOOTH",
"127 425 OFFCURVE",
"155 455 OFFCURVE",
"192 455 CURVE SMOOTH",
"229 455 OFFCURVE",
"259 430 OFFCURVE",
"259 387 CURVE SMOOTH",
"259 343 OFFCURVE",
"229 318 OFFCURVE",
"192 318 CURVE SMOOTH"
);
}
);
width = 387;
}
);
unicode = 00AA;
},
{
glyphname = ordmasculine;
lastChange = "2018-03-01 16:25:54 +0000";
layers = (
{
anchors = (
{
name = "#exit";
position = "{287, 256}";
},
{
name = center;
position = "{195, 388}";
},
{
name = top;
position = "{195, 521}";
}
);
layerId = "36D41E8E-F531-4154-A930-CD44EA9C85A7";
paths = (
{
closed = 1;
nodes = (
"275 248 OFFCURVE",
"340 311 OFFCURVE",
"340 388 CURVE SMOOTH",
"340 466 OFFCURVE",
"275 529 OFFCURVE",
"195 529 CURVE SMOOTH",
"114 529 OFFCURVE",
"50 466 OFFCURVE",
"50 388 CURVE SMOOTH",
"50 311 OFFCURVE",
"114 248 OFFCURVE",
"195 248 CURVE SMOOTH"
);
},
{
closed = 1;
nodes = (
"155 321 OFFCURVE",
"126 351 OFFCURVE",
"126 388 CURVE SMOOTH",
"126 426 OFFCURVE",
"155 457 OFFCURVE",
"195 457 CURVE SMOOTH",
"234 457 OFFCURVE",
"264 426 OFFCURVE",
"264 388 CURVE SMOOTH",
"264 351 OFFCURVE",
"234 321 OFFCURVE",
"195 321 CURVE SMOOTH"
);
}
);
width = 390;
}
);
unicode = 00BA;
},
{
glyphname = Alpha;
lastChange = "2018-03-11 15:36:11 +0000";
layers = (
{
layerId = "36D41E8E-F531-4154-A930-CD44EA9C85A7";
paths = (
{
closed = 1;
nodes = (
"69 0 LINE",
"174 161 LINE",
"506 161 LINE",
"535 0 LINE",
"662 0 LINE",
"518 679 LINE",
"404 679 LINE",
"-54 0 LINE"
);
},
{
closed = 1;
nodes = (
"434 563 LINE",
"490 263 LINE",
"238 263 LINE"
);
}
);
width = 728;
}
);
leftKerningGroup = A;
rightKerningGroup = A;
unicode = 0391;
},
{
glyphname = Beta;
lastChange = "2018-03-05 12:05:51 +0000";
layers = (
{
layerId = "36D41E8E-F531-4154-A930-CD44EA9C85A7";
paths = (
{
closed = 1;
nodes = (
"326 0 LINE SMOOTH",
"460 0 OFFCURVE",
"580 58 OFFCURVE",
"614 206 CURVE SMOOTH",
"634 293 OFFCURVE",
"593 359 OFFCURVE",
"504 369 CURVE",
"568 380 OFFCURVE",
"627 425 OFFCURVE",
"646 504 CURVE SMOOTH",
"674 628 OFFCURVE",
"608 679 OFFCURVE",
"465 679 CURVE SMOOTH",
"187 679 LINE",
"30 0 LINE"
);
},
{
closed = 1;
nodes = (
"209 311 LINE",
"390 311 LINE SMOOTH",
"446 311 OFFCURVE",
"520 299 OFFCURVE",
"499 208 CURVE SMOOTH",
"478 117 OFFCURVE",
"398 102 OFFCURVE",
"342 102 CURVE SMOOTH",
"161 102 LINE"
);
},
{
closed = 1;
nodes = (
"271 577 LINE",
"428 577 LINE SMOOTH",
"483 577 OFFCURVE",
"556 577 OFFCURVE",
"537 496 CURVE SMOOTH",
"517 412 OFFCURVE",
"439 408 OFFCURVE",
"383 408 CURVE SMOOTH",
"232 408 LINE"
);
}
);
width = 676;
}
);
rightKerningGroup = B;
unicode = 0392;
},
{
glyphname = Gamma;
lastChange = "2018-03-05 12:05:51 +0000";
layers = (
{
layerId = "36D41E8E-F531-4154-A930-CD44EA9C85A7";
paths = (
{
closed = 1;
nodes = (
"138 0 LINE",
"272 577 LINE",
"668 577 LINE",
"691 679 LINE",
"187 679 LINE",
"30 0 LINE"
);
}
);
width = 654;
}
);
rightKerningGroup = T;
unicode = 0393;
},
{
glyphname = Epsilon;
lastChange = "2018-03-05 12:05:51 +0000";
layers = (
{
layerId = "36D41E8E-F531-4154-A930-CD44EA9C85A7";
paths = (
{
closed = 1;
nodes = (
"532 0 LINE",
"556 102 LINE",
"162 102 LINE",
"210 311 LINE",
"519 311 LINE",
"543 413 LINE",
"234 413 LINE",
"272 577 LINE",
"660 577 LINE",
"683 679 LINE",
"187 679 LINE",
"30 0 LINE"
);
}
);
width = 647;
}
);
rightKerningGroup = E;
unicode = 0395;
},
{
glyphname = Zeta;
lastChange = "2018-03-05 12:05:51 +0000";
layers = (
{
layerId = "36D41E8E-F531-4154-A930-CD44EA9C85A7";
paths = (
{
closed = 1;
nodes = (
"524 0 LINE",
"548 102 LINE",
"135 102 LINE",
"645 577 LINE",
"668 679 LINE",
"146 679 LINE",
"123 577 LINE",
"506 577 LINE",
"-6 102 LINE",
"-30 0 LINE"
);
}
);
width = 614;
}
);
leftKerningGroup = Z;
rightKerningGroup = Z;
unicode = 0396;
},
{
glyphname = Eta;
lastChange = "2018-03-05 12:05:51 +0000";
layers = (
{
layerId = "36D41E8E-F531-4154-A930-CD44EA9C85A7";
paths = (
{
closed = 1;
nodes = (
"139 0 LINE",
"211 311 LINE",
"565 311 LINE",
"493 0 LINE",
"602 0 LINE",
"759 679 LINE",
"650 679 LINE",
"589 413 LINE",
"235 413 LINE",
"296 679 LINE",
"187 679 LINE",
"30 0 LINE"
);
}
);
width = 752;
}
);
unicode = 0397;
},
{
glyphname = Theta;
lastChange = "2018-03-05 12:05:51 +0000";
layers = (
{
layerId = "36D41E8E-F531-4154-A930-CD44EA9C85A7";
paths = (
{
closed = 1;
nodes = (
"546 -15 OFFCURVE",
"727 144 OFFCURVE",
"772 340 CURVE SMOOTH",
"817 536 OFFCURVE",
"710 695 OFFCURVE",
"497 695 CURVE SMOOTH",
"284 695 OFFCURVE",
"104 536 OFFCURVE",
"59 340 CURVE SMOOTH",
"14 144 OFFCURVE",
"120 -15 OFFCURVE",
"333 -15 CURVE SMOOTH"
);
},
{
closed = 1;
nodes = (
"217 88 OFFCURVE",
"149 183 OFFCURVE",
"165 309 CURVE",
"650 309 LINE",
"609 183 OFFCURVE",
"497 88 OFFCURVE",
"357 88 CURVE SMOOTH"
);
},
{
closed = 1;
nodes = (
"246 517 OFFCURVE",
"348 593 OFFCURVE",
"473 593 CURVE SMOOTH",
"598 593 OFFCURVE",
"665 517 OFFCURVE",
"666 411 CURVE",
"195 411 LINE"
);
}
);
width = 793;
}
);
leftKerningGroup = "ronde-cap";
rightKerningGroup = "ronde-cap";
unicode = 0398;
},
{
glyphname = Iota;
lastChange = "2018-03-05 12:05:51 +0000";
layers = (
{
layerId = "36D41E8E-F531-4154-A930-CD44EA9C85A7";
paths = (
{
closed = 1;
nodes = (
"139 0 LINE",
"296 679 LINE",
"187 679 LINE",
"30 0 LINE"
);
}
);
width = 289;
}
);
unicode = 0399;
},
{
color = 5;
glyphname = Kappa;
lastChange = "2018-03-05 12:07:58 +0000";
layers = (
{
anchors = (
{
name = bottom;
position = "{278, 0}";
},
{
name = top;
position = "{435, 679}";
}
);
layerId = "36D41E8E-F531-4154-A930-CD44EA9C85A7";
paths = (
{
closed = 1;
nodes = (
"138 0 LINE",
"205 290 LINE",
"156 203 LINE",
"343 349 LINE",
"298 372 LINE",
"487 0 LINE",
"608 0 LINE",
"380 447 LINE",
"363 365 LINE",
"765 679 LINE",
"613 679 LINE",
"176 334 LINE",
"213 323 LINE",
"295 679 LINE",
"187 679 LINE",
"30 0 LINE"
);
}
);
width = 686;
}
);
rightKerningGroup = K;
unicode = 039A;
},
{
glyphname = Lambda;
lastChange = "2018-03-05 12:05:51 +0000";
layers = (
{
layerId = "36D41E8E-F531-4154-A930-CD44EA9C85A7";
paths = (
{
closed = 1;
nodes = (
"84 0 LINE",
"435 563 LINE",
"519 0 LINE",
"646 0 LINE",
"519 679 LINE",
"405 679 LINE",
"-39 0 LINE"
);
}
);
width = 727;
}
);
leftKerningGroup = A;
leftMetricsKey = A;
rightKerningGroup = A;
rightMetricsKey = A;
unicode = 039B;
},
{
glyphname = Mu;
lastChange = "2018-03-05 12:05:51 +0000";
layers = (
{
layerId = "36D41E8E-F531-4154-A930-CD44EA9C85A7";
paths = (
{
closed = 1;
nodes = (
"138 0 LINE",
"261 530 LINE",
"365 263 LINE",
"466 263 LINE",
"696 530 LINE",
"573 0 LINE",
"681 0 LINE",
"838 679 LINE",
"702 679 LINE",
"441 376 LINE",
"324 679 LINE",
"187 679 LINE",
"30 0 LINE"
);
}
);
width = 831;
}
);
unicode = 039C;
},
{
glyphname = Nu;
lastChange = "2018-03-05 12:05:51 +0000";
layers = (
{
layerId = "36D41E8E-F531-4154-A930-CD44EA9C85A7";
paths = (
{
closed = 1;
nodes = (
"138 0 LINE",
"258 519 LINE",
"501 0 LINE",
"621 0 LINE",
"778 679 LINE",
"670 679 LINE",
"552 169 LINE",
"307 679 LINE",
"187 679 LINE",
"30 0 LINE"
);
}
);
width = 771;
}
);
unicode = 039D;
},
{
glyphname = Xi;
lastChange = "2018-03-05 12:05:51 +0000";
layers = (
{
layerId = "36D41E8E-F531-4154-A930-CD44EA9C85A7";
paths = (
{
closed = 1;
nodes = (
"584 0 LINE",
"608 102 LINE",
"24 102 LINE",
"0 0 LINE"
);
},
{
closed = 1;
nodes = (
"587 301 LINE",
"610 403 LINE",
"161 403 LINE",
"138 301 LINE"
);
},
{
closed = 1;
nodes = (
"703 577 LINE",
"726 679 LINE",
"172 679 LINE",
"149 577 LINE"
);
}
);
width = 704;
}
);
rightKerningGroup = E;
unicode = 039E;
},
{
glyphname = Omicron;
lastChange = "2018-03-05 12:05:51 +0000";
layers = (
{
layerId = "36D41E8E-F531-4154-A930-CD44EA9C85A7";
paths = (
{
closed = 1;
nodes = (
"547 -15 OFFCURVE",
"727 144 OFFCURVE",
"772 340 CURVE SMOOTH",
"817 536 OFFCURVE",
"711 695 OFFCURVE",
"498 695 CURVE SMOOTH",
"285 695 OFFCURVE",
"104 536 OFFCURVE",
"59 340 CURVE SMOOTH",
"14 144 OFFCURVE",
"121 -15 OFFCURVE",
"334 -15 CURVE SMOOTH"
);
},
{
closed = 1;
nodes = (
"206 88 OFFCURVE",
"139 199 OFFCURVE",
"172 340 CURVE SMOOTH",
"204 481 OFFCURVE",
"322 593 OFFCURVE",
"474 593 CURVE SMOOTH",
"625 593 OFFCURVE",
"692 481 OFFCURVE",
"660 340 CURVE SMOOTH",
"627 199 OFFCURVE",
"509 88 OFFCURVE",
"358 88 CURVE SMOOTH"
);
}
);
width = 793;
}
);
leftKerningGroup = "ronde-cap";
rightKerningGroup = "ronde-cap";
unicode = 039F;
},
{
glyphname = Pi;
lastChange = "2018-03-05 12:05:51 +0000";
layers = (
{
layerId = "36D41E8E-F531-4154-A930-CD44EA9C85A7";
paths = (
{
closed = 1;
nodes = (
"138 0 LINE",
"272 577 LINE",
"604 577 LINE",
"470 0 LINE",
"578 0 LINE",
"735 679 LINE",
"187 679 LINE",
"30 0 LINE"
);
}
);
width = 728;
}
);
unicode = 03A0;
},
{
glyphname = Rho;
lastChange = "2018-03-05 12:05:51 +0000";
layers = (
{
layerId = "36D41E8E-F531-4154-A930-CD44EA9C85A7";
paths = (
{
closed = 1;
nodes = (
"138 0 LINE",
"181 183 LINE",
"369 183 LINE SMOOTH",
"525 183 OFFCURVE",
"653 277 OFFCURVE",
"689 431 CURVE SMOOTH",
"724 585 OFFCURVE",
"650 679 OFFCURVE",
"485 679 CURVE SMOOTH",
"187 679 LINE",
"30 0 LINE"
);
},
{
closed = 1;
nodes = (
"271 577 LINE",
"455 577 LINE SMOOTH",
"563 577 OFFCURVE",
"598 523 OFFCURVE",
"576 429 CURVE SMOOTH",
"555 335 OFFCURVE",
"495 283 OFFCURVE",
"387 283 CURVE SMOOTH",
"203 283 LINE"
);
}
);
width = 688;
}
);
leftKerningGroup = P;
rightKerningGroup = P;
unicode = 03A1;
},
{
glyphname = Sigma;
lastChange = "2018-03-05 12:05:51 +0000";
layers = (
{
layerId = "36D41E8E-F531-4154-A930-CD44EA9C85A7";
paths = (
{
closed = 1;
nodes = (
"501 0 LINE",
"525 102 LINE",
"173 102 LINE",
"425 292 LINE",
"445 378 LINE",
"273 577 LINE",
"623 577 LINE",
"646 679 LINE",
"157 679 LINE",
"135 582 LINE",
"341 335 LINE",
"23 97 LINE",
"0 0 LINE"
);
}
);
width = 596;
}
);
leftKerningGroup = X;
rightKerningGroup = E;
unicode = 03A3;
},
{
glyphname = Tau;
lastChange = "2018-03-05 12:05:51 +0000";
layers = (
{
layerId = "36D41E8E-F531-4154-A930-CD44EA9C85A7";
paths = (
{
closed = 1;
nodes = (
"316 0 LINE",
"450 577 LINE",
"688 577 LINE",
"711 679 LINE",
"127 679 LINE",
"104 577 LINE",
"342 577 LINE",
"208 0 LINE"
);
}
);
width = 644;
}
);
leftKerningGroup = T;
rightKerningGroup = T;
unicode = 03A4;
},
{
color = 5;
glyphname = Upsilon;
lastChange = "2018-03-05 12:09:04 +0000";
layers = (
{
anchors = (
{
name = center;
position = "{319, 169}";
},
{
name = top;
position = "{435, 679}";
}
);
layerId = "36D41E8E-F531-4154-A930-CD44EA9C85A7";
paths = (
{
closed = 1;
nodes = (
"333 0 LINE",
"401 291 LINE",
"753 679 LINE",
"613 679 LINE",
"319 350 LINE",
"386 341 LINE",
"240 679 LINE",
"117 679 LINE",
"291 291 LINE",
"223 0 LINE"
);
}
);
width = 676;
}
);
leftKerningGroup = Y;
rightKerningGroup = Y;
unicode = 03A5;
},
{
glyphname = Phi;
lastChange = "2018-03-05 12:05:51 +0000";
layers = (
{
layerId = "36D41E8E-F531-4154-A930-CD44EA9C85A7";
paths = (
{
closed = 1;
nodes = (
"546 -15 OFFCURVE",
"727 144 OFFCURVE",
"772 340 CURVE SMOOTH",
"817 536 OFFCURVE",
"710 695 OFFCURVE",
"497 695 CURVE SMOOTH",
"284 695 OFFCURVE",
"104 536 OFFCURVE",
"59 340 CURVE SMOOTH",
"14 144 OFFCURVE",
"120 -15 OFFCURVE",
"333 -15 CURVE SMOOTH"
);
},
{
closed = 1;
nodes = (
"191 114 OFFCURVE",
"142 216 OFFCURVE",
"171 340 CURVE SMOOTH",
"200 465 OFFCURVE",
"295 566 OFFCURVE",
"421 588 CURVE",
"307 92 LINE"
);
},
{
closed = 1;
nodes = (
"523 588 LINE",
"639 566 OFFCURVE",
"688 465 OFFCURVE",
"659 340 CURVE SMOOTH",
"630 216 OFFCURVE",
"535 114 OFFCURVE",
"409 92 CURVE"
);
}
);
width = 793;
}
);
leftKerningGroup = "ronde-cap";
rightKerningGroup = "ronde-cap";
unicode = 03A6;
},
{
color = 5;
glyphname = Chi;
lastChange = "2018-03-05 12:08:12 +0000";
layers = (
{
layerId = "36D41E8E-F531-4154-A930-CD44EA9C85A7";
paths = (
{
closed = 1;
nodes = (
"121 0 LINE",
"405 305 LINE",
"332 313 LINE",
"488 0 LINE",
"620 0 LINE",
"418 400 LINE",
"406 322 LINE",
"759 679 LINE",
"609 679 LINE",
"341 402 LINE",
"414 393 LINE",
"275 679 LINE",
"143 679 LINE",
"334 315 LINE",
"344 393 LINE",
"-29 0 LINE"
);
}
);
width = 711;
}
);
leftKerningGroup = X;
rightKerningGroup = X;
unicode = 03A7;
},
{
glyphname = Psi;
lastChange = "2018-03-05 12:05:51 +0000";
layers = (
{
layerId = "36D41E8E-F531-4154-A930-CD44EA9C85A7";
paths = (
{
closed = 1;
nodes = (
"354 0 LINE",
"389 152 LINE",
"529 171 OFFCURVE",
"650 262 OFFCURVE",
"687 422 CURVE SMOOTH",
"746 679 LINE",
"637 679 LINE",
"578 423 LINE SMOOTH",
"556 328 OFFCURVE",
"486 277 OFFCURVE",
"414 259 CURVE",
"511 679 LINE",
"402 679 LINE",
"305 259 LINE",
"242 277 OFFCURVE",
"195 328 OFFCURVE",
"217 423 CURVE SMOOTH",
"276 679 LINE",
"167 679 LINE",
"108 422 LINE SMOOTH",
"71 262 OFFCURVE",
"150 171 OFFCURVE",
"280 152 CURVE",
"245 0 LINE"
);
}
);
width = 719;
}
);
unicode = 03A8;
},
{
glyphname = alpha;
lastChange = "2018-03-05 13:20:42 +0000";
layers = (
{
anchors = (
{
name = top;
position = "{378, 516}";
}
);
layerId = "36D41E8E-F531-4154-A930-CD44EA9C85A7";
paths = (
{
closed = 1;
nodes = (
"310 -15 OFFCURVE",
"399 3 OFFCURVE",
"453 60 CURVE",
"450 39 OFFCURVE",
"448 18 OFFCURVE",
"449 -2 CURVE",
"556 -2 LINE",
"555 83 OFFCURVE",
"564 175 OFFCURVE",
"583 260 CURVE",
"676 518 LINE",
"569 518 LINE",
"549 445 LINE",
"528 505 OFFCURVE",
"440 532 OFFCURVE",
"382 532 CURVE SMOOTH",
"224 532 OFFCURVE",
"75 410 OFFCURVE",
"40 259 CURVE SMOOTH",
"5 108 OFFCURVE",
"98 -15 OFFCURVE",
"256 -15 CURVE SMOOTH"
);
},
{
closed = 1;
nodes = (
"181 81 OFFCURVE",
"123 161 OFFCURVE",
"146 259 CURVE SMOOTH",
"169 357 OFFCURVE",
"263 436 OFFCURVE",
"359 436 CURVE SMOOTH",
"456 436 OFFCURVE",
"517 371 OFFCURVE",
"491 259 CURVE SMOOTH",
"465 146 OFFCURVE",
"374 81 OFFCURVE",
"277 81 CURVE SMOOTH"
);
}
);
width = 676;
}
);
leftKerningGroup = "ronde-min";
leftMetricsKey = a;
rightKerningGroup = alpha;
unicode = 03B1;
},
{
glyphname = beta;
lastChange = "2018-03-05 12:06:03 +0000";
layers = (
{
layerId = "36D41E8E-F531-4154-A930-CD44EA9C85A7";
paths = (
{
closed = 1;
nodes = (
"77 -216 LINE",
"133 24 LINE",
"136 22 LINE SMOOTH",
"156 11 OFFCURVE",
"197 -13 OFFCURVE",
"263 -13 CURVE SMOOTH",
"390 -13 OFFCURVE",
"510 57 OFFCURVE",
"541 190 CURVE SMOOTH",
"562 279 OFFCURVE",
"501 348 OFFCURVE",
"410 368 CURVE",
"488 379 OFFCURVE",
"553 436 OFFCURVE",
"571 515 CURVE SMOOTH",
"598 632 OFFCURVE",
"541 698 OFFCURVE",
"407 698 CURVE SMOOTH",
"266 698 OFFCURVE",
"160 603 OFFCURVE",
"127 462 CURVE SMOOTH",
"-30 -216 LINE"
);
},
{
closed = 1;
nodes = (
"220 80 OFFCURVE",
"175 108 OFFCURVE",
"158 131 CURVE",
"236 472 LINE SMOOTH",
"257 563 OFFCURVE",
"327 610 OFFCURVE",
"387 610 CURVE SMOOTH",
"452 610 OFFCURVE",
"484 580 OFFCURVE",
"469 514 CURVE SMOOTH",
"450 430 OFFCURVE",
"373 404 OFFCURVE",
"317 404 CURVE",
"296 313 LINE",
"313 313 LINE SMOOTH",
"384 313 OFFCURVE",
"449 268 OFFCURVE",
"430 187 CURVE SMOOTH",
"411 102 OFFCURVE",
"334 80 OFFCURVE",
"285 80 CURVE SMOOTH"
);
}
);
width = 607;
}
);
rightKerningGroup = german;
unicode = 03B2;
},
{
glyphname = gamma;
lastChange = "2018-03-11 15:36:12 +0000";
layers = (
{
layerId = "36D41E8E-F531-4154-A930-CD44EA9C85A7";
paths = (
{
closed = 1;
nodes = (
"204 -216 LINE",
"254 0 LINE",
"568 517 LINE",
"443 517 LINE",
"189 70 LINE",
"230 64 LINE",
"183 517 LINE",
"70 517 LINE",
"144 0 LINE",
"94 -216 LINE"
);
}
);
width = 518;
}
);
leftKerningGroup = "y-greek";
rightKerningGroup = "y-greek";
unicode = 03B3;
},
{
glyphname = delta;
lastChange = "2018-03-05 12:06:03 +0000";
layers = (
{
layerId = "36D41E8E-F531-4154-A930-CD44EA9C85A7";
paths = (
{
closed = 1;
nodes = (
"349 -15 OFFCURVE",
"479 88 OFFCURVE",
"508 216 CURVE SMOOTH",
"525 288 OFFCURVE",
"506 353 OFFCURVE",
"461 396 CURVE",
"306 590 LINE",
"563 590 LINE",
"583 678 LINE",
"194 678 LINE",
"174 590 LINE",
"289 445 LINE",
"168 429 OFFCURVE",
"57 332 OFFCURVE",
"30 216 CURVE SMOOTH",
"1 88 OFFCURVE",
"83 -15 OFFCURVE",
"216 -15 CURVE SMOOTH"
);
},
{
closed = 1;
nodes = (
"165 81 OFFCURVE",
"124 141 OFFCURVE",
"141 216 CURVE SMOOTH",
"158 290 OFFCURVE",
"227 351 OFFCURVE",
"300 351 CURVE SMOOTH",
"373 351 OFFCURVE",
"414 290 OFFCURVE",
"397 216 CURVE SMOOTH",
"380 141 OFFCURVE",
"311 81 OFFCURVE",
"238 81 CURVE SMOOTH"
);
}
);
width = 538;
}
);
leftKerningGroup = "ronde-min";
rightKerningGroup = "ronde-min";
unicode = 03B4;
},
{
glyphname = epsilon;
lastChange = "2018-03-05 12:06:03 +0000";
layers = (
{
anchors = (
{
name = top;
position = "{322, 516}";
}
);
layerId = "36D41E8E-F531-4154-A930-CD44EA9C85A7";
paths = (
{
closed = 1;
nodes = (
"254 -15 OFFCURVE",
"351 5 OFFCURVE",
"395 34 CURVE",
"418 134 LINE",
"418 134 OFFCURVE",
"318 80 OFFCURVE",
"229 80 CURVE SMOOTH",
"168 80 OFFCURVE",
"107 95 OFFCURVE",
"121 154 CURVE SMOOTH",
"131 200 OFFCURVE",
"182 227 OFFCURVE",
"232 227 CURVE SMOOTH",
"327 227 LINE",
"347 315 LINE",
"267 315 LINE SMOOTH",
"213 315 OFFCURVE",
"177 332 OFFCURVE",
"188 379 CURVE SMOOTH",
"198 421 OFFCURVE",
"248 436 OFFCURVE",
"317 436 CURVE SMOOTH",
"378 436 OFFCURVE",
"445 411 OFFCURVE",
"464 395 CURVE",
"486 493 LINE",
"451 520 OFFCURVE",
"389 532 OFFCURVE",
"327 532 CURVE SMOOTH",
"211 532 OFFCURVE",
"109 480 OFFCURVE",
"89 391 CURVE SMOOTH",
"75 333 OFFCURVE",
"111 279 OFFCURVE",
"167 273 CURVE",
"68 253 OFFCURVE",
"23 184 OFFCURVE",
"12 136 CURVE SMOOTH",
"-13 30 OFFCURVE",
"69 -15 OFFCURVE",
"201 -15 CURVE SMOOTH"
);
}
);
width = 487;
}
);
leftKerningGroup = reverse;
rightKerningGroup = reverse;
unicode = 03B5;
},
{
glyphname = zeta;
lastChange = "2018-03-05 12:06:03 +0000";
layers = (
{
layerId = "36D41E8E-F531-4154-A930-CD44EA9C85A7";
paths = (
{
closed = 1;
nodes = (
"322 -216 LINE",
"396 102 LINE",
"376 93 OFFCURVE",
"354 77 OFFCURVE",
"293 77 CURVE SMOOTH",
"208 77 OFFCURVE",
"133 149 OFFCURVE",
"158 258 CURVE SMOOTH",
"183 368 OFFCURVE",
"260 462 OFFCURVE",
"508 591 CURVE",
"528 679 LINE",
"177 679 LINE",
"157 591 LINE",
"359 591 LINE",
"224 521 OFFCURVE",
"87 419 OFFCURVE",
"50 258 CURVE SMOOTH",
"15 107 OFFCURVE",
"99 -15 OFFCURVE",
"261 -15 CURVE",
"214 -216 LINE"
);
}
);
width = 472;
}
);
unicode = 03B6;
},
{
glyphname = eta;
lastChange = "2018-03-05 13:04:41 +0000";
layers = (
{
anchors = (
{
name = top;
position = "{380, 516}";
}
);
layerId = "36D41E8E-F531-4154-A930-CD44EA9C85A7";
paths = (
{
closed = 1;
nodes = (
"448 -215 LINE",
"571 318 LINE SMOOTH",
"604 460 OFFCURVE",
"528 533 OFFCURVE",
"413 533 CURVE SMOOTH",
"286 533 OFFCURVE",
"233 453 OFFCURVE",
"233 453 CURVE",
"248 518 LINE",
"140 518 LINE",
"20 0 LINE",
"128 0 LINE",
"196 291 LINE SMOOTH",
"218 388 OFFCURVE",
"300 437 OFFCURVE",
"375 437 CURVE SMOOTH",
"445 437 OFFCURVE",
"479 390 OFFCURVE",
"460 307 CURVE SMOOTH",
"340 -215 LINE"
);
}
);
width = 627;
}
);
rightKerningGroup = n;
unicode = 03B7;
},
{
glyphname = theta;
lastChange = "2018-03-05 12:06:03 +0000";
layers = (
{
layerId = "36D41E8E-F531-4154-A930-CD44EA9C85A7";
paths = (
{
closed = 1;
nodes = (
"381 -15 OFFCURVE",
"481 141 OFFCURVE",
"527 340 CURVE SMOOTH",
"573 540 OFFCURVE",
"545 695 OFFCURVE",
"380 695 CURVE SMOOTH",
"217 695 OFFCURVE",
"115 540 OFFCURVE",
"69 340 CURVE SMOOTH",
"23 141 OFFCURVE",
"51 -15 OFFCURVE",
"216 -15 CURVE SMOOTH"
);
},
{
closed = 1;
nodes = (
"120 77 OFFCURVE",
"145 219 OFFCURVE",
"168 317 CURVE",
"417 317 LINE",
"393 219 OFFCURVE",
"353 77 OFFCURVE",
"237 77 CURVE SMOOTH"
);
},
{
closed = 1;
nodes = (
"214 497 OFFCURVE",
"258 603 OFFCURVE",
"359 603 CURVE SMOOTH",
"459 603 OFFCURVE",
"453 497 OFFCURVE",
"436 405 CURVE",
"189 405 LINE"
);
}
);
width = 558;
}
);
unicode = 03B8;
},
{
glyphname = iota;
lastChange = "2018-03-05 12:06:03 +0000";
layers = (
{
anchors = (
{
name = top;
position = "{193, 516}";
}
);
layerId = "36D41E8E-F531-4154-A930-CD44EA9C85A7";
paths = (
{
closed = 1;
nodes = (
"128 0 LINE",
"248 517 LINE",
"140 517 LINE",
"20 0 LINE"
);
}
);
width = 268;
}
);
unicode = 03B9;
},
{
glyphname = kappa;
lastChange = "2018-03-05 12:28:55 +0000";
layers = (
{
layerId = "36D41E8E-F531-4154-A930-CD44EA9C85A7";
paths = (
{
closed = 1;
nodes = (
"128 0 LINE",
"179 221 LINE",
"131 143 LINE",
"301 286 LINE",
"251 300 LINE",
"368 0 LINE",
"486 0 LINE",
"349 324 LINE",
"575 517 LINE",
"442 517 LINE",
"149 262 LINE",
"185 247 LINE",
"248 517 LINE",
"140 517 LINE",
"20 0 LINE"
);
}
);
width = 546;
}
);
rightKerningGroup = "k-grec";
unicode = 03BA;
},
{
glyphname = lambda;
lastChange = "2018-03-05 12:29:04 +0000";
layers = (
{
layerId = "36D41E8E-F531-4154-A930-CD44EA9C85A7";
paths = (
{
closed = 1;
nodes = (
"74 2 LINE",
"317 391 LINE",
"382 2 LINE",
"495 2 LINE",
"368 679 LINE",
"265 679 LINE",
"300 460 LINE",
"319 569 LINE",
"-39 2 LINE"
);
}
);
width = 574;
}
);
leftKerningGroup = A;
rightKerningGroup = A;
unicode = 03BB;
},
{
glyphname = nu;
lastChange = "2018-03-05 12:29:32 +0000";
layers = (
{
layerId = "36D41E8E-F531-4154-A930-CD44EA9C85A7";
paths = (
{
closed = 1;
nodes = (
"253 0 LINE",
"577 515 LINE",
"455 515 LINE",
"199 104 LINE",
"247 98 LINE",
"189 515 LINE",
"79 515 LINE",
"165 0 LINE"
);
}
);
width = 538;
}
);
leftKerningGroup = "diag-min";
rightKerningGroup = "diag-min";
unicode = 03BD;
},
{
glyphname = xi;
lastChange = "2018-03-05 12:06:03 +0000";
layers = (
{
layerId = "36D41E8E-F531-4154-A930-CD44EA9C85A7";
paths = (
{
closed = 1;
nodes = (
"337 -216 LINE",
"412 105 LINE",
"381 92 OFFCURVE",
"300 80 OFFCURVE",
"236 80 CURVE SMOOTH",
"147 80 OFFCURVE",
"121 128 OFFCURVE",
"134 186 CURVE SMOOTH",
"152 261 OFFCURVE",
"210 310 OFFCURVE",
"320 310 CURVE SMOOTH",
"389 310 LINE",
"409 398 LINE",
"347 398 LINE SMOOTH",
"263 398 OFFCURVE",
"237 458 OFFCURVE",
"251 517 CURVE SMOOTH",
"262 568 OFFCURVE",
"305 603 OFFCURVE",
"370 603 CURVE SMOOTH",
"436 603 OFFCURVE",
"463 572 OFFCURVE",
"491 549 CURVE",
"513 646 LINE",
"487 673 OFFCURVE",
"454 694 OFFCURVE",
"378 694 CURVE SMOOTH",
"257 694 OFFCURVE",
"167 612 OFFCURVE",
"145 520 CURVE SMOOTH",
"127 442 OFFCURVE",
"172 380 OFFCURVE",
"222 364 CURVE",
"140 347 OFFCURVE",
"45 282 OFFCURVE",
"23 187 CURVE SMOOTH",
"-3 71 OFFCURVE",
"58 -16 OFFCURVE",
"214 -16 CURVE SMOOTH",
"235 -16 OFFCURVE",
"256 -14 OFFCURVE",
"278 -11 CURVE",
"230 -216 LINE"
);
}
);
width = 487;
}
);
leftKerningGroup = "ronde-min";
rightKerningGroup = c;
unicode = 03BE;
},
{
glyphname = omicron;
lastChange = "2018-03-05 12:06:03 +0000";
layers = (
{
anchors = (
{
name = top;
position = "{382, 516}";
}
);
layerId = "36D41E8E-F531-4154-A930-CD44EA9C85A7";
paths = (
{
closed = 1;
nodes = (
"417 -15 OFFCURVE",
"571 107 OFFCURVE",
"606 258 CURVE SMOOTH",
"641 409 OFFCURVE",
"543 532 OFFCURVE",
"386 532 CURVE SMOOTH",
"229 532 OFFCURVE",
"75 409 OFFCURVE",
"40 258 CURVE SMOOTH",
"5 107 OFFCURVE",
"103 -15 OFFCURVE",
"260 -15 CURVE SMOOTH"
);
},
{
closed = 1;
nodes = (
"180 82 OFFCURVE",
"124 161 OFFCURVE",
"147 258 CURVE SMOOTH",
"170 356 OFFCURVE",
"262 435 OFFCURVE",
"364 435 CURVE SMOOTH",
"466 435 OFFCURVE",
"522 356 OFFCURVE",
"499 258 CURVE SMOOTH",
"476 161 OFFCURVE",
"384 82 OFFCURVE",
"282 82 CURVE SMOOTH"
);
}
);
width = 646;
}
);
leftKerningGroup = "ronde-min";
rightKerningGroup = "ronde-min";
unicode = 03BF;
},
{
glyphname = pi;
lastChange = "2018-03-05 12:06:03 +0000";
layers = (
{
layerId = "36D41E8E-F531-4154-A930-CD44EA9C85A7";
paths = (
{
closed = 1;
nodes = (
"199 0 LINE",
"298 429 LINE",
"433 429 LINE",
"334 0 LINE",
"442 0 LINE",
"541 429 LINE",
"649 429 LINE",
"670 517 LINE",
"100 517 LINE",
"79 429 LINE",
"190 429 LINE",
"91 0 LINE"
);
}
);
width = 650;
}
);
leftKerningGroup = tau;
rightKerningGroup = tau;
unicode = 03C0;
},
{
glyphname = rho;
lastChange = "2018-03-05 12:06:03 +0000";
layers = (
{
layerId = "36D41E8E-F531-4154-A930-CD44EA9C85A7";
paths = (
{
closed = 1;
nodes = (
"68 -216 LINE",
"131 57 LINE",
"161 -1 OFFCURVE",
"233 -15 OFFCURVE",
"289 -15 CURVE SMOOTH",
"447 -15 OFFCURVE",
"587 108 OFFCURVE",
"622 259 CURVE SMOOTH",
"657 410 OFFCURVE",
"568 532 OFFCURVE",
"416 532 CURVE SMOOTH",
"237 532 OFFCURVE",
"105 412 OFFCURVE",
"66 241 CURVE SMOOTH",
"-40 -216 LINE"
);
},
{
closed = 1;
nodes = (
"217 81 OFFCURVE",
"149 146 OFFCURVE",
"175 259 CURVE SMOOTH",
"201 371 OFFCURVE",
"299 436 OFFCURVE",
"396 436 CURVE SMOOTH",
"492 436 OFFCURVE",
"537 357 OFFCURVE",
"514 259 CURVE SMOOTH",
"491 161 OFFCURVE",
"410 81 OFFCURVE",
"314 81 CURVE SMOOTH"
);
}
);
width = 662;
}
);
rightKerningGroup = "ronde-min";
unicode = 03C1;
},
{
glyphname = sigma;
lastChange = "2018-03-05 12:06:03 +0000";
layers = (
{
layerId = "36D41E8E-F531-4154-A930-CD44EA9C85A7";
paths = (
{
closed = 1;
nodes = (
"419 -15 OFFCURVE",
"557 100 OFFCURVE",
"592 251 CURVE SMOOTH",
"604 302 OFFCURVE",
"610 405 OFFCURVE",
"528 429 CURVE",
"659 429 LINE",
"680 517 LINE",
"381 517 LINE SMOOTH",
"177 517 OFFCURVE",
"66 370 OFFCURVE",
"38 251 CURVE SMOOTH",
"3 100 OFFCURVE",
"90 -15 OFFCURVE",
"254 -15 CURVE SMOOTH"
);
},
{
closed = 1;
nodes = (
"167 82 OFFCURVE",
"123 154 OFFCURVE",
"145 251 CURVE SMOOTH",
"168 349 OFFCURVE",
"244 421 OFFCURVE",
"355 421 CURVE SMOOTH",
"457 421 OFFCURVE",
"509 349 OFFCURVE",
"486 251 CURVE SMOOTH",
"464 154 OFFCURVE",
"386 82 OFFCURVE",
"276 82 CURVE SMOOTH"
);
}
);
width = 670;
}
);
leftKerningGroup = "ronde-min";
rightKerningGroup = sigma;
unicode = 03C3;
},
{
glyphname = tau;
lastChange = "2018-03-05 11:40:42 +0000";
layers = (
{
layerId = "36D41E8E-F531-4154-A930-CD44EA9C85A7";
paths = (
{
closed = 1;
nodes = (
"276 0 LINE",
"375 429 LINE",
"560 429 LINE",
"581 517 LINE",
"100 517 LINE",
"79 429 LINE",
"267 429 LINE",
"168 0 LINE"
);
}
);
width = 561;
}
);
leftKerningGroup = tau;
rightKerningGroup = tau;
unicode = 03C4;
},
{
glyphname = upsilon;
lastChange = "2018-03-05 12:06:09 +0000";
layers = (
{
anchors = (
{
name = top;
position = "{364, 516}";
}
);
layerId = "36D41E8E-F531-4154-A930-CD44EA9C85A7";
paths = (
{
closed = 1;
nodes = (
"307 -16 OFFCURVE",
"478 -11 OFFCURVE",
"529 209 CURVE SMOOTH",
"600 517 LINE",
"492 517 LINE",
"419 204 LINE SMOOTH",
"415 186 OFFCURVE",
"386 79 OFFCURVE",
"264 79 CURVE SMOOTH",
"142 79 OFFCURVE",
"161 186 OFFCURVE",
"165 204 CURVE SMOOTH",
"238 517 LINE",
"130 517 LINE",
"59 209 LINE SMOOTH",
"8 -11 OFFCURVE",
"177 -16 OFFCURVE",
"242 -16 CURVE SMOOTH"
);
}
);
width = 610;
}
);
leftKerningGroup = u;
rightKerningGroup = u;
unicode = 03C5;
},
{
glyphname = phi;
lastChange = "2018-03-05 12:06:09 +0000";
layers = (
{
layerId = "36D41E8E-F531-4154-A930-CD44EA9C85A7";
paths = (
{
closed = 1;
nodes = (
"315 -216 LINE",
"362 -15 LINE",
"503 -13 OFFCURVE",
"667 100 OFFCURVE",
"702 249 CURVE SMOOTH",
"736 399 OFFCURVE",
"651 518 OFFCURVE",
"481 518 CURVE SMOOTH",
"427 518 OFFCURVE",
"376 515 OFFCURVE",
"376 515 CURVE",
"276 82 LINE",
"178 85 OFFCURVE",
"123 155 OFFCURVE",
"145 250 CURVE SMOOTH",
"165 338 OFFCURVE",
"221 387 OFFCURVE",
"297 413 CURVE",
"319 508 LINE",
"190 480 OFFCURVE",
"70 387 OFFCURVE",
"38 250 CURVE SMOOTH",
"4 101 OFFCURVE",
"101 -12 OFFCURVE",
"254 -15 CURVE",
"207 -216 LINE"
);
},
{
closed = 1;
nodes = (
"465 430 LINE",
"564 428 OFFCURVE",
"622 368 OFFCURVE",
"595 250 CURVE SMOOTH",
"573 154 OFFCURVE",
"485 84 OFFCURVE",
"384 82 CURVE"
);
}
);
width = 744;
}
);
leftKerningGroup = "ronde-min";
rightKerningGroup = "ronde-min";
unicode = 03C6;
},
{
glyphname = chi;
lastChange = "2018-03-05 12:29:49 +0000";
layers = (
{
layerId = "36D41E8E-F531-4154-A930-CD44EA9C85A7";
paths = (
{
closed = 1;
nodes = (
"18 -216 LINE",
"261 130 LINE",
"212 137 LINE",
"297 -216 LINE",
"415 -216 LINE",
"312 178 LINE",
"552 517 LINE",
"424 517 LINE",
"231 229 LINE",
"279 222 LINE",
"210 517 LINE",
"93 517 LINE",
"177 184 LINE",
"-110 -216 LINE"
);
}
);
width = 525;
}
);
leftKerningGroup = X;
rightKerningGroup = X;
unicode = 03C7;
},
{
glyphname = psi;
lastChange = "2018-03-05 12:06:09 +0000";
layers = (
{
layerId = "36D41E8E-F531-4154-A930-CD44EA9C85A7";
paths = (
{
closed = 1;
nodes = (
"303 -216 LINE",
"350 -16 LINE",
"415 -16 OFFCURVE",
"589 6 OFFCURVE",
"636 209 CURVE SMOOTH",
"707 517 LINE",
"599 517 LINE",
"527 206 LINE SMOOTH",
"509 129 OFFCURVE",
"446 81 OFFCURVE",
"372 79 CURVE",
"473 517 LINE",
"365 517 LINE",
"264 79 LINE",
"142 79 OFFCURVE",
"161 186 OFFCURVE",
"165 204 CURVE SMOOTH",
"238 517 LINE",
"130 517 LINE",
"59 209 LINE SMOOTH",
"11 5 OFFCURVE",
"177 -16 OFFCURVE",
"242 -16 CURVE",
"195 -216 LINE"
);
}
);
width = 717;
}
);
unicode = 03C8;
},
{
glyphname = omega;
lastChange = "2018-03-05 12:06:09 +0000";
layers = (
{
anchors = (
{
name = top;
position = "{400, 516}";
}
);
layerId = "36D41E8E-F531-4154-A930-CD44EA9C85A7";
paths = (
{
closed = 1;
nodes = (
"213 -16 OFFCURVE",
"270 29 OFFCURVE",
"300 81 CURVE",
"306 29 OFFCURVE",
"343 -16 OFFCURVE",
"411 -16 CURVE SMOOTH",
"511 -16 OFFCURVE",
"604 96 OFFCURVE",
"651 297 CURVE SMOOTH",
"680 425 OFFCURVE",
"667 517 OFFCURVE",
"667 517 CURVE SMOOTH",
"563 517 LINE",
"564 466 OFFCURVE",
"562 383 OFFCURVE",
"541 294 CURVE SMOOTH",
"521 205 OFFCURVE",
"482 79 OFFCURVE",
"422 79 CURVE SMOOTH",
"375 79 OFFCURVE",
"363 118 OFFCURVE",
"385 215 CURVE SMOOTH",
"427 399 LINE",
"319 399 LINE",
"277 215 LINE SMOOTH",
"255 118 OFFCURVE",
"225 79 OFFCURVE",
"178 79 CURVE SMOOTH",
"118 79 OFFCURVE",
"137 205 OFFCURVE",
"157 294 CURVE SMOOTH",
"178 383 OFFCURVE",
"214 466 OFFCURVE",
"239 517 CURVE",
"135 517 LINE SMOOTH",
"135 517 OFFCURVE",
"78 425 OFFCURVE",
"49 297 CURVE SMOOTH",
"2 96 OFFCURVE",
"45 -16 OFFCURVE",
"145 -16 CURVE SMOOTH"
);
}
);
width = 682;
}
);
leftKerningGroup = "w-greek";
rightKerningGroup = "w-greek";
unicode = 03C9;
},
{
glyphname = zero;
lastChange = "2018-03-05 12:10:14 +0000";
layers = (
{
layerId = "36D41E8E-F531-4154-A930-CD44EA9C85A7";
paths = (
{
closed = 1;
nodes = (
"409 -18 OFFCURVE",
"527 146 OFFCURVE",
"569 340 CURVE",
"617 534 OFFCURVE",
"573 692 OFFCURVE",
"402 695 CURVE SMOOTH",
"229 692 OFFCURVE",
"111 534 OFFCURVE",
"69 340 CURVE SMOOTH",
"21 146 OFFCURVE",
"65 -18 OFFCURVE",
"238 -15 CURVE SMOOTH"
);
},
{
closed = 1;
nodes = (
"144 88 OFFCURVE",
"156 232 OFFCURVE",
"181 340 CURVE SMOOTH",
"206 447 OFFCURVE",
"260 593 OFFCURVE",
"378 593 CURVE SMOOTH",
"496 593 OFFCURVE",
"482 447 OFFCURVE",
"457 340 CURVE SMOOTH",
"432 232 OFFCURVE",
"380 88 OFFCURVE",
"262 88 CURVE SMOOTH"
);
}
);
width = 600;
}
);
note = zero;
unicode = 0030;
},
{
glyphname = one;
lastChange = "2018-03-05 12:13:42 +0000";
layers = (
{
anchors = (
{
name = ogonek;
position = "{343, 10}";
},
{
name = top;
position = "{382, 679}";
}
);
layerId = "36D41E8E-F531-4154-A930-CD44EA9C85A7";
paths = (
{
closed = 1;
nodes = (
"421 0 LINE",
"443 96 LINE",
"301 96 LINE",
"436 679 LINE",
"167 679 LINE",
"145 584 LINE",
"305 584 LINE",
"192 96 LINE",
"32 96 LINE",
"10 0 LINE"
);
}
);
width = 531;
}
);
note = one;
unicode = 0031;
},
{
glyphname = two;
lastChange = "2018-03-05 12:10:14 +0000";
layers = (
{
layerId = "36D41E8E-F531-4154-A930-CD44EA9C85A7";
paths = (
{
closed = 1;
nodes = (
"466 0 LINE",
"488 96 LINE",
"227 96 LINE",
"493 344 LINE",
"536 381 OFFCURVE",
"569 431 OFFCURVE",
"582 486 CURVE SMOOTH",
"609 603 OFFCURVE",
"532 699 OFFCURVE",
"410 699 CURVE SMOOTH",
"288 699 OFFCURVE",
"167 603 OFFCURVE",
"140 486 CURVE SMOOTH",
"114 375 OFFCURVE",
"180 285 OFFCURVE",
"290 274 CURVE",
"1 1 LINE",
"61 1 LINE",
"59 0 LINE"
);
},
{
closed = 1;
nodes = (
"272 376 OFFCURVE",
"236 425 OFFCURVE",
"251 486 CURVE SMOOTH",
"265 547 OFFCURVE",
"323 596 OFFCURVE",
"386 596 CURVE SMOOTH",
"449 596 OFFCURVE",
"485 547 OFFCURVE",
"471 486 CURVE SMOOTH",
"456 425 OFFCURVE",
"398 376 OFFCURVE",
"335 376 CURVE SMOOTH"
);
}
);
width = 599;
}
);
note = two;
unicode = 0032;
},
{
glyphname = three;
lastChange = "2018-03-05 12:13:21 +0000";
layers = (
{
layerId = "36D41E8E-F531-4154-A930-CD44EA9C85A7";
paths = (
{
closed = 1;
nodes = (
"369 -15 OFFCURVE",
"496 85 OFFCURVE",
"525 209 CURVE SMOOTH",
"546 302 OFFCURVE",
"507 382 OFFCURVE",
"430 416 CURVE",
"429 416 LINE",
"580 679 LINE",
"194 679 LINE",
"172 584 LINE",
"466 584 LINE",
"432 626 LINE",
"260 320 LINE",
"273 324 OFFCURVE",
"300 329 OFFCURVE",
"319 329 CURVE SMOOTH",
"388 329 OFFCURVE",
"427 276 OFFCURVE",
"412 209 CURVE SMOOTH",
"396 143 OFFCURVE",
"333 90 OFFCURVE",
"264 90 CURVE SMOOTH",
"195 90 OFFCURVE",
"156 143 OFFCURVE",
"172 209 CURVE",
"59 209 LINE",
"30 85 OFFCURVE",
"111 -15 OFFCURVE",
"240 -15 CURVE SMOOTH"
);
}
);
width = 586;
}
);
note = three;
unicode = 0033;
},
{
glyphname = four;
lastChange = "2018-03-05 13:15:21 +0000";
layers = (
{
layerId = "36D41E8E-F531-4154-A930-CD44EA9C85A7";
paths = (
{
closed = 1;
nodes = (
"435 1 LINE",
"508 321 LINE",
"188 321 LINE",
"217 283 LINE",
"527 679 LINE",
"400 679 LINE",
"43 227 LINE",
"370 227 LINE",
"318 1 LINE"
);
}
);
width = 574;
}
);
note = four;
unicode = 0034;
},
{
glyphname = five;
lastChange = "2018-03-05 12:10:14 +0000";
layers = (
{
layerId = "36D41E8E-F531-4154-A930-CD44EA9C85A7";
paths = (
{
closed = 1;
nodes = (
"349 -15 OFFCURVE",
"476 85 OFFCURVE",
"505 209 CURVE SMOOTH",
"526 302 OFFCURVE",
"487 382 OFFCURVE",
"410 416 CURVE SMOOTH",
"385 428 OFFCURVE",
"356 434 OFFCURVE",
"324 434 CURVE",
"358 584 LINE",
"584 584 LINE",
"606 679 LINE",
"271 679 LINE",
"192 336 LINE",
"239 315 LINE",
"257 324 OFFCURVE",
"277 329 OFFCURVE",
"299 329 CURVE SMOOTH",
"368 329 OFFCURVE",
"407 276 OFFCURVE",
"392 209 CURVE SMOOTH",
"376 143 OFFCURVE",
"313 90 OFFCURVE",
"244 90 CURVE SMOOTH",
"175 90 OFFCURVE",
"136 143 OFFCURVE",
"152 209 CURVE",
"39 209 LINE",
"10 85 OFFCURVE",
"91 -15 OFFCURVE",
"220 -15 CURVE SMOOTH"
);
}
);
width = 566;
}
);
note = five;
unicode = 0035;
},
{
glyphname = six;
lastChange = "2018-03-05 12:11:15 +0000";
layers = (
{
layerId = "36D41E8E-F531-4154-A930-CD44EA9C85A7";
paths = (
{
closed = 1;
nodes = (
"369 -14 OFFCURVE",
"496 86 OFFCURVE",
"525 210 CURVE SMOOTH",
"552 327 OFFCURVE",
"482 423 OFFCURVE",
"367 434 CURVE",
"615 679 LINE",
"481 679 LINE",
"159 365 LINE",
"109 315 OFFCURVE",
"73 270 OFFCURVE",
"59 210 CURVE SMOOTH",
"30 86 OFFCURVE",
"111 -14 OFFCURVE",
"240 -14 CURVE SMOOTH"
);
},
{
closed = 1;
nodes = (
"195 91 OFFCURVE",
"157 144 OFFCURVE",
"172 210 CURVE SMOOTH",
"187 277 OFFCURVE",
"251 330 OFFCURVE",
"320 330 CURVE SMOOTH",
"389 330 OFFCURVE",
"427 277 OFFCURVE",
"412 210 CURVE SMOOTH",
"397 144 OFFCURVE",
"333 91 OFFCURVE",
"264 91 CURVE SMOOTH"
);
}
);
width = 606;
}
);
note = six;
unicode = 0036;
},
{
glyphname = seven;
lastChange = "2018-03-05 12:11:41 +0000";
layers = (
{
layerId = "36D41E8E-F531-4154-A930-CD44EA9C85A7";
paths = (
{
closed = 1;
nodes = (
"160 0 LINE",
"567 679 LINE",
"167 679 LINE",
"145 584 LINE",
"444 584 LINE",
"411 626 LINE",
"32 0 LINE"
);
}
);
width = 530;
}
);
note = seven;
unicode = 0037;
},
{
glyphname = eight;
lastChange = "2018-03-05 12:10:14 +0000";
layers = (
{
layerId = "36D41E8E-F531-4154-A930-CD44EA9C85A7";
paths = (
{
closed = 1;
nodes = (
"352 -14 OFFCURVE",
"479 83 OFFCURVE",
"507 202 CURVE SMOOTH",
"523 273 OFFCURVE",
"500 336 OFFCURVE",
"450 375 CURVE",
"493 409 OFFCURVE",
"525 456 OFFCURVE",
"537 508 CURVE SMOOTH",
"561 612 OFFCURVE",
"493 697 OFFCURVE",
"384 697 CURVE SMOOTH",
"275 697 OFFCURVE",
"169 612 OFFCURVE",
"145 508 CURVE SMOOTH",
"133 456 OFFCURVE",
"143 409 OFFCURVE",
"170 375 CURVE",
"102 336 OFFCURVE",
"49 273 OFFCURVE",
"33 202 CURVE SMOOTH",
"5 83 OFFCURVE",
"88 -14 OFFCURVE",
"220 -14 CURVE SMOOTH"
);
},
{
closed = 1;
nodes = (
"169 81 OFFCURVE",
"127 134 OFFCURVE",
"143 201 CURVE SMOOTH",
"158 267 OFFCURVE",
"224 319 OFFCURVE",
"297 319 CURVE SMOOTH",
"370 319 OFFCURVE",
"412 267 OFFCURVE",
"397 201 CURVE SMOOTH",
"381 134 OFFCURVE",
"315 81 OFFCURVE",
"242 81 CURVE SMOOTH"
);
},
{
closed = 1;
nodes = (
"267 417 OFFCURVE",
"236 457 OFFCURVE",
"248 508 CURVE SMOOTH",
"260 560 OFFCURVE",
"309 600 OFFCURVE",
"362 600 CURVE SMOOTH",
"415 600 OFFCURVE",
"446 560 OFFCURVE",
"434 508 CURVE SMOOTH",
"422 457 OFFCURVE",
"373 417 OFFCURVE",
"320 417 CURVE SMOOTH"
);
}
);
width = 566;
}
);
note = eight;
unicode = 0038;
},
{
glyphname = nine;
lastChange = "2018-03-05 12:11:51 +0000";
layers = (
{
layerId = "36D41E8E-F531-4154-A930-CD44EA9C85A7";
paths = (
{
closed = 1;
nodes = (
"142 0 LINE",
"500 348 LINE",
"499 348 LINE",
"531 383 OFFCURVE",
"555 426 OFFCURVE",
"565 471 CURVE SMOOTH",
"594 595 OFFCURVE",
"513 695 OFFCURVE",
"384 695 CURVE SMOOTH",
"255 695 OFFCURVE",
"128 595 OFFCURVE",
"99 471 CURVE SMOOTH",
"69 340 OFFCURVE",
"161 234 OFFCURVE",
"303 246 CURVE",
"286 280 LINE",
"1 0 LINE"
);
},
{
closed = 1;
nodes = (
"235 351 OFFCURVE",
"197 404 OFFCURVE",
"212 471 CURVE SMOOTH",
"227 537 OFFCURVE",
"291 590 OFFCURVE",
"360 590 CURVE SMOOTH",
"429 590 OFFCURVE",
"467 537 OFFCURVE",
"452 471 CURVE SMOOTH",
"437 404 OFFCURVE",
"373 351 OFFCURVE",
"304 351 CURVE SMOOTH"
);
}
);
width = 566;
}
);
note = nine;
unicode = 0039;
},
{
glyphname = zero.lf;
lastChange = "2018-03-05 12:12:02 +0000";
layers = (
{
layerId = "36D41E8E-F531-4154-A930-CD44EA9C85A7";
paths = (
{
closed = 1;
nodes = (
"409 -18 OFFCURVE",
"527 146 OFFCURVE",
"569 340 CURVE",
"617 534 OFFCURVE",
"573 692 OFFCURVE",
"402 695 CURVE SMOOTH",
"229 692 OFFCURVE",
"111 534 OFFCURVE",
"69 340 CURVE SMOOTH",
"21 146 OFFCURVE",
"65 -18 OFFCURVE",
"238 -15 CURVE SMOOTH"
);
},
{
closed = 1;
nodes = (
"144 88 OFFCURVE",
"156 232 OFFCURVE",
"181 340 CURVE SMOOTH",
"206 447 OFFCURVE",
"260 593 OFFCURVE",
"378 593 CURVE SMOOTH",
"496 593 OFFCURVE",
"482 447 OFFCURVE",
"457 340 CURVE SMOOTH",
"432 232 OFFCURVE",
"380 88 OFFCURVE",
"262 88 CURVE SMOOTH"
);
}
);
width = 600;
}
);
note = zero;
},
{
glyphname = one.lf;
lastChange = "2018-03-05 12:12:02 +0000";
layers = (
{
anchors = (
{
name = ogonek;
position = "{343, 10}";
},
{
name = top;
position = "{382, 679}";
}
);
layerId = "36D41E8E-F531-4154-A930-CD44EA9C85A7";
paths = (
{
closed = 1;
nodes = (
"421 0 LINE",
"443 96 LINE",
"301 96 LINE",
"436 679 LINE",
"167 679 LINE",
"145 584 LINE",
"305 584 LINE",
"192 96 LINE",
"32 96 LINE",
"10 0 LINE"
);
}
);
width = 531;
}
);
note = one;
},
{
glyphname = two.lf;
lastChange = "2018-03-05 12:12:02 +0000";
layers = (
{
layerId = "36D41E8E-F531-4154-A930-CD44EA9C85A7";
paths = (
{
closed = 1;
nodes = (
"466 0 LINE",
"488 96 LINE",
"227 96 LINE",
"493 344 LINE",
"536 381 OFFCURVE",
"569 431 OFFCURVE",
"582 486 CURVE SMOOTH",
"609 603 OFFCURVE",
"532 699 OFFCURVE",
"410 699 CURVE SMOOTH",
"288 699 OFFCURVE",
"167 603 OFFCURVE",
"140 486 CURVE SMOOTH",
"114 375 OFFCURVE",
"180 285 OFFCURVE",
"290 274 CURVE",
"1 1 LINE",
"61 1 LINE",
"59 0 LINE"
);
},
{
closed = 1;
nodes = (
"272 376 OFFCURVE",
"236 425 OFFCURVE",
"251 486 CURVE SMOOTH",
"265 547 OFFCURVE",
"323 596 OFFCURVE",
"386 596 CURVE SMOOTH",
"449 596 OFFCURVE",
"485 547 OFFCURVE",
"471 486 CURVE SMOOTH",
"456 425 OFFCURVE",
"398 376 OFFCURVE",
"335 376 CURVE SMOOTH"
);
}
);
width = 599;
}
);
note = two;
},
{
glyphname = three.lf;
lastChange = "2018-03-05 12:12:02 +0000";
layers = (
{
layerId = "36D41E8E-F531-4154-A930-CD44EA9C85A7";
paths = (
{
closed = 1;
nodes = (
"369 -15 OFFCURVE",
"496 85 OFFCURVE",
"525 209 CURVE SMOOTH",
"546 302 OFFCURVE",
"507 382 OFFCURVE",
"430 416 CURVE",
"429 416 LINE",
"580 679 LINE",
"194 679 LINE",
"172 584 LINE",
"417 584 LINE",
"269 320 LINE",
"286 326 OFFCURVE",
"302 329 OFFCURVE",
"319 329 CURVE SMOOTH",
"388 329 OFFCURVE",
"427 276 OFFCURVE",
"412 209 CURVE SMOOTH",
"396 143 OFFCURVE",
"333 90 OFFCURVE",
"264 90 CURVE SMOOTH",
"195 90 OFFCURVE",
"156 143 OFFCURVE",
"172 209 CURVE",
"59 209 LINE",
"30 85 OFFCURVE",
"111 -15 OFFCURVE",
"240 -15 CURVE SMOOTH"
);
}
);
width = 586;
}
);
note = three;
},
{
glyphname = four.lf;
lastChange = "2018-03-05 12:12:02 +0000";
layers = (
{
layerId = "36D41E8E-F531-4154-A930-CD44EA9C85A7";
paths = (
{
closed = 1;
nodes = (
"435 1 LINE",
"508 321 LINE",
"188 321 LINE",
"217 283 LINE",
"527 679 LINE",
"400 679 LINE",
"43 227 LINE",
"370 227 LINE",
"318 1 LINE"
);
}
);
width = 574;
}
);
note = four;
},
{
glyphname = five.lf;
lastChange = "2018-03-05 12:12:02 +0000";
layers = (
{
layerId = "36D41E8E-F531-4154-A930-CD44EA9C85A7";
paths = (
{
closed = 1;
nodes = (
"349 -15 OFFCURVE",
"476 85 OFFCURVE",
"505 209 CURVE SMOOTH",
"526 302 OFFCURVE",
"487 382 OFFCURVE",
"410 416 CURVE SMOOTH",
"385 428 OFFCURVE",
"356 434 OFFCURVE",
"324 434 CURVE",
"358 584 LINE",
"584 584 LINE",
"606 679 LINE",
"271 679 LINE",
"192 336 LINE",
"239 315 LINE",
"257 324 OFFCURVE",
"277 329 OFFCURVE",
"299 329 CURVE SMOOTH",
"368 329 OFFCURVE",
"407 276 OFFCURVE",
"392 209 CURVE SMOOTH",
"376 143 OFFCURVE",
"313 90 OFFCURVE",
"244 90 CURVE SMOOTH",
"175 90 OFFCURVE",
"136 143 OFFCURVE",
"152 209 CURVE",
"39 209 LINE",
"10 85 OFFCURVE",
"91 -15 OFFCURVE",
"220 -15 CURVE SMOOTH"
);
}
);
width = 566;
}
);
note = five;
},
{
glyphname = six.lf;
lastChange = "2018-03-05 12:12:02 +0000";
layers = (
{
layerId = "36D41E8E-F531-4154-A930-CD44EA9C85A7";
paths = (
{
closed = 1;
nodes = (
"369 -14 OFFCURVE",
"496 86 OFFCURVE",
"525 210 CURVE SMOOTH",
"552 327 OFFCURVE",
"482 423 OFFCURVE",
"367 434 CURVE",
"615 679 LINE",
"481 679 LINE",
"159 365 LINE",
"109 315 OFFCURVE",
"73 270 OFFCURVE",
"59 210 CURVE SMOOTH",
"30 86 OFFCURVE",
"111 -14 OFFCURVE",
"240 -14 CURVE SMOOTH"
);
},
{
closed = 1;
nodes = (
"195 91 OFFCURVE",
"157 144 OFFCURVE",
"172 210 CURVE SMOOTH",
"187 277 OFFCURVE",
"251 330 OFFCURVE",
"320 330 CURVE SMOOTH",
"389 330 OFFCURVE",
"427 277 OFFCURVE",
"412 210 CURVE SMOOTH",
"397 144 OFFCURVE",
"333 91 OFFCURVE",
"264 91 CURVE SMOOTH"
);
}
);
width = 606;
}
);
note = six;
},
{
glyphname = seven.lf;
lastChange = "2018-03-05 12:12:02 +0000";
layers = (
{
layerId = "36D41E8E-F531-4154-A930-CD44EA9C85A7";
paths = (
{
closed = 1;
nodes = (
"160 0 LINE",
"567 679 LINE",
"167 679 LINE",
"145 584 LINE",
"444 584 LINE",
"411 626 LINE",
"32 0 LINE"
);
}
);
width = 530;
}
);
note = seven;
},
{
glyphname = eight.lf;
lastChange = "2018-03-05 12:12:02 +0000";
layers = (
{
layerId = "36D41E8E-F531-4154-A930-CD44EA9C85A7";
paths = (
{
closed = 1;
nodes = (
"352 -14 OFFCURVE",
"479 83 OFFCURVE",
"507 202 CURVE SMOOTH",
"523 273 OFFCURVE",
"500 336 OFFCURVE",
"450 375 CURVE",
"493 409 OFFCURVE",
"525 456 OFFCURVE",
"537 508 CURVE SMOOTH",
"561 612 OFFCURVE",
"493 697 OFFCURVE",
"384 697 CURVE SMOOTH",
"275 697 OFFCURVE",
"169 612 OFFCURVE",
"145 508 CURVE SMOOTH",
"133 456 OFFCURVE",
"143 409 OFFCURVE",
"170 375 CURVE",
"102 336 OFFCURVE",
"49 273 OFFCURVE",
"33 202 CURVE SMOOTH",
"5 83 OFFCURVE",
"88 -14 OFFCURVE",
"220 -14 CURVE SMOOTH"
);
},
{
closed = 1;
nodes = (
"169 81 OFFCURVE",
"127 134 OFFCURVE",
"143 201 CURVE SMOOTH",
"158 267 OFFCURVE",
"224 319 OFFCURVE",
"297 319 CURVE SMOOTH",
"370 319 OFFCURVE",
"412 267 OFFCURVE",
"397 201 CURVE SMOOTH",
"381 134 OFFCURVE",
"315 81 OFFCURVE",
"242 81 CURVE SMOOTH"
);
},
{
closed = 1;
nodes = (
"267 417 OFFCURVE",
"236 457 OFFCURVE",
"248 508 CURVE SMOOTH",
"260 560 OFFCURVE",
"309 600 OFFCURVE",
"362 600 CURVE SMOOTH",
"415 600 OFFCURVE",
"446 560 OFFCURVE",
"434 508 CURVE SMOOTH",
"422 457 OFFCURVE",
"373 417 OFFCURVE",
"320 417 CURVE SMOOTH"
);
}
);
width = 566;
}
);
note = eight;
},
{
glyphname = nine.lf;
lastChange = "2018-03-05 12:12:02 +0000";
layers = (
{
layerId = "36D41E8E-F531-4154-A930-CD44EA9C85A7";
paths = (
{
closed = 1;
nodes = (
"142 0 LINE",
"500 348 LINE",
"499 348 LINE",
"531 383 OFFCURVE",
"555 426 OFFCURVE",
"565 471 CURVE SMOOTH",
"594 595 OFFCURVE",
"513 695 OFFCURVE",
"384 695 CURVE SMOOTH",
"255 695 OFFCURVE",
"128 595 OFFCURVE",
"99 471 CURVE SMOOTH",
"69 340 OFFCURVE",
"161 234 OFFCURVE",
"303 246 CURVE",
"286 280 LINE",
"1 0 LINE"
);
},
{
closed = 1;
nodes = (
"235 351 OFFCURVE",
"197 404 OFFCURVE",
"212 471 CURVE SMOOTH",
"227 537 OFFCURVE",
"291 590 OFFCURVE",
"360 590 CURVE SMOOTH",
"429 590 OFFCURVE",
"467 537 OFFCURVE",
"452 471 CURVE SMOOTH",
"437 404 OFFCURVE",
"373 351 OFFCURVE",
"304 351 CURVE SMOOTH"
);
}
);
width = 566;
}
);
note = nine;
},
{
glyphname = zero.osf;
lastChange = "2018-03-05 13:15:33 +0000";
layers = (
{
layerId = "36D41E8E-F531-4154-A930-CD44EA9C85A7";
paths = (
{
closed = 1;
nodes = (
"400 -18 OFFCURVE",
"525 92 OFFCURVE",
"563 260 CURVE SMOOTH",
"601 422 OFFCURVE",
"527 532 OFFCURVE",
"378 535 CURVE",
"227 532 OFFCURVE",
"101 422 OFFCURVE",
"63 260 CURVE SMOOTH",
"25 93 OFFCURVE",
"100 -17 OFFCURVE",
"251 -15 CURVE SMOOTH"
);
},
{
closed = 1;
nodes = (
"192 88 OFFCURVE",
"152 157 OFFCURVE",
"175 260 CURVE SMOOTH",
"199 364 OFFCURVE",
"271 433 OFFCURVE",
"354 433 CURVE SMOOTH",
"437 433 OFFCURVE",
"475 364 OFFCURVE",
"451 260 CURVE SMOOTH",
"428 157 OFFCURVE",
"358 88 OFFCURVE",
"275 88 CURVE SMOOTH"
);
}
);
width = 626;
}
);
note = zero;
},
{
glyphname = one.osf;
lastChange = "2018-03-05 13:15:46 +0000";
layers = (
{
anchors = (
{
name = ogonek;
position = "{327, 10}";
},
{
name = top;
position = "{366, 679}";
}
);
layerId = "36D41E8E-F531-4154-A930-CD44EA9C85A7";
paths = (
{
closed = 1;
nodes = (
"405 0 LINE",
"427 96 LINE",
"285 96 LINE",
"383 517 LINE",
"114 517 LINE",
"92 422 LINE",
"252 422 LINE",
"176 96 LINE",
"16 96 LINE",
"-6 0 LINE"
);
}
);
width = 528;
}
);
note = one;
},
{
glyphname = two.osf;
lastChange = "2018-03-05 13:15:35 +0000";
layers = (
{
layerId = "36D41E8E-F531-4154-A930-CD44EA9C85A7";
paths = (
{
closed = 1;
nodes = (
"429 0 LINE",
"451 96 LINE",
"217 96 LINE",
"397 255 LINE SMOOTH",
"431 286 OFFCURVE",
"458 326 OFFCURVE",
"468 370 CURVE SMOOTH",
"490 465 OFFCURVE",
"427 544 OFFCURVE",
"327 544 CURVE SMOOTH",
"227 544 OFFCURVE",
"128 465 OFFCURVE",
"106 370 CURVE SMOOTH",
"85 282 OFFCURVE",
"135 210 OFFCURVE",
"218 197 CURVE",
"4 1 LINE",
"64 1 LINE",
"62 0 LINE"
);
},
{
closed = 1;
nodes = (
"222 289 OFFCURVE",
"196 325 OFFCURVE",
"207 370 CURVE SMOOTH",
"217 413 OFFCURVE",
"259 450 OFFCURVE",
"305 450 CURVE SMOOTH",
"351 450 OFFCURVE",
"377 413 OFFCURVE",
"367 370 CURVE SMOOTH",
"356 325 OFFCURVE",
"314 289 OFFCURVE",
"268 289 CURVE SMOOTH"
);
}
);
width = 552;
}
);
note = two;
},
{
glyphname = three.osf;
lastChange = "2018-03-05 13:15:37 +0000";
layers = (
{
layerId = "36D41E8E-F531-4154-A930-CD44EA9C85A7";
paths = (
{
closed = 1;
nodes = (
"306 -111 OFFCURVE",
"421 -20 OFFCURVE",
"447 92 CURVE SMOOTH",
"466 177 OFFCURVE",
"431 249 OFFCURVE",
"362 280 CURVE",
"361 280 LINE",
"497 518 LINE",
"148 518 LINE",
"128 432 LINE",
"348 432 LINE",
"216 193 LINE",
"230 198 OFFCURVE",
"246 201 OFFCURVE",
"261 201 CURVE SMOOTH",
"324 201 OFFCURVE",
"359 153 OFFCURVE",
"345 92 CURVE SMOOTH",
"331 33 OFFCURVE",
"274 -15 OFFCURVE",
"211 -15 CURVE SMOOTH",
"149 -15 OFFCURVE",
"114 33 OFFCURVE",
"128 92 CURVE",
"25 92 LINE",
"-1 -20 OFFCURVE",
"72 -111 OFFCURVE",
"189 -111 CURVE SMOOTH"
);
}
);
width = 548;
}
);
note = three;
},
{
glyphname = four.osf;
lastChange = "2018-03-05 13:15:39 +0000";
layers = (
{
layerId = "36D41E8E-F531-4154-A930-CD44EA9C85A7";
paths = (
{
closed = 1;
nodes = (
"388 1 LINE",
"455 292 LINE",
"210 292 LINE",
"529 699 LINE",
"423 699 LINE",
"33 206 LINE",
"329 206 LINE",
"282 1 LINE"
);
}
);
width = 528;
}
);
note = four;
},
{
glyphname = five.osf;
lastChange = "2018-03-05 13:15:40 +0000";
layers = (
{
layerId = "36D41E8E-F531-4154-A930-CD44EA9C85A7";
paths = (
{
closed = 1;
nodes = (
"323 -112 OFFCURVE",
"438 -21 OFFCURVE",
"464 91 CURVE SMOOTH",
"484 176 OFFCURVE",
"449 249 OFFCURVE",
"379 279 CURVE SMOOTH",
"356 289 OFFCURVE",
"329 295 OFFCURVE",
"300 295 CURVE",
"332 431 LINE",
"537 431 LINE",
"557 517 LINE",
"253 517 LINE",
"181 206 LINE",
"223 187 LINE",
"240 195 OFFCURVE",
"258 200 OFFCURVE",
"278 200 CURVE SMOOTH",
"340 200 OFFCURVE",
"376 152 OFFCURVE",
"362 91 CURVE SMOOTH",
"349 32 OFFCURVE",
"291 -16 OFFCURVE",
"229 -16 CURVE SMOOTH",
"167 -16 OFFCURVE",
"131 32 OFFCURVE",
"144 91 CURVE",
"42 91 LINE",
"16 -21 OFFCURVE",
"89 -112 OFFCURVE",
"206 -112 CURVE SMOOTH"
);
}
);
width = 584;
}
);
note = five;
},
{
glyphname = six.osf;
lastChange = "2018-03-05 13:15:41 +0000";
layers = (
{
layerId = "36D41E8E-F531-4154-A930-CD44EA9C85A7";
paths = (
{
closed = 1;
nodes = (
"328 -14 OFFCURVE",
"443 77 OFFCURVE",
"469 189 CURVE SMOOTH",
"494 296 OFFCURVE",
"428 385 OFFCURVE",
"320 392 CURVE",
"566 629 LINE",
"451 629 LINE",
"137 329 LINE",
"126 320 OFFCURVE",
"116 310 OFFCURVE",
"107 300 CURVE SMOOTH",
"77 268 OFFCURVE",
"56 230 OFFCURVE",
"47 189 CURVE SMOOTH",
"21 77 OFFCURVE",
"94 -14 OFFCURVE",
"211 -14 CURVE SMOOTH"
);
},
{
closed = 1;
nodes = (
"171 81 OFFCURVE",
"136 129 OFFCURVE",
"150 189 CURVE SMOOTH",
"164 250 OFFCURVE",
"221 298 OFFCURVE",
"283 298 CURVE SMOOTH",
"346 298 OFFCURVE",
"381 250 OFFCURVE",
"367 189 CURVE SMOOTH",
"353 129 OFFCURVE",
"296 81 OFFCURVE",
"233 81 CURVE SMOOTH"
);
}
);
width = 548;
}
);
note = six;
},
{
glyphname = seven.osf;
lastChange = "2018-03-05 12:10:22 +0000";
layers = (
{
layerId = "36D41E8E-F531-4154-A930-CD44EA9C85A7";
paths = (
{
closed = 1;
nodes = (
"98 -162 LINE",
"505 517 LINE",
"105 517 LINE",
"83 422 LINE",
"333 422 LINE",
"-21 -162 LINE"
);
}
);
width = 454;
}
);
note = seven;
},
{
glyphname = eight.osf;
lastChange = "2018-03-05 13:15:43 +0000";
layers = (
{
layerId = "36D41E8E-F531-4154-A930-CD44EA9C85A7";
paths = (
{
closed = 1;
nodes = (
"341 -14 OFFCURVE",
"459 76 OFFCURVE",
"484 186 CURVE SMOOTH",
"499 252 OFFCURVE",
"478 310 OFFCURVE",
"431 346 CURVE",
"470 377 OFFCURVE",
"500 420 OFFCURVE",
"511 468 CURVE SMOOTH",
"534 564 OFFCURVE",
"471 643 OFFCURVE",
"371 643 CURVE SMOOTH",
"270 643 OFFCURVE",
"172 564 OFFCURVE",
"149 468 CURVE SMOOTH",
"138 420 OFFCURVE",
"148 377 OFFCURVE",
"173 346 CURVE",
"110 310 OFFCURVE",
"61 252 OFFCURVE",
"46 186 CURVE SMOOTH",
"21 76 OFFCURVE",
"97 -14 OFFCURVE",
"219 -14 CURVE SMOOTH"
);
},
{
closed = 1;
nodes = (
"171 74 OFFCURVE",
"133 123 OFFCURVE",
"147 185 CURVE SMOOTH",
"161 246 OFFCURVE",
"222 294 OFFCURVE",
"290 294 CURVE SMOOTH",
"357 294 OFFCURVE",
"396 246 OFFCURVE",
"382 185 CURVE SMOOTH",
"368 123 OFFCURVE",
"306 74 OFFCURVE",
"239 74 CURVE SMOOTH"
);
},
{
closed = 1;
nodes = (
"262 384 OFFCURVE",
"234 421 OFFCURVE",
"244 468 CURVE SMOOTH",
"255 516 OFFCURVE",
"301 553 OFFCURVE",
"350 553 CURVE SMOOTH",
"399 553 OFFCURVE",
"427 516 OFFCURVE",
"416 468 CURVE SMOOTH",
"406 421 OFFCURVE",
"360 384 OFFCURVE",
"311 384 CURVE SMOOTH"
);
}
);
width = 564;
}
);
note = eight;
},
{
glyphname = nine.osf;
lastChange = "2018-03-05 13:15:44 +0000";
layers = (
{
layerId = "36D41E8E-F531-4154-A930-CD44EA9C85A7";
paths = (
{
closed = 1;
nodes = (
"117 -99 LINE",
"414 190 LINE",
"424 198 OFFCURVE",
"433 207 OFFCURVE",
"441 216 CURVE SMOOTH",
"471 248 OFFCURVE",
"491 286 OFFCURVE",
"501 327 CURVE SMOOTH",
"527 439 OFFCURVE",
"454 530 OFFCURVE",
"337 530 CURVE SMOOTH",
"220 530 OFFCURVE",
"105 439 OFFCURVE",
"79 327 CURVE SMOOTH",
"54 219 OFFCURVE",
"120 130 OFFCURVE",
"229 123 CURVE",
"2 -99 LINE"
);
},
{
closed = 1;
nodes = (
"202 218 OFFCURVE",
"167 266 OFFCURVE",
"181 327 CURVE SMOOTH",
"195 387 OFFCURVE",
"252 435 OFFCURVE",
"315 435 CURVE SMOOTH",
"377 435 OFFCURVE",
"412 387 OFFCURVE",
"398 327 CURVE SMOOTH",
"384 266 OFFCURVE",
"327 218 OFFCURVE",
"265 218 CURVE SMOOTH"
);
}
);
width = 548;
}
);
note = nine;
},
{
glyphname = zero.slash.ss02;
lastChange = "2018-03-11 16:26:15 +0000";
layers = (
{
layerId = "36D41E8E-F531-4154-A930-CD44EA9C85A7";
paths = (
{
closed = 1;
nodes = (
"132 0 LINE",
"466 0 LINE",
"609 619 LINE",
"713 705 LINE",
"713 705 OFFCURVE",
"660 781 OFFCURVE",
"658 776 CURVE SMOOTH",
"658 773 OFFCURVE",
"610 734 OFFCURVE",
"566 699 CURVE",
"225 699 LINE",
"80 74 LINE",
"79 74 OFFCURVE",
"-32 -14 OFFCURVE",
"-32 -14 CURVE",
"22 -85 LINE"
);
},
{
closed = 1;
nodes = (
"319 597 LINE",
"486 597 LINE",
"372 102 LINE",
"205 102 LINE"
);
}
);
width = 649;
}
);
note = zero.slash;
},
{
glyphname = zero.slash.ss03;
lastChange = "2018-03-11 16:26:15 +0000";
layers = (
{
layerId = "36D41E8E-F531-4154-A930-CD44EA9C85A7";
paths = (
{
closed = 1;
nodes = (
"132 0 LINE",
"466 0 LINE",
"609 619 LINE",
"713 705 LINE",
"713 705 OFFCURVE",
"660 781 OFFCURVE",
"658 776 CURVE SMOOTH",
"658 773 OFFCURVE",
"610 734 OFFCURVE",
"566 699 CURVE",
"225 699 LINE",
"80 74 LINE",
"79 74 OFFCURVE",
"-32 -14 OFFCURVE",
"-32 -14 CURVE",
"22 -85 LINE"
);
},
{
closed = 1;
nodes = (
"319 597 LINE",
"486 597 LINE",
"372 102 LINE",
"205 102 LINE"
);
}
);
width = 649;
}
);
note = zero.slash;
},
{
glyphname = zero.slash.tosf;
lastChange = "2018-03-05 12:45:17 +0000";
layers = (
{
components = (
{
name = zero.tosf;
}
);
layerId = "36D41E8E-F531-4154-A930-CD44EA9C85A7";
paths = (
{
closed = 1;
nodes = (
"251 -57 LINE",
"531 570 LINE",
"414 570 LINE",
"134 -57 LINE"
);
}
);
width = 660;
}
);
},
{
glyphname = zero.ss02;
lastChange = "2018-03-11 16:26:15 +0000";
layers = (
{
layerId = "36D41E8E-F531-4154-A930-CD44EA9C85A7";
paths = (
{
closed = 1;
nodes = (
"471 0 LINE",
"472 1 LINE",
"609 597 LINE",
"633 699 LINE",
"230 699 LINE",
"69 1 LINE",
"108 1 LINE",
"107 0 LINE"
);
},
{
closed = 1;
nodes = (
"324 597 LINE",
"491 597 LINE",
"377 102 LINE",
"210 102 LINE"
);
}
);
width = 659;
}
);
note = zero;
},
{
glyphname = one.ss02;
lastChange = "2018-03-11 16:26:15 +0000";
layers = (
{
layerId = "36D41E8E-F531-4154-A930-CD44EA9C85A7";
paths = (
{
closed = 1;
nodes = (
"490 0 LINE",
"514 103 LINE",
"350 103 LINE",
"487 698 LINE",
"180 698 LINE",
"157 596 LINE",
"347 596 LINE",
"233 103 LINE",
"43 103 LINE",
"19 0 LINE"
);
}
);
width = 602;
}
);
note = one;
},
{
glyphname = two.ss02;
lastChange = "2018-03-11 16:26:15 +0000";
layers = (
{
layerId = "36D41E8E-F531-4154-A930-CD44EA9C85A7";
paths = (
{
closed = 1;
nodes = (
"152 1 LINE",
"612 508 LINE",
"638 622 OFFCURVE",
"543 714 OFFCURVE",
"429 714 CURVE SMOOTH",
"315 714 OFFCURVE",
"202 622 OFFCURVE",
"176 508 CURVE",
"284 508 LINE",
"296 560 OFFCURVE",
"349 602 OFFCURVE",
"403 602 CURVE SMOOTH",
"457 602 OFFCURVE",
"492 560 OFFCURVE",
"480 508 CURVE",
"479 508 LINE",
"16 1 LINE"
);
}
);
width = 600;
}
);
note = two;
},
{
glyphname = three.ss02;
lastChange = "2018-03-11 16:26:15 +0000";
layers = (
{
layerId = "36D41E8E-F531-4154-A930-CD44EA9C85A7";
paths = (
{
closed = 1;
nodes = (
"341 -15 OFFCURVE",
"465 86 OFFCURVE",
"494 210 CURVE SMOOTH",
"513 291 OFFCURVE",
"490 352 OFFCURVE",
"427 385 CURVE",
"500 699 LINE",
"205 699 LINE",
"181 597 LINE",
"359 597 LINE",
"295 317 LINE",
"363 317 OFFCURVE",
"393 267 OFFCURVE",
"379 206 CURVE SMOOTH",
"365 145 OFFCURVE",
"303 96 OFFCURVE",
"243 96 CURVE SMOOTH",
"182 96 OFFCURVE",
"144 147 OFFCURVE",
"158 208 CURVE",
"44 208 LINE",
"16 84 OFFCURVE",
"94 -15 OFFCURVE",
"218 -15 CURVE SMOOTH"
);
}
);
width = 586;
}
);
note = three;
},
{
glyphname = four.ss02;
lastChange = "2018-03-11 16:26:15 +0000";
layers = (
{
layerId = "36D41E8E-F531-4154-A930-CD44EA9C85A7";
paths = (
{
closed = 1;
nodes = (
"421 1 LINE",
"496 328 LINE",
"218 328 LINE",
"467 699 LINE",
"350 699 LINE",
"104 337 LINE",
"79 227 LINE",
"356 227 LINE",
"304 1 LINE"
);
}
);
width = 609;
}
);
note = four;
},
{
glyphname = five.ss02;
lastChange = "2018-03-11 16:26:15 +0000";
layers = (
{
layerId = "36D41E8E-F531-4154-A930-CD44EA9C85A7";
paths = (
{
closed = 1;
nodes = (
"349 -15 OFFCURVE",
"465 79 OFFCURVE",
"491 195 CURVE SMOOTH",
"518 310 OFFCURVE",
"446 404 OFFCURVE",
"331 404 CURVE SMOOTH",
"319 404 OFFCURVE",
"306 403 OFFCURVE",
"295 401 CURVE",
"340 597 LINE",
"532 597 LINE",
"556 699 LINE",
"247 699 LINE",
"164 340 LINE",
"119 302 OFFCURVE",
"85 249 OFFCURVE",
"72 193 CURVE",
"188 193 LINE",
"200 246 OFFCURVE",
"252 287 OFFCURVE",
"304 287 CURVE SMOOTH",
"356 287 OFFCURVE",
"388 244 OFFCURVE",
"376 192 CURVE SMOOTH",
"363 139 OFFCURVE",
"311 96 OFFCURVE",
"259 96 CURVE",
"234 -15 LINE"
);
}
);
width = 600;
}
);
note = five;
},
{
glyphname = six.ss02;
lastChange = "2018-03-11 16:26:15 +0000";
layers = (
{
layerId = "36D41E8E-F531-4154-A930-CD44EA9C85A7";
paths = (
{
closed = 1;
nodes = (
"349 -15 OFFCURVE",
"462 77 OFFCURVE",
"488 190 CURVE SMOOTH",
"516 310 OFFCURVE",
"451 383 OFFCURVE",
"334 394 CURVE SMOOTH",
"288 399 OFFCURVE",
"274 451 OFFCURVE",
"287 504 CURVE SMOOTH",
"301 567 OFFCURVE",
"361 614 OFFCURVE",
"421 614 CURVE",
"444 714 LINE",
"328 714 OFFCURVE",
"209 620 OFFCURVE",
"183 504 CURVE SMOOTH",
"170 449 OFFCURVE",
"177 393 OFFCURVE",
"210 361 CURVE",
"146 324 OFFCURVE",
"95 261 OFFCURVE",
"78 190 CURVE SMOOTH",
"52 77 OFFCURVE",
"123 -15 OFFCURVE",
"236 -15 CURVE SMOOTH"
);
},
{
closed = 1;
nodes = (
"210 94 OFFCURVE",
"178 137 OFFCURVE",
"190 190 CURVE SMOOTH",
"202 243 OFFCURVE",
"254 286 OFFCURVE",
"305 286 CURVE SMOOTH",
"357 286 OFFCURVE",
"389 243 OFFCURVE",
"377 190 CURVE SMOOTH",
"365 137 OFFCURVE",
"313 94 OFFCURVE",
"261 94 CURVE SMOOTH"
);
}
);
width = 595;
}
);
note = six;
},
{
glyphname = seven.ss02;
lastChange = "2018-03-11 16:26:15 +0000";
layers = (
{
layerId = "36D41E8E-F531-4154-A930-CD44EA9C85A7";
paths = (
{
closed = 1;
nodes = (
"218 0 LINE",
"559 610 LINE",
"559 610 LINE",
"579 698 LINE",
"195 698 LINE",
"175 610 LINE",
"255 275 LINE",
"101 0 LINE"
);
},
{
closed = 1;
nodes = (
"281 596 LINE",
"439 596 LINE",
"324 393 LINE"
);
}
);
width = 568;
}
);
note = seven;
},
{
glyphname = eight.ss02;
lastChange = "2018-03-11 16:26:15 +0000";
layers = (
{
layerId = "36D41E8E-F531-4154-A930-CD44EA9C85A7";
paths = (
{
closed = 1;
nodes = (
"325 -15 OFFCURVE",
"438 77 OFFCURVE",
"464 190 CURVE SMOOTH",
"482 268 OFFCURVE",
"453 337 OFFCURVE",
"396 371 CURVE",
"545 596 LINE",
"568 698 LINE",
"184 698 LINE",
"161 596 LINE",
"206 371 LINE",
"133 337 OFFCURVE",
"73 268 OFFCURVE",
"55 190 CURVE SMOOTH",
"29 77 OFFCURVE",
"99 -15 OFFCURVE",
"212 -15 CURVE SMOOTH"
);
},
{
closed = 1;
nodes = (
"186 93 OFFCURVE",
"154 136 OFFCURVE",
"166 190 CURVE SMOOTH",
"178 243 OFFCURVE",
"230 286 OFFCURVE",
"281 286 CURVE SMOOTH",
"333 286 OFFCURVE",
"364 243 OFFCURVE",
"352 190 CURVE SMOOTH",
"340 136 OFFCURVE",
"289 93 OFFCURVE",
"237 93 CURVE SMOOTH"
);
},
{
closed = 1;
nodes = (
"267 596 LINE",
"440 596 LINE",
"303 378 LINE"
);
}
);
width = 550;
}
);
note = eight;
},
{
glyphname = nine.ss02;
lastChange = "2018-03-11 16:26:15 +0000";
layers = (
{
layerId = "36D41E8E-F531-4154-A930-CD44EA9C85A7";
paths = (
{
closed = 1;
nodes = (
"406 0 LINE",
"489 359 LINE",
"534 397 OFFCURVE",
"568 450 OFFCURVE",
"581 506 CURVE",
"465 506 LINE",
"453 453 OFFCURVE",
"401 412 OFFCURVE",
"349 412 CURVE SMOOTH",
"297 412 OFFCURVE",
"265 455 OFFCURVE",
"277 507 CURVE SMOOTH",
"290 560 OFFCURVE",
"342 603 OFFCURVE",
"394 603 CURVE",
"419 714 LINE",
"303 714 OFFCURVE",
"188 620 OFFCURVE",
"162 504 CURVE SMOOTH",
"135 388 OFFCURVE",
"206 295 OFFCURVE",
"322 295 CURVE SMOOTH",
"334 295 OFFCURVE",
"346 296 OFFCURVE",
"358 297 CURVE",
"313 102 LINE",
"121 102 LINE",
"97 0 LINE"
);
}
);
width = 626;
}
);
note = nine;
},
{
glyphname = zero.ss03;
lastChange = "2018-03-11 16:26:15 +0000";
layers = (
{
layerId = "36D41E8E-F531-4154-A930-CD44EA9C85A7";
paths = (
{
closed = 1;
nodes = (
"471 0 LINE",
"472 1 LINE",
"609 597 LINE",
"633 699 LINE",
"230 699 LINE",
"69 1 LINE",
"108 1 LINE",
"107 0 LINE"
);
},
{
closed = 1;
nodes = (
"324 597 LINE",
"491 597 LINE",
"377 102 LINE",
"210 102 LINE"
);
}
);
width = 659;
}
);
note = zero;
},
{
glyphname = one.ss03;
lastChange = "2018-03-11 16:26:15 +0000";
layers = (
{
layerId = "36D41E8E-F531-4154-A930-CD44EA9C85A7";
paths = (
{
closed = 1;
nodes = (
"490 0 LINE",
"514 103 LINE",
"350 103 LINE",
"487 698 LINE",
"180 698 LINE",
"157 596 LINE",
"347 596 LINE",
"233 103 LINE",
"43 103 LINE",
"19 0 LINE"
);
}
);
width = 602;
}
);
note = one;
},
{
glyphname = two.ss03;
lastChange = "2018-03-11 16:26:15 +0000";
layers = (
{
layerId = "36D41E8E-F531-4154-A930-CD44EA9C85A7";
paths = (
{
closed = 1;
nodes = (
"152 1 LINE",
"612 508 LINE",
"638 622 OFFCURVE",
"543 714 OFFCURVE",
"429 714 CURVE SMOOTH",
"315 714 OFFCURVE",
"202 622 OFFCURVE",
"176 508 CURVE",
"284 508 LINE",
"296 560 OFFCURVE",
"349 602 OFFCURVE",
"403 602 CURVE SMOOTH",
"457 602 OFFCURVE",
"492 560 OFFCURVE",
"480 508 CURVE",
"479 508 LINE",
"16 1 LINE"
);
}
);
width = 600;
}
);
note = two;
},
{
glyphname = three.ss03;
lastChange = "2018-03-11 16:26:15 +0000";
layers = (
{
layerId = "36D41E8E-F531-4154-A930-CD44EA9C85A7";
paths = (
{
closed = 1;
nodes = (
"341 -15 OFFCURVE",
"465 86 OFFCURVE",
"494 210 CURVE SMOOTH",
"513 291 OFFCURVE",
"490 352 OFFCURVE",
"427 385 CURVE",
"500 699 LINE",
"205 699 LINE",
"181 597 LINE",
"359 597 LINE",
"295 317 LINE",
"363 317 OFFCURVE",
"393 267 OFFCURVE",
"379 206 CURVE SMOOTH",
"365 145 OFFCURVE",
"303 96 OFFCURVE",
"243 96 CURVE SMOOTH",
"182 96 OFFCURVE",
"144 147 OFFCURVE",
"158 208 CURVE",
"44 208 LINE",
"16 84 OFFCURVE",
"94 -15 OFFCURVE",
"218 -15 CURVE SMOOTH"
);
}
);
width = 586;
}
);
note = three;
},
{
glyphname = four.ss03;
lastChange = "2018-03-11 16:26:15 +0000";
layers = (
{
layerId = "36D41E8E-F531-4154-A930-CD44EA9C85A7";
paths = (
{
closed = 1;
nodes = (
"421 1 LINE",
"496 328 LINE",
"218 328 LINE",
"467 699 LINE",
"350 699 LINE",
"104 337 LINE",
"79 227 LINE",
"356 227 LINE",
"304 1 LINE"
);
}
);
width = 609;
}
);
note = four;
},
{
glyphname = five.ss03;
lastChange = "2018-03-11 16:26:15 +0000";
layers = (
{
layerId = "36D41E8E-F531-4154-A930-CD44EA9C85A7";
paths = (
{
closed = 1;
nodes = (
"349 -15 OFFCURVE",
"465 79 OFFCURVE",
"491 195 CURVE SMOOTH",
"518 310 OFFCURVE",
"446 404 OFFCURVE",
"331 404 CURVE SMOOTH",
"319 404 OFFCURVE",
"306 403 OFFCURVE",
"295 401 CURVE",
"340 597 LINE",
"532 597 LINE",
"556 699 LINE",
"247 699 LINE",
"164 340 LINE",
"119 302 OFFCURVE",
"85 249 OFFCURVE",
"72 193 CURVE",
"188 193 LINE",
"200 246 OFFCURVE",
"252 287 OFFCURVE",
"304 287 CURVE SMOOTH",
"356 287 OFFCURVE",
"388 244 OFFCURVE",
"376 192 CURVE SMOOTH",
"363 139 OFFCURVE",
"311 96 OFFCURVE",
"259 96 CURVE",
"234 -15 LINE"
);
}
);
width = 600;
}
);
note = five;
},
{
glyphname = six.ss03;
lastChange = "2018-03-11 16:26:15 +0000";
layers = (
{
layerId = "36D41E8E-F531-4154-A930-CD44EA9C85A7";
paths = (
{
closed = 1;
nodes = (
"349 -15 OFFCURVE",
"462 77 OFFCURVE",
"488 190 CURVE SMOOTH",
"516 310 OFFCURVE",
"451 383 OFFCURVE",
"334 394 CURVE SMOOTH",
"288 399 OFFCURVE",
"274 451 OFFCURVE",
"287 504 CURVE SMOOTH",
"301 567 OFFCURVE",
"361 614 OFFCURVE",
"421 614 CURVE",
"444 714 LINE",
"328 714 OFFCURVE",
"209 620 OFFCURVE",
"183 504 CURVE SMOOTH",
"170 449 OFFCURVE",
"177 393 OFFCURVE",
"210 361 CURVE",
"146 324 OFFCURVE",
"95 261 OFFCURVE",
"78 190 CURVE SMOOTH",
"52 77 OFFCURVE",
"123 -15 OFFCURVE",
"236 -15 CURVE SMOOTH"
);
},
{
closed = 1;
nodes = (
"210 94 OFFCURVE",
"178 137 OFFCURVE",
"190 190 CURVE SMOOTH",
"202 243 OFFCURVE",
"254 286 OFFCURVE",
"305 286 CURVE SMOOTH",
"357 286 OFFCURVE",
"389 243 OFFCURVE",
"377 190 CURVE SMOOTH",
"365 137 OFFCURVE",
"313 94 OFFCURVE",
"261 94 CURVE SMOOTH"
);
}
);
width = 595;
}
);
note = six;
},
{
glyphname = seven.ss03;
lastChange = "2018-03-11 16:26:15 +0000";
layers = (
{
layerId = "36D41E8E-F531-4154-A930-CD44EA9C85A7";
paths = (
{
closed = 1;
nodes = (
"218 0 LINE",
"559 610 LINE",
"559 610 LINE",
"579 698 LINE",
"195 698 LINE",
"175 610 LINE",
"255 275 LINE",
"101 0 LINE"
);
},
{
closed = 1;
nodes = (
"281 596 LINE",
"439 596 LINE",
"324 393 LINE"
);
}
);
width = 568;
}
);
note = seven;
},
{
glyphname = eight.ss03;
lastChange = "2018-03-11 16:26:15 +0000";
layers = (
{
layerId = "36D41E8E-F531-4154-A930-CD44EA9C85A7";
paths = (
{
closed = 1;
nodes = (
"325 -15 OFFCURVE",
"438 77 OFFCURVE",
"464 190 CURVE SMOOTH",
"482 268 OFFCURVE",
"453 337 OFFCURVE",
"396 371 CURVE",
"545 596 LINE",
"568 698 LINE",
"184 698 LINE",
"161 596 LINE",
"206 371 LINE",
"133 337 OFFCURVE",
"73 268 OFFCURVE",
"55 190 CURVE SMOOTH",
"29 77 OFFCURVE",
"99 -15 OFFCURVE",
"212 -15 CURVE SMOOTH"
);
},
{
closed = 1;
nodes = (
"186 93 OFFCURVE",
"154 136 OFFCURVE",
"166 190 CURVE SMOOTH",
"178 243 OFFCURVE",
"230 286 OFFCURVE",
"281 286 CURVE SMOOTH",
"333 286 OFFCURVE",
"364 243 OFFCURVE",
"352 190 CURVE SMOOTH",
"340 136 OFFCURVE",
"289 93 OFFCURVE",
"237 93 CURVE SMOOTH"
);
},
{
closed = 1;
nodes = (
"267 596 LINE",
"440 596 LINE",
"303 378 LINE"
);
}
);
width = 550;
}
);
note = eight;
},
{
glyphname = nine.ss03;
lastChange = "2018-03-11 16:26:15 +0000";
layers = (
{
layerId = "36D41E8E-F531-4154-A930-CD44EA9C85A7";
paths = (
{
closed = 1;
nodes = (
"406 0 LINE",
"489 359 LINE",
"534 397 OFFCURVE",
"568 450 OFFCURVE",
"581 506 CURVE",
"465 506 LINE",
"453 453 OFFCURVE",
"401 412 OFFCURVE",
"349 412 CURVE SMOOTH",
"297 412 OFFCURVE",
"265 455 OFFCURVE",
"277 507 CURVE SMOOTH",
"290 560 OFFCURVE",
"342 603 OFFCURVE",
"394 603 CURVE",
"419 714 LINE",
"303 714 OFFCURVE",
"188 620 OFFCURVE",
"162 504 CURVE SMOOTH",
"135 388 OFFCURVE",
"206 295 OFFCURVE",
"322 295 CURVE SMOOTH",
"334 295 OFFCURVE",
"346 296 OFFCURVE",
"358 297 CURVE",
"313 102 LINE",
"121 102 LINE",
"97 0 LINE"
);
}
);
width = 626;
}
);
note = nine;
},
{
glyphname = zero.tf;
lastChange = "2018-03-05 12:12:18 +0000";
layers = (
{
layerId = "36D41E8E-F531-4154-A930-CD44EA9C85A7";
paths = (
{
closed = 1;
nodes = (
"409 -18 OFFCURVE",
"527 146 OFFCURVE",
"569 340 CURVE",
"617 534 OFFCURVE",
"573 692 OFFCURVE",
"402 695 CURVE SMOOTH",
"229 692 OFFCURVE",
"111 534 OFFCURVE",
"69 340 CURVE SMOOTH",
"21 146 OFFCURVE",
"65 -18 OFFCURVE",
"238 -15 CURVE SMOOTH"
);
},
{
closed = 1;
nodes = (
"144 88 OFFCURVE",
"156 232 OFFCURVE",
"181 340 CURVE SMOOTH",
"206 447 OFFCURVE",
"260 593 OFFCURVE",
"378 593 CURVE SMOOTH",
"496 593 OFFCURVE",
"482 447 OFFCURVE",
"457 340 CURVE SMOOTH",
"432 232 OFFCURVE",
"380 88 OFFCURVE",
"262 88 CURVE SMOOTH"
);
}
);
width = 600;
}
);
note = zero;
},
{
glyphname = one.tf;
lastChange = "2018-03-05 12:12:18 +0000";
layers = (
{
anchors = (
{
name = ogonek;
position = "{343, 10}";
},
{
name = top;
position = "{382, 679}";
}
);
layerId = "36D41E8E-F531-4154-A930-CD44EA9C85A7";
paths = (
{
closed = 1;
nodes = (
"421 0 LINE",
"443 96 LINE",
"301 96 LINE",
"436 679 LINE",
"167 679 LINE",
"145 584 LINE",
"305 584 LINE",
"192 96 LINE",
"32 96 LINE",
"10 0 LINE"
);
}
);
width = 531;
}
);
note = one;
},
{
glyphname = two.tf;
lastChange = "2018-03-05 12:12:18 +0000";
layers = (
{
layerId = "36D41E8E-F531-4154-A930-CD44EA9C85A7";
paths = (
{
closed = 1;
nodes = (
"466 0 LINE",
"488 96 LINE",
"227 96 LINE",
"493 344 LINE",
"536 381 OFFCURVE",
"569 431 OFFCURVE",
"582 486 CURVE SMOOTH",
"609 603 OFFCURVE",
"532 699 OFFCURVE",
"410 699 CURVE SMOOTH",
"288 699 OFFCURVE",
"167 603 OFFCURVE",
"140 486 CURVE SMOOTH",
"114 375 OFFCURVE",
"180 285 OFFCURVE",
"290 274 CURVE",
"1 1 LINE",
"61 1 LINE",
"59 0 LINE"
);
},
{
closed = 1;
nodes = (
"272 376 OFFCURVE",
"236 425 OFFCURVE",
"251 486 CURVE SMOOTH",
"265 547 OFFCURVE",
"323 596 OFFCURVE",
"386 596 CURVE SMOOTH",
"449 596 OFFCURVE",
"485 547 OFFCURVE",
"471 486 CURVE SMOOTH",
"456 425 OFFCURVE",
"398 376 OFFCURVE",
"335 376 CURVE SMOOTH"
);
}
);
width = 599;
}
);
note = two;
},
{
glyphname = three.tf;
lastChange = "2018-03-05 12:12:18 +0000";
layers = (
{
layerId = "36D41E8E-F531-4154-A930-CD44EA9C85A7";
paths = (
{
closed = 1;
nodes = (
"369 -15 OFFCURVE",
"496 85 OFFCURVE",
"525 209 CURVE SMOOTH",
"546 302 OFFCURVE",
"507 382 OFFCURVE",
"430 416 CURVE",
"429 416 LINE",
"580 679 LINE",
"194 679 LINE",
"172 584 LINE",
"417 584 LINE",
"269 320 LINE",
"286 326 OFFCURVE",
"302 329 OFFCURVE",
"319 329 CURVE SMOOTH",
"388 329 OFFCURVE",
"427 276 OFFCURVE",
"412 209 CURVE SMOOTH",
"396 143 OFFCURVE",
"333 90 OFFCURVE",
"264 90 CURVE SMOOTH",
"195 90 OFFCURVE",
"156 143 OFFCURVE",
"172 209 CURVE",
"59 209 LINE",
"30 85 OFFCURVE",
"111 -15 OFFCURVE",
"240 -15 CURVE SMOOTH"
);
}
);
width = 586;
}
);
note = three;
},
{
glyphname = four.tf;
lastChange = "2018-03-05 12:12:18 +0000";
layers = (
{
layerId = "36D41E8E-F531-4154-A930-CD44EA9C85A7";
paths = (
{
closed = 1;
nodes = (
"435 1 LINE",
"508 321 LINE",
"188 321 LINE",
"217 283 LINE",
"527 679 LINE",
"400 679 LINE",
"43 227 LINE",
"370 227 LINE",
"318 1 LINE"
);
}
);
width = 574;
}
);
note = four;
},
{
glyphname = five.tf;
lastChange = "2018-03-05 12:12:18 +0000";
layers = (
{
layerId = "36D41E8E-F531-4154-A930-CD44EA9C85A7";
paths = (
{
closed = 1;
nodes = (
"349 -15 OFFCURVE",
"476 85 OFFCURVE",
"505 209 CURVE SMOOTH",
"526 302 OFFCURVE",
"487 382 OFFCURVE",
"410 416 CURVE SMOOTH",
"385 428 OFFCURVE",
"356 434 OFFCURVE",
"324 434 CURVE",
"358 584 LINE",
"584 584 LINE",
"606 679 LINE",
"271 679 LINE",
"192 336 LINE",
"239 315 LINE",
"257 324 OFFCURVE",
"277 329 OFFCURVE",
"299 329 CURVE SMOOTH",
"368 329 OFFCURVE",
"407 276 OFFCURVE",
"392 209 CURVE SMOOTH",
"376 143 OFFCURVE",
"313 90 OFFCURVE",
"244 90 CURVE SMOOTH",
"175 90 OFFCURVE",
"136 143 OFFCURVE",
"152 209 CURVE",
"39 209 LINE",
"10 85 OFFCURVE",
"91 -15 OFFCURVE",
"220 -15 CURVE SMOOTH"
);
}
);
width = 566;
}
);
note = five;
},
{
glyphname = six.tf;
lastChange = "2018-03-05 12:12:18 +0000";
layers = (
{
layerId = "36D41E8E-F531-4154-A930-CD44EA9C85A7";
paths = (
{
closed = 1;
nodes = (
"369 -14 OFFCURVE",
"496 86 OFFCURVE",
"525 210 CURVE SMOOTH",
"552 327 OFFCURVE",
"482 423 OFFCURVE",
"367 434 CURVE",
"615 679 LINE",
"481 679 LINE",
"159 365 LINE",
"109 315 OFFCURVE",
"73 270 OFFCURVE",
"59 210 CURVE SMOOTH",
"30 86 OFFCURVE",
"111 -14 OFFCURVE",
"240 -14 CURVE SMOOTH"
);
},
{
closed = 1;
nodes = (
"195 91 OFFCURVE",
"157 144 OFFCURVE",
"172 210 CURVE SMOOTH",
"187 277 OFFCURVE",
"251 330 OFFCURVE",
"320 330 CURVE SMOOTH",
"389 330 OFFCURVE",
"427 277 OFFCURVE",
"412 210 CURVE SMOOTH",
"397 144 OFFCURVE",
"333 91 OFFCURVE",
"264 91 CURVE SMOOTH"
);
}
);
width = 606;
}
);
note = six;
},
{
glyphname = seven.tf;
lastChange = "2018-03-11 15:43:31 +0000";
layers = (
{
layerId = "36D41E8E-F531-4154-A930-CD44EA9C85A7";
paths = (
{
closed = 1;
nodes = (
"160 0 LINE",
"567 679 LINE",
"167 679 LINE",
"145 584 LINE",
"444 584 LINE",
"411 626 LINE",
"32 0 LINE"
);
}
);
width = 530;
}
);
note = seven;
},
{
glyphname = eight.tf;
lastChange = "2018-03-11 15:43:32 +0000";
layers = (
{
layerId = "36D41E8E-F531-4154-A930-CD44EA9C85A7";
paths = (
{
closed = 1;
nodes = (
"352 -14 OFFCURVE",
"479 83 OFFCURVE",
"507 202 CURVE SMOOTH",
"523 273 OFFCURVE",
"500 336 OFFCURVE",
"450 375 CURVE",
"493 409 OFFCURVE",
"525 456 OFFCURVE",
"537 508 CURVE SMOOTH",
"561 612 OFFCURVE",
"493 697 OFFCURVE",
"384 697 CURVE SMOOTH",
"275 697 OFFCURVE",
"169 612 OFFCURVE",
"145 508 CURVE SMOOTH",
"133 456 OFFCURVE",
"143 409 OFFCURVE",
"170 375 CURVE",
"102 336 OFFCURVE",
"49 273 OFFCURVE",
"33 202 CURVE SMOOTH",
"5 83 OFFCURVE",
"88 -14 OFFCURVE",
"220 -14 CURVE SMOOTH"
);
},
{
closed = 1;
nodes = (
"169 81 OFFCURVE",
"127 134 OFFCURVE",
"143 201 CURVE SMOOTH",
"158 267 OFFCURVE",
"224 319 OFFCURVE",
"297 319 CURVE SMOOTH",
"370 319 OFFCURVE",
"412 267 OFFCURVE",
"397 201 CURVE SMOOTH",
"381 134 OFFCURVE",
"315 81 OFFCURVE",
"242 81 CURVE SMOOTH"
);
},
{
closed = 1;
nodes = (
"267 417 OFFCURVE",
"236 457 OFFCURVE",
"248 508 CURVE SMOOTH",
"260 560 OFFCURVE",
"309 600 OFFCURVE",
"362 600 CURVE SMOOTH",
"415 600 OFFCURVE",
"446 560 OFFCURVE",
"434 508 CURVE SMOOTH",
"422 457 OFFCURVE",
"373 417 OFFCURVE",
"320 417 CURVE SMOOTH"
);
}
);
width = 566;
}
);
note = eight;
},
{
glyphname = nine.tf;
lastChange = "2018-03-05 12:12:18 +0000";
layers = (
{
layerId = "36D41E8E-F531-4154-A930-CD44EA9C85A7";
paths = (
{
closed = 1;
nodes = (
"142 0 LINE",
"500 348 LINE",
"499 348 LINE",
"531 383 OFFCURVE",
"555 426 OFFCURVE",
"565 471 CURVE SMOOTH",
"594 595 OFFCURVE",
"513 695 OFFCURVE",
"384 695 CURVE SMOOTH",
"255 695 OFFCURVE",
"128 595 OFFCURVE",
"99 471 CURVE SMOOTH",
"69 340 OFFCURVE",
"161 234 OFFCURVE",
"303 246 CURVE",
"286 280 LINE",
"1 0 LINE"
);
},
{
closed = 1;
nodes = (
"235 351 OFFCURVE",
"197 404 OFFCURVE",
"212 471 CURVE SMOOTH",
"227 537 OFFCURVE",
"291 590 OFFCURVE",
"360 590 CURVE SMOOTH",
"429 590 OFFCURVE",
"467 537 OFFCURVE",
"452 471 CURVE SMOOTH",
"437 404 OFFCURVE",
"373 351 OFFCURVE",
"304 351 CURVE SMOOTH"
);
}
);
width = 566;
}
);
note = nine;
},
{
glyphname = zero.tosf;
lastChange = "2018-03-05 12:10:35 +0000";
layers = (
{
layerId = "36D41E8E-F531-4154-A930-CD44EA9C85A7";
paths = (
{
closed = 1;
nodes = (
"417 -18 OFFCURVE",
"542 92 OFFCURVE",
"580 260 CURVE SMOOTH",
"618 422 OFFCURVE",
"544 532 OFFCURVE",
"395 535 CURVE",
"244 532 OFFCURVE",
"118 422 OFFCURVE",
"80 260 CURVE SMOOTH",
"42 93 OFFCURVE",
"117 -17 OFFCURVE",
"268 -15 CURVE SMOOTH"
);
},
{
closed = 1;
nodes = (
"209 88 OFFCURVE",
"169 157 OFFCURVE",
"192 260 CURVE SMOOTH",
"216 364 OFFCURVE",
"288 433 OFFCURVE",
"371 433 CURVE SMOOTH",
"454 433 OFFCURVE",
"492 364 OFFCURVE",
"468 260 CURVE SMOOTH",
"445 157 OFFCURVE",
"375 88 OFFCURVE",
"292 88 CURVE SMOOTH"
);
}
);
width = 660;
}
);
note = zero;
},
{
glyphname = one.tosf;
lastChange = "2018-03-11 15:42:44 +0000";
layers = (
{
anchors = (
{
name = ogonek;
position = "{353, 10}";
},
{
name = top;
position = "{392, 679}";
}
);
layerId = "36D41E8E-F531-4154-A930-CD44EA9C85A7";
paths = (
{
closed = 1;
nodes = (
"431 0 LINE",
"453 96 LINE",
"311 96 LINE",
"409 517 LINE",
"140 517 LINE",
"118 422 LINE",
"278 422 LINE",
"202 96 LINE",
"42 96 LINE",
"20 0 LINE"
);
}
);
width = 571;
}
);
note = one;
},
{
glyphname = two.tosf;
lastChange = "2018-03-11 15:42:47 +0000";
layers = (
{
layerId = "36D41E8E-F531-4154-A930-CD44EA9C85A7";
paths = (
{
closed = 1;
nodes = (
"446 0 LINE",
"468 96 LINE",
"234 96 LINE",
"414 255 LINE SMOOTH",
"448 286 OFFCURVE",
"475 326 OFFCURVE",
"485 370 CURVE SMOOTH",
"507 465 OFFCURVE",
"444 544 OFFCURVE",
"344 544 CURVE SMOOTH",
"244 544 OFFCURVE",
"145 465 OFFCURVE",
"123 370 CURVE SMOOTH",
"102 282 OFFCURVE",
"152 210 OFFCURVE",
"235 197 CURVE",
"21 1 LINE",
"81 1 LINE",
"79 0 LINE"
);
},
{
closed = 1;
nodes = (
"239 289 OFFCURVE",
"213 325 OFFCURVE",
"224 370 CURVE SMOOTH",
"234 413 OFFCURVE",
"276 450 OFFCURVE",
"322 450 CURVE SMOOTH",
"368 450 OFFCURVE",
"394 413 OFFCURVE",
"384 370 CURVE SMOOTH",
"373 325 OFFCURVE",
"331 289 OFFCURVE",
"285 289 CURVE SMOOTH"
);
}
);
width = 586;
}
);
note = two;
},
{
glyphname = three.tosf;
lastChange = "2018-03-11 15:42:51 +0000";
layers = (
{
layerId = "36D41E8E-F531-4154-A930-CD44EA9C85A7";
paths = (
{
closed = 1;
nodes = (
"323 -111 OFFCURVE",
"438 -20 OFFCURVE",
"464 92 CURVE SMOOTH",
"483 177 OFFCURVE",
"448 249 OFFCURVE",
"379 280 CURVE",
"378 280 LINE",
"514 518 LINE",
"165 518 LINE",
"145 432 LINE",
"365 432 LINE",
"233 193 LINE",
"247 198 OFFCURVE",
"263 201 OFFCURVE",
"278 201 CURVE SMOOTH",
"341 201 OFFCURVE",
"376 153 OFFCURVE",
"362 92 CURVE SMOOTH",
"348 33 OFFCURVE",
"291 -15 OFFCURVE",
"228 -15 CURVE SMOOTH",
"166 -15 OFFCURVE",
"131 33 OFFCURVE",
"145 92 CURVE",
"42 92 LINE",
"16 -20 OFFCURVE",
"89 -111 OFFCURVE",
"206 -111 CURVE SMOOTH"
);
}
);
width = 582;
}
);
note = three;
},
{
glyphname = four.tosf;
lastChange = "2018-03-11 15:42:53 +0000";
layers = (
{
layerId = "36D41E8E-F531-4154-A930-CD44EA9C85A7";
paths = (
{
closed = 1;
nodes = (
"423 1 LINE",
"490 292 LINE",
"196 292 LINE",
"231 254 LINE",
"580 699 LINE",
"458 699 LINE",
"68 206 LINE",
"364 206 LINE",
"317 1 LINE"
);
}
);
width = 562;
}
);
note = four;
},
{
glyphname = five.tosf;
lastChange = "2018-03-11 15:42:56 +0000";
layers = (
{
layerId = "36D41E8E-F531-4154-A930-CD44EA9C85A7";
paths = (
{
closed = 1;
nodes = (
"322 -112 OFFCURVE",
"437 -21 OFFCURVE",
"463 91 CURVE SMOOTH",
"483 176 OFFCURVE",
"448 249 OFFCURVE",
"378 279 CURVE SMOOTH",
"355 289 OFFCURVE",
"328 295 OFFCURVE",
"299 295 CURVE",
"331 431 LINE",
"536 431 LINE",
"556 517 LINE",
"252 517 LINE",
"180 206 LINE",
"222 187 LINE",
"239 195 OFFCURVE",
"257 200 OFFCURVE",
"277 200 CURVE SMOOTH",
"339 200 OFFCURVE",
"375 152 OFFCURVE",
"361 91 CURVE SMOOTH",
"348 32 OFFCURVE",
"290 -16 OFFCURVE",
"228 -16 CURVE SMOOTH",
"166 -16 OFFCURVE",
"130 32 OFFCURVE",
"143 91 CURVE",
"41 91 LINE",
"15 -21 OFFCURVE",
"88 -112 OFFCURVE",
"205 -112 CURVE SMOOTH"
);
}
);
width = 582;
}
);
note = five;
},
{
glyphname = six.tosf;
lastChange = "2018-03-11 15:43:01 +0000";
layers = (
{
layerId = "36D41E8E-F531-4154-A930-CD44EA9C85A7";
paths = (
{
closed = 1;
nodes = (
"345 -14 OFFCURVE",
"460 77 OFFCURVE",
"486 189 CURVE SMOOTH",
"514 308 OFFCURVE",
"429 405 OFFCURVE",
"299 391 CURVE",
"314 358 LINE",
"595 629 LINE",
"468 629 LINE",
"190 364 OFFCURVE",
"131 307 OFFCURVE",
"124 300 CURVE SMOOTH",
"94 268 OFFCURVE",
"73 230 OFFCURVE",
"64 189 CURVE SMOOTH",
"38 77 OFFCURVE",
"111 -14 OFFCURVE",
"228 -14 CURVE SMOOTH"
);
},
{
closed = 1;
nodes = (
"188 81 OFFCURVE",
"153 129 OFFCURVE",
"167 189 CURVE SMOOTH",
"181 250 OFFCURVE",
"238 298 OFFCURVE",
"300 298 CURVE SMOOTH",
"363 298 OFFCURVE",
"398 250 OFFCURVE",
"384 189 CURVE SMOOTH",
"370 129 OFFCURVE",
"313 81 OFFCURVE",
"250 81 CURVE SMOOTH"
);
}
);
width = 589;
}
);
note = six;
},
{
glyphname = seven.tosf;
lastChange = "2018-03-11 15:43:04 +0000";
layers = (
{
layerId = "36D41E8E-F531-4154-A930-CD44EA9C85A7";
paths = (
{
closed = 1;
nodes = (
"133 -162 LINE",
"540 517 LINE",
"140 517 LINE",
"118 422 LINE",
"368 422 LINE",
"14 -162 LINE"
);
}
);
width = 560;
}
);
note = seven;
},
{
glyphname = eight.tosf;
lastChange = "2018-03-11 15:43:07 +0000";
layers = (
{
layerId = "36D41E8E-F531-4154-A930-CD44EA9C85A7";
paths = (
{
closed = 1;
nodes = (
"358 -14 OFFCURVE",
"476 76 OFFCURVE",
"501 186 CURVE SMOOTH",
"516 252 OFFCURVE",
"495 310 OFFCURVE",
"448 346 CURVE",
"487 377 OFFCURVE",
"517 420 OFFCURVE",
"528 468 CURVE SMOOTH",
"551 564 OFFCURVE",
"488 643 OFFCURVE",
"388 643 CURVE SMOOTH",
"287 643 OFFCURVE",
"189 564 OFFCURVE",
"166 468 CURVE SMOOTH",
"155 420 OFFCURVE",
"165 377 OFFCURVE",
"190 346 CURVE",
"127 310 OFFCURVE",
"78 252 OFFCURVE",
"63 186 CURVE SMOOTH",
"38 76 OFFCURVE",
"114 -14 OFFCURVE",
"236 -14 CURVE SMOOTH"
);
},
{
closed = 1;
nodes = (
"188 74 OFFCURVE",
"150 123 OFFCURVE",
"164 185 CURVE SMOOTH",
"178 246 OFFCURVE",
"239 294 OFFCURVE",
"307 294 CURVE SMOOTH",
"374 294 OFFCURVE",
"413 246 OFFCURVE",
"399 185 CURVE SMOOTH",
"385 123 OFFCURVE",
"323 74 OFFCURVE",
"256 74 CURVE SMOOTH"
);
},
{
closed = 1;
nodes = (
"279 384 OFFCURVE",
"251 421 OFFCURVE",
"261 468 CURVE SMOOTH",
"272 516 OFFCURVE",
"318 553 OFFCURVE",
"367 553 CURVE SMOOTH",
"416 553 OFFCURVE",
"444 516 OFFCURVE",
"433 468 CURVE SMOOTH",
"423 421 OFFCURVE",
"377 384 OFFCURVE",
"328 384 CURVE SMOOTH"
);
}
);
width = 598;
}
);
note = eight;
},
{
glyphname = nine.tosf;
lastChange = "2018-03-11 15:43:11 +0000";
layers = (
{
layerId = "36D41E8E-F531-4154-A930-CD44EA9C85A7";
paths = (
{
closed = 1;
nodes = (
"134 -99 LINE",
"159 -75 OFFCURVE",
"458 216 OFFCURVE",
"458 216 CURVE SMOOTH",
"488 248 OFFCURVE",
"508 286 OFFCURVE",
"518 327 CURVE SMOOTH",
"544 439 OFFCURVE",
"471 530 OFFCURVE",
"354 530 CURVE SMOOTH",
"237 530 OFFCURVE",
"122 439 OFFCURVE",
"96 327 CURVE SMOOTH",
"68 207 OFFCURVE",
"153 110 OFFCURVE",
"284 124 CURVE",
"268 157 LINE",
"6 -99 LINE"
);
},
{
closed = 1;
nodes = (
"219 218 OFFCURVE",
"184 266 OFFCURVE",
"198 327 CURVE SMOOTH",
"212 387 OFFCURVE",
"269 435 OFFCURVE",
"332 435 CURVE SMOOTH",
"394 435 OFFCURVE",
"429 387 OFFCURVE",
"415 327 CURVE SMOOTH",
"401 266 OFFCURVE",
"344 218 OFFCURVE",
"282 218 CURVE SMOOTH"
);
}
);
width = 582;
}
);
note = nine;
},
{
glyphname = fraction;
lastChange = "2018-03-05 12:11:03 +0000";
layers = (
{
layerId = "36D41E8E-F531-4154-A930-CD44EA9C85A7";
paths = (
{
closed = 1;
nodes = (
"54 -57 LINE",
"676 700 LINE",
"579 700 LINE",
"-43 -57 LINE"
);
}
);
width = 600;
}
);
unicode = 2044;
},
{
glyphname = onequarter;
lastChange = "2018-03-05 12:10:53 +0000";
layers = (
{
components = (
{
name = onesuperior;
},
{
name = fraction;
transform = "{1, 0, 0, 1, 33, 0}";
}
);
layerId = "36D41E8E-F531-4154-A930-CD44EA9C85A7";
paths = (
{
closed = 1;
nodes = (
"518 0 LINE",
"558 174 LINE",
"438 174 LINE",
"555 326 LINE",
"474 326 LINE",
"301 109 LINE",
"458 109 LINE",
"433 0 LINE"
);
}
);
width = 637;
}
);
unicode = 00BC;
},
{
glyphname = threequarters;
lastChange = "2018-03-05 12:10:43 +0000";
layers = (
{
components = (
{
name = fraction;
transform = "{1, 0, 0, 1, 49, 0}";
}
);
layerId = "36D41E8E-F531-4154-A930-CD44EA9C85A7";
paths = (
{
closed = 1;
nodes = (
"273 339 OFFCURVE",
"337 383 OFFCURVE",
"352 448 CURVE SMOOTH",
"363 497 OFFCURVE",
"331 536 OFFCURVE",
"290 546 CURVE",
"385 679 LINE",
"160 679 LINE",
"145 612 LINE",
"275 612 LINE",
"196 503 LINE",
"258 512 OFFCURVE",
"275 489 OFFCURVE",
"266 448 CURVE SMOOTH",
"260 422 OFFCURVE",
"237 405 OFFCURVE",
"208 405 CURVE SMOOTH",
"179 405 OFFCURVE",
"163 422 OFFCURVE",
"169 448 CURVE",
"84 448 LINE",
"69 383 OFFCURVE",
"113 339 OFFCURVE",
"193 339 CURVE SMOOTH"
);
},
{
closed = 1;
nodes = (
"532 1 LINE",
"572 175 LINE",
"452 175 LINE",
"568 327 LINE",
"487 327 LINE",
"315 110 LINE",
"472 110 LINE",
"447 1 LINE"
);
}
);
width = 653;
}
);
unicode = 00BE;
},
{
glyphname = period;
lastChange = "2018-03-11 15:19:46 +0000";
layers = (
{
layerId = "36D41E8E-F531-4154-A930-CD44EA9C85A7";
paths = (
{
closed = 1;
nodes = (
"143 -7 OFFCURVE",
"187 27 OFFCURVE",
"197 73 CURVE SMOOTH",
"207 117 OFFCURVE",
"180 153 OFFCURVE",
"136 153 CURVE SMOOTH",
"90 153 OFFCURVE",
"47 117 OFFCURVE",
"37 73 CURVE SMOOTH",
"27 27 OFFCURVE",
"53 -7 OFFCURVE",
"99 -7 CURVE SMOOTH"
);
}
);
width = 320;
}
);
leftKerningGroup = period;
note = period;
rightKerningGroup = period;
unicode = 002E;
},
{
glyphname = comma;
lastChange = "2018-03-05 12:15:15 +0000";
layers = (
{
layerId = "36D41E8E-F531-4154-A930-CD44EA9C85A7";
paths = (
{
closed = 1;
nodes = (
"27 -151 LINE",
"208 105 LINE",
"75 105 LINE",
"-75 -151 LINE"
);
}
);
width = 333;
}
);
leftKerningGroup = coma;
note = comma;
rightKerningGroup = coma;
unicode = 002C;
},
{
glyphname = colon;
lastChange = "2018-03-05 12:15:15 +0000";
layers = (
{
layerId = "36D41E8E-F531-4154-A930-CD44EA9C85A7";
paths = (
{
closed = 1;
nodes = (
"281 319 OFFCURVE",
"325 353 OFFCURVE",
"335 399 CURVE SMOOTH",
"346 443 OFFCURVE",
"318 479 OFFCURVE",
"274 479 CURVE SMOOTH",
"228 479 OFFCURVE",
"186 443 OFFCURVE",
"175 399 CURVE SMOOTH",
"165 353 OFFCURVE",
"191 319 OFFCURVE",
"237 319 CURVE SMOOTH"
);
},
{
closed = 1;
nodes = (
"206 -7 OFFCURVE",
"250 27 OFFCURVE",
"260 73 CURVE SMOOTH",
"270 117 OFFCURVE",
"243 153 OFFCURVE",
"199 153 CURVE SMOOTH",
"153 153 OFFCURVE",
"110 117 OFFCURVE",
"100 73 CURVE SMOOTH",
"90 27 OFFCURVE",
"116 -7 OFFCURVE",
"162 -7 CURVE SMOOTH"
);
}
);
width = 446;
}
);
note = colon;
unicode = 003A;
},
{
glyphname = semicolon;
lastChange = "2018-03-05 12:15:15 +0000";
layers = (
{
layerId = "36D41E8E-F531-4154-A930-CD44EA9C85A7";
paths = (
{
closed = 1;
nodes = (
"61 -151 LINE",
"242 105 LINE",
"109 105 LINE",
"-41 -151 LINE"
);
},
{
closed = 1;
nodes = (
"281 319 OFFCURVE",
"325 353 OFFCURVE",
"335 399 CURVE SMOOTH",
"346 443 OFFCURVE",
"318 479 OFFCURVE",
"274 479 CURVE SMOOTH",
"228 479 OFFCURVE",
"186 443 OFFCURVE",
"175 399 CURVE SMOOTH",
"165 353 OFFCURVE",
"191 319 OFFCURVE",
"237 319 CURVE SMOOTH"
);
}
);
width = 418;
}
);
note = semicolon;
unicode = 003B;
},
{
glyphname = ellipsis;
lastChange = "2018-03-05 12:15:15 +0000";
layers = (
{
layerId = "36D41E8E-F531-4154-A930-CD44EA9C85A7";
paths = (
{
closed = 1;
nodes = (
"155 -7 OFFCURVE",
"199 27 OFFCURVE",
"209 73 CURVE SMOOTH",
"219 117 OFFCURVE",
"192 153 OFFCURVE",
"148 153 CURVE SMOOTH",
"102 153 OFFCURVE",
"59 117 OFFCURVE",
"49 73 CURVE SMOOTH",
"39 27 OFFCURVE",
"65 -7 OFFCURVE",
"111 -7 CURVE SMOOTH"
);
},
{
closed = 1;
nodes = (
"408 -7 OFFCURVE",
"452 27 OFFCURVE",
"462 73 CURVE SMOOTH",
"472 117 OFFCURVE",
"445 153 OFFCURVE",
"401 153 CURVE SMOOTH",
"355 153 OFFCURVE",
"312 117 OFFCURVE",
"302 73 CURVE SMOOTH",
"292 27 OFFCURVE",
"318 -7 OFFCURVE",
"364 -7 CURVE SMOOTH"
);
},
{
closed = 1;
nodes = (
"663 -7 OFFCURVE",
"707 27 OFFCURVE",
"717 73 CURVE SMOOTH",
"727 117 OFFCURVE",
"700 153 OFFCURVE",
"656 153 CURVE SMOOTH",
"610 153 OFFCURVE",
"567 117 OFFCURVE",
"557 73 CURVE SMOOTH",
"547 27 OFFCURVE",
"573 -7 OFFCURVE",
"619 -7 CURVE SMOOTH"
);
}
);
width = 856;
}
);
leftKerningGroup = period;
note = ellipsis;
rightKerningGroup = period;
unicode = 2026;
},
{
glyphname = exclam;
lastChange = "2018-03-05 12:15:15 +0000";
layers = (
{
layerId = "36D41E8E-F531-4154-A930-CD44EA9C85A7";
paths = (
{
closed = 1;
nodes = (
"230 261 LINE",
"331 699 LINE",
"214 699 LINE",
"113 261 LINE"
);
},
{
closed = 1;
nodes = (
"153 -7 OFFCURVE",
"197 27 OFFCURVE",
"207 73 CURVE SMOOTH",
"217 117 OFFCURVE",
"190 153 OFFCURVE",
"146 153 CURVE SMOOTH",
"100 153 OFFCURVE",
"57 117 OFFCURVE",
"47 73 CURVE SMOOTH",
"37 27 OFFCURVE",
"63 -7 OFFCURVE",
"109 -7 CURVE SMOOTH"
);
}
);
width = 340;
}
);
note = exclam;
unicode = 0021;
},
{
glyphname = exclamdown;
lastChange = "2018-03-05 12:15:15 +0000";
layers = (
{
layerId = "36D41E8E-F531-4154-A930-CD44EA9C85A7";
paths = (
{
closed = 1;
nodes = (
"131 -175 LINE",
"232 263 LINE",
"115 263 LINE",
"14 -175 LINE"
);
},
{
closed = 1;
nodes = (
"242 371 OFFCURVE",
"286 407 OFFCURVE",
"296 451 CURVE SMOOTH",
"307 497 OFFCURVE",
"279 531 OFFCURVE",
"235 531 CURVE SMOOTH",
"189 531 OFFCURVE",
"147 497 OFFCURVE",
"136 451 CURVE SMOOTH",
"126 407 OFFCURVE",
"152 371 OFFCURVE",
"198 371 CURVE SMOOTH"
);
}
);
width = 344;
}
);
unicode = 00A1;
},
{
glyphname = question;
lastChange = "2018-03-05 12:15:15 +0000";
layers = (
{
layerId = "36D41E8E-F531-4154-A930-CD44EA9C85A7";
paths = (
{
closed = 1;
nodes = (
"188 221 LINE",
"207 300 LINE",
"282 336 OFFCURVE",
"344 406 OFFCURVE",
"363 486 CURVE SMOOTH",
"390 603 OFFCURVE",
"313 699 OFFCURVE",
"191 699 CURVE",
"167 596 LINE",
"230 596 OFFCURVE",
"266 547 OFFCURVE",
"252 486 CURVE SMOOTH",
"237 425 OFFCURVE",
"179 376 OFFCURVE",
"116 376 CURVE",
"80 221 LINE"
);
},
{
closed = 1;
nodes = (
"123 -7 OFFCURVE",
"167 27 OFFCURVE",
"177 73 CURVE SMOOTH",
"187 117 OFFCURVE",
"160 153 OFFCURVE",
"116 153 CURVE SMOOTH",
"70 153 OFFCURVE",
"27 117 OFFCURVE",
"17 73 CURVE SMOOTH",
"7 27 OFFCURVE",
"33 -7 OFFCURVE",
"79 -7 CURVE SMOOTH"
);
}
);
width = 355;
}
);
note = question;
unicode = 003F;
},
{
glyphname = questiondown;
lastChange = "2018-03-05 12:15:15 +0000";
layers = (
{
layerId = "36D41E8E-F531-4154-A930-CD44EA9C85A7";
paths = (
{
closed = 1;
nodes = (
"269 -72 LINE",
"206 -72 OFFCURVE",
"170 -23 OFFCURVE",
"184 38 CURVE SMOOTH",
"198 99 OFFCURVE",
"256 148 OFFCURVE",
"319 148 CURVE",
"355 303 LINE",
"247 303 LINE",
"229 224 LINE",
"154 188 OFFCURVE",
"92 118 OFFCURVE",
"73 38 CURVE SMOOTH",
"46 -79 OFFCURVE",
"123 -175 OFFCURVE",
"245 -175 CURVE"
);
},
{
closed = 1;
nodes = (
"366 371 OFFCURVE",
"408 407 OFFCURVE",
"418 451 CURVE SMOOTH",
"429 497 OFFCURVE",
"403 531 OFFCURVE",
"357 531 CURVE SMOOTH",
"313 531 OFFCURVE",
"269 497 OFFCURVE",
"258 451 CURVE SMOOTH",
"248 407 OFFCURVE",
"276 371 OFFCURVE",
"320 371 CURVE SMOOTH"
);
}
);
width = 529;
}
);
note = questiondown;
unicode = 00BF;
},
{
glyphname = bullet;
lastChange = "2018-03-05 12:15:15 +0000";
layers = (
{
layerId = "36D41E8E-F531-4154-A930-CD44EA9C85A7";
paths = (
{
closed = 1;
nodes = (
"231 170 OFFCURVE",
"297 223 OFFCURVE",
"312 289 CURVE SMOOTH",
"327 355 OFFCURVE",
"286 409 OFFCURVE",
"220 409 CURVE SMOOTH",
"154 409 OFFCURVE",
"88 355 OFFCURVE",
"73 289 CURVE SMOOTH",
"58 223 OFFCURVE",
"99 170 OFFCURVE",
"165 170 CURVE SMOOTH"
);
}
);
width = 371;
}
);
note = bullet;
unicode = 2022;
},
{
glyphname = asterisk;
lastChange = "2018-03-05 12:15:15 +0000";
layers = (
{
layerId = "36D41E8E-F531-4154-A930-CD44EA9C85A7";
paths = (
{
closed = 1;
nodes = (
"271 342 LINE",
"293 466 LINE",
"380 398 LINE",
"435 465 LINE",
"336 520 LINE",
"460 575 LINE",
"437 643 LINE",
"318 574 LINE",
"353 698 LINE",
"276 698 LINE",
"255 575 LINE",
"168 643 LINE",
"113 575 LINE",
"211 520 LINE",
"88 465 LINE",
"111 397 LINE",
"230 465 LINE",
"194 342 LINE"
);
}
);
width = 427;
}
);
unicode = 002A;
},
{
glyphname = numbersign;
lastChange = "2018-03-05 12:15:15 +0000";
layers = (
{
layerId = "36D41E8E-F531-4154-A930-CD44EA9C85A7";
paths = (
{
closed = 1;
nodes = (
"113 -2 LINE",
"230 188 LINE",
"331 188 LINE",
"214 -2 LINE",
"331 -2 LINE",
"448 188 LINE",
"625 188 LINE",
"648 290 LINE",
"511 290 LINE",
"563 373 LINE",
"710 373 LINE",
"734 475 LINE",
"626 475 LINE",
"733 649 LINE",
"616 649 LINE",
"509 475 LINE",
"408 475 LINE",
"515 649 LINE",
"398 649 LINE",
"291 475 LINE",
"117 475 LINE",
"93 373 LINE",
"228 373 LINE",
"176 290 LINE",
"31 290 LINE",
"8 188 LINE",
"116 188 LINE",
"-4 -2 LINE"
);
},
{
closed = 1;
nodes = (
"345 373 LINE",
"446 373 LINE",
"394 290 LINE",
"293 290 LINE"
);
}
);
width = 704;
}
);
note = numbersign;
unicode = 0023;
},
{
glyphname = slash;
lastChange = "2018-03-05 12:20:09 +0000";
layers = (
{
layerId = "36D41E8E-F531-4154-A930-CD44EA9C85A7";
paths = (
{
closed = 1;
nodes = (
"54 -57 LINE",
"557 700 LINE",
"430 700 LINE",
"-73 -57 LINE"
);
}
);
width = 455;
}
);
note = slash;
unicode = 002F;
},
{
glyphname = backslash;
lastChange = "2018-03-05 12:15:15 +0000";
layers = (
{
layerId = "36D41E8E-F531-4154-A930-CD44EA9C85A7";
paths = (
{
closed = 1;
nodes = (
"382 -57 LINE",
"219 700 LINE",
"102 700 LINE",
"265 -57 LINE"
);
}
);
width = 455;
}
);
note = backslash;
unicode = 005C;
},
{
glyphname = question.ss01;
lastChange = "2018-03-05 12:15:15 +0000";
layers = (
{
layerId = "36D41E8E-F531-4154-A930-CD44EA9C85A7";
paths = (
{
closed = 1;
nodes = (
"345 261 LINE",
"568 493 LINE",
"594 607 OFFCURVE",
"522 714 OFFCURVE",
"395 714 CURVE SMOOTH",
"281 714 OFFCURVE",
"163 622 OFFCURVE",
"137 508 CURVE",
"245 508 LINE",
"257 560 OFFCURVE",
"310 602 OFFCURVE",
"364 602 CURVE SMOOTH",
"418 602 OFFCURVE",
"453 560 OFFCURVE",
"441 508 CURVE",
"440 508 LINE",
"202 261 LINE"
);
},
{
closed = 1;
nodes = (
"252 -7 OFFCURVE",
"296 27 OFFCURVE",
"306 73 CURVE SMOOTH",
"316 117 OFFCURVE",
"289 153 OFFCURVE",
"245 153 CURVE SMOOTH",
"199 153 OFFCURVE",
"156 117 OFFCURVE",
"146 73 CURVE SMOOTH",
"136 27 OFFCURVE",
"162 -7 OFFCURVE",
"208 -7 CURVE SMOOTH"
);
}
);
width = 588;
}
);
note = question;
},
{
glyphname = questiondown.ss01;
lastChange = "2018-03-05 12:15:15 +0000";
layers = (
{
layerId = "36D41E8E-F531-4154-A930-CD44EA9C85A7";
paths = (
{
closed = 1;
nodes = (
"280 -204 OFFCURVE",
"398 -112 OFFCURVE",
"425 2 CURVE",
"317 2 LINE",
"305 -50 OFFCURVE",
"251 -92 OFFCURVE",
"197 -92 CURVE SMOOTH",
"143 -92 OFFCURVE",
"109 -50 OFFCURVE",
"121 2 CURVE",
"122 2 LINE",
"360 249 LINE",
"217 249 LINE",
"-7 17 LINE",
"-33 -97 OFFCURVE",
"39 -204 OFFCURVE",
"166 -204 CURVE SMOOTH"
);
},
{
closed = 1;
nodes = (
"363 357 OFFCURVE",
"405 393 OFFCURVE",
"415 437 CURVE SMOOTH",
"426 483 OFFCURVE",
"400 517 OFFCURVE",
"354 517 CURVE SMOOTH",
"310 517 OFFCURVE",
"266 483 OFFCURVE",
"255 437 CURVE SMOOTH",
"245 393 OFFCURVE",
"273 357 OFFCURVE",
"317 357 CURVE SMOOTH"
);
}
);
width = 529;
}
);
note = questiondown;
},
{
glyphname = parenleft;
lastChange = "2018-03-05 12:15:15 +0000";
layers = (
{
layerId = "36D41E8E-F531-4154-A930-CD44EA9C85A7";
paths = (
{
closed = 1;
nodes = (
"209 -124 LINE",
"209 -124 OFFCURVE",
"148 104 OFFCURVE",
"199 324 CURVE SMOOTH",
"250 545 OFFCURVE",
"408 750 OFFCURVE",
"408 750 CURVE SMOOTH",
"291 750 LINE SMOOTH",
"291 750 OFFCURVE",
"136 545 OFFCURVE",
"85 324 CURVE SMOOTH",
"34 104 OFFCURVE",
"90 -124 OFFCURVE",
"90 -124 CURVE"
);
}
);
width = 368;
}
);
note = parenleft;
unicode = 0028;
},
{
glyphname = parenright;
lastChange = "2018-03-05 12:15:15 +0000";
layers = (
{
layerId = "36D41E8E-F531-4154-A930-CD44EA9C85A7";
paths = (
{
closed = 1;
nodes = (
"92 -124 LINE",
"92 -124 OFFCURVE",
"252 104 OFFCURVE",
"303 324 CURVE SMOOTH",
"354 545 OFFCURVE",
"293 750 OFFCURVE",
"293 750 CURVE SMOOTH",
"186 750 LINE SMOOTH",
"186 750 OFFCURVE",
"250 545 OFFCURVE",
"199 324 CURVE SMOOTH",
"148 104 OFFCURVE",
"-17 -124 OFFCURVE",
"-17 -124 CURVE"
);
}
);
width = 358;
}
);
note = parenright;
unicode = 0029;
},
{
glyphname = braceleft;
lastChange = "2018-03-05 12:15:15 +0000";
layers = (
{
layerId = "36D41E8E-F531-4154-A930-CD44EA9C85A7";
paths = (
{
closed = 1;
nodes = (
"229 -33 LINE",
"167 -33 OFFCURVE",
"159 -6 OFFCURVE",
"176 67 CURVE SMOOTH",
"206 200 OFFCURVE",
"240 289 OFFCURVE",
"166 313 CURVE",
"251 336 OFFCURVE",
"258 424 OFFCURVE",
"289 558 CURVE SMOOTH",
"306 631 OFFCURVE",
"326 658 OFFCURVE",
"388 658 CURVE",
"409 750 LINE",
"281 748 OFFCURVE",
"223 697 OFFCURVE",
"200 598 CURVE SMOOTH",
"155 403 OFFCURVE",
"151 359 OFFCURVE",
"93 359 CURVE",
"72 266 LINE",
"130 266 OFFCURVE",
"116 232 OFFCURVE",
"69 27 CURVE SMOOTH",
"46 -72 OFFCURVE",
"80 -123 OFFCURVE",
"207 -125 CURVE"
);
}
);
width = 366;
}
);
unicode = 007B;
},
{
glyphname = braceright;
lastChange = "2018-03-05 12:15:15 +0000";
layers = (
{
layerId = "36D41E8E-F531-4154-A930-CD44EA9C85A7";
paths = (
{
closed = 1;
nodes = (
"110 -123 OFFCURVE",
"168 -72 OFFCURVE",
"191 27 CURVE SMOOTH",
"238 232 OFFCURVE",
"240 266 OFFCURVE",
"298 266 CURVE",
"319 359 LINE",
"261 359 OFFCURVE",
"277 403 OFFCURVE",
"322 598 CURVE SMOOTH",
"345 697 OFFCURVE",
"311 748 OFFCURVE",
"183 750 CURVE",
"162 658 LINE",
"224 658 OFFCURVE",
"232 631 OFFCURVE",
"215 558 CURVE SMOOTH",
"184 424 OFFCURVE",
"151 336 OFFCURVE",
"226 313 CURVE",
"140 289 OFFCURVE",
"132 200 OFFCURVE",
"102 67 CURVE SMOOTH",
"85 -6 OFFCURVE",
"65 -33 OFFCURVE",
"3 -33 CURVE",
"-19 -125 LINE"
);
}
);
width = 366;
}
);
unicode = 007D;
},
{
glyphname = bracketleft;
lastChange = "2018-03-05 12:15:15 +0000";
layers = (
{
layerId = "36D41E8E-F531-4154-A930-CD44EA9C85A7";
paths = (
{
closed = 1;
nodes = (
"216 -125 LINE",
"240 -24 LINE",
"122 -24 LINE",
"277 647 LINE",
"395 647 LINE",
"418 749 LINE",
"183 749 LINE",
"-19 -125 LINE"
);
}
);
width = 375;
}
);
note = bracketleft;
unicode = 005B;
},
{
glyphname = bracketright;
lastChange = "2018-03-05 12:15:15 +0000";
layers = (
{
layerId = "36D41E8E-F531-4154-A930-CD44EA9C85A7";
paths = (
{
closed = 1;
nodes = (
"216 -125 LINE",
"418 749 LINE",
"183 749 LINE",
"160 647 LINE",
"278 647 LINE",
"123 -24 LINE",
"5 -24 LINE",
"-19 -125 LINE"
);
}
);
width = 375;
}
);
note = bracketright;
unicode = 005D;
},
{
glyphname = hyphen;
lastChange = "2018-03-05 12:15:52 +0000";
layers = (
{
layerId = "36D41E8E-F531-4154-A930-CD44EA9C85A7";
paths = (
{
closed = 1;
nodes = (
"440 244 LINE",
"463 346 LINE",
"91 346 LINE",
"68 244 LINE"
);
}
);
width = 514;
}
);
leftKerningGroup = tiret;
note = hyphen;
rightKerningGroup = tiret;
unicode = 002D;
},
{
glyphname = endash;
lastChange = "2018-03-05 12:15:52 +0000";
layers = (
{
layerId = "36D41E8E-F531-4154-A930-CD44EA9C85A7";
paths = (
{
closed = 1;
nodes = (
"511 244 LINE",
"534 346 LINE",
"91 346 LINE",
"68 244 LINE"
);
}
);
width = 585;
}
);
leftKerningGroup = tiret;
note = endash;
rightKerningGroup = tiret;
unicode = 2013;
},
{
glyphname = emdash;
lastChange = "2018-03-05 12:15:52 +0000";
layers = (
{
layerId = "36D41E8E-F531-4154-A930-CD44EA9C85A7";
paths = (
{
closed = 1;
nodes = (
"751 244 LINE",
"774 346 LINE",
"91 346 LINE",
"68 244 LINE"
);
}
);
width = 825;
}
);
leftKerningGroup = tiret;
note = emdash;
rightKerningGroup = tiret;
unicode = 2014;
},
{
glyphname = underscore;
lastChange = "2018-03-05 12:15:52 +0000";
layers = (
{
layerId = "36D41E8E-F531-4154-A930-CD44EA9C85A7";
paths = (
{
closed = 1;
nodes = (
"600 -62 LINE",
"614 0 LINE",
"11 0 LINE",
"-3 -62 LINE"
);
}
);
width = 745;
}
);
note = underscore;
unicode = 005F;
},
{
glyphname = quotesinglbase;
lastChange = "2019-10-31 17:09:10 +0000";
layers = (
{
layerId = "36D41E8E-F531-4154-A930-CD44EA9C85A7";
paths = (
{
closed = 1;
nodes = (
"3 -191 LINE",
"147 105 LINE",
"18 105 LINE",
"-84 -191 LINE"
);
}
);
width = 202;
}
);
leftKerningGroup = coma;
rightKerningGroup = coma;
unicode = 201A;
},
{
glyphname = quotedblbase;
lastChange = "2019-10-31 17:08:50 +0000";
layers = (
{
layerId = "36D41E8E-F531-4154-A930-CD44EA9C85A7";
paths = (
{
closed = 1;
nodes = (
"172 -191 LINE",
"336 105 LINE",
"207 105 LINE",
"85 -191 LINE"
);
},
{
closed = 1;
nodes = (
"3 -191 LINE",
"147 105 LINE",
"18 105 LINE",
"-84 -191 LINE"
);
}
);
width = 391;
}
);
leftKerningGroup = coma;
rightKerningGroup = coma;
unicode = 201E;
},
{
glyphname = quotedblleft;
lastChange = "2019-10-31 17:07:47 +0000";
layers = (
{
layerId = "36D41E8E-F531-4154-A930-CD44EA9C85A7";
paths = (
{
closed = 1;
nodes = (
"237 402 LINE",
"359 698 LINE",
"272 698 LINE",
"108 402 LINE"
);
},
{
closed = 1;
nodes = (
"426 402 LINE",
"528 698 LINE",
"441 698 LINE",
"297 402 LINE"
);
}
);
width = 514;
}
);
leftKerningGroup = quoteleft;
note = quotedblleft;
rightKerningGroup = quoteleft;
unicode = 201C;
},
{
glyphname = quotedblright;
lastChange = "2019-10-31 17:07:50 +0000";
layers = (
{
layerId = "36D41E8E-F531-4154-A930-CD44EA9C85A7";
paths = (
{
closed = 1;
nodes = (
"364 402 LINE",
"528 698 LINE",
"399 698 LINE",
"277 402 LINE"
);
},
{
closed = 1;
nodes = (
"195 402 LINE",
"339 698 LINE",
"210 698 LINE",
"108 402 LINE"
);
}
);
width = 514;
}
);
leftKerningGroup = quoteleft;
note = quotedblright;
rightKerningGroup = quoteleft;
unicode = 201D;
},
{
glyphname = quoteleft;
lastChange = "2019-10-31 17:07:53 +0000";
layers = (
{
layerId = "36D41E8E-F531-4154-A930-CD44EA9C85A7";
paths = (
{
closed = 1;
nodes = (
"198 402 LINE",
"342 698 LINE",
"213 698 LINE",
"111 402 LINE"
);
}
);
width = 297;
}
);
leftKerningGroup = quoteleft;
note = quoteleft;
rightKerningGroup = quoteleft;
unicode = 2018;
},
{
glyphname = quoteright;
lastChange = "2019-10-31 17:07:55 +0000";
layers = (
{
layerId = "36D41E8E-F531-4154-A930-CD44EA9C85A7";
paths = (
{
closed = 1;
nodes = (
"225 402 LINE",
"327 698 LINE",
"240 698 LINE",
"96 402 LINE"
);
}
);
width = 297;
}
);
leftKerningGroup = quoteleft;
note = quoteright;
rightKerningGroup = quoteleft;
unicode = 2019;
},
{
glyphname = guilsinglleft;
lastChange = "2018-03-05 12:15:52 +0000";
layers = (
{
layerId = "36D41E8E-F531-4154-A930-CD44EA9C85A7";
paths = (
{
closed = 1;
nodes = (
"238 60 LINE",
"155 264 LINE",
"330 458 LINE",
"212 458 LINE",
"37 264 LINE",
"120 60 LINE"
);
}
);
width = 304;
}
);
unicode = 2039;
},
{
glyphname = guilsinglright;
lastChange = "2018-03-05 12:15:52 +0000";
layers = (
{
layerId = "36D41E8E-F531-4154-A930-CD44EA9C85A7";
paths = (
{
closed = 1;
nodes = (
"92 60 LINE",
"269 264 LINE",
"184 458 LINE",
"66 458 LINE",
"151 264 LINE",
"-26 60 LINE"
);
}
);
width = 304;
}
);
unicode = 203A;
},
{
glyphname = quotedbl;
lastChange = "2018-03-05 12:15:52 +0000";
layers = (
{
layerId = "36D41E8E-F531-4154-A930-CD44EA9C85A7";
paths = (
{
closed = 1;
nodes = (
"354 452 LINE",
"426 698 LINE",
"317 698 LINE",
"277 452 LINE"
);
},
{
closed = 1;
nodes = (
"178 452 LINE",
"250 698 LINE",
"141 698 LINE",
"101 452 LINE"
);
}
);
width = 365;
}
);
note = quotedbl;
unicode = 0022;
},
{
glyphname = quotesingle;
lastChange = "2018-03-05 12:15:52 +0000";
layers = (
{
layerId = "36D41E8E-F531-4154-A930-CD44EA9C85A7";
paths = (
{
closed = 1;
nodes = (
"150 402 LINE",
"294 698 LINE",
"165 698 LINE",
"63 402 LINE"
);
}
);
width = 223;
}
);
note = quotesingle;
unicode = 0027;
},
{
glyphname = cent;
lastChange = "2018-03-11 16:26:15 +0000";
layers = (
{
layerId = "36D41E8E-F531-4154-A930-CD44EA9C85A7";
paths = (
{
closed = 1;
nodes = (
"371 87 LINE",
"269 87 OFFCURVE",
"162 133 OFFCURVE",
"192 262 CURVE SMOOTH",
"222 391 OFFCURVE",
"351 441 OFFCURVE",
"453 441 CURVE",
"476 542 LINE",
"452 542 OFFCURVE",
"428 540 OFFCURVE",
"403 536 CURVE",
"434 671 LINE",
"329 671 LINE",
"291 505 LINE",
"193 464 OFFCURVE",
"111 386 OFFCURVE",
"83 262 CURVE SMOOTH",
"36 61 OFFCURVE",
"186 -16 OFFCURVE",
"348 -16 CURVE"
);
},
{
closed = 1;
nodes = (
"251 -125 LINE",
"297 71 LINE",
"191 71 LINE",
"145 -125 LINE"
);
}
);
width = 500;
}
);
note = cent;
unicode = 00A2;
},
{
glyphname = currency;
lastChange = "2018-03-05 12:20:23 +0000";
layers = (
{
anchors = (
{
name = center;
position = "{299, 258}";
},
{
name = top;
position = "{358, 516}";
}
);
layerId = "36D41E8E-F531-4154-A930-CD44EA9C85A7";
paths = (
{
closed = 1;
nodes = (
"180 136 LINE",
"208 119 OFFCURVE",
"241 109 OFFCURVE",
"280 109 CURVE SMOOTH",
"319 109 OFFCURVE",
"358 119 OFFCURVE",
"394 136 CURVE",
"428 91 LINE",
"518 164 LINE",
"485 207 LINE",
"512 239 OFFCURVE",
"533 276 OFFCURVE",
"542 316 CURVE SMOOTH",
"552 356 OFFCURVE",
"548 394 OFFCURVE",
"535 425 CURVE",
"588 468 LINE",
"532 541 LINE",
"477 496 LINE",
"450 514 OFFCURVE",
"415 524 OFFCURVE",
"376 524 CURVE SMOOTH",
"337 524 OFFCURVE",
"298 514 OFFCURVE",
"263 496 CURVE",
"228 541 LINE",
"138 468 LINE",
"171 425 LINE",
"144 394 OFFCURVE",
"124 356 OFFCURVE",
"114 316 CURVE SMOOTH",
"105 276 OFFCURVE",
"108 239 OFFCURVE",
"121 207 CURVE",
"68 164 LINE",
"124 91 LINE"
);
},
{
closed = 1;
nodes = (
"240 207 OFFCURVE",
"202 256 OFFCURVE",
"216 316 CURVE SMOOTH",
"230 377 OFFCURVE",
"291 426 OFFCURVE",
"354 426 CURVE SMOOTH",
"417 426 OFFCURVE",
"454 377 OFFCURVE",
"440 316 CURVE SMOOTH",
"426 256 OFFCURVE",
"366 207 OFFCURVE",
"303 207 CURVE SMOOTH"
);
}
);
width = 630;
}
);
unicode = 00A4;
},
{
glyphname = dollar;
lastChange = "2018-03-05 12:22:23 +0000";
layers = (
{
components = (
{
name = S;
}
);
layerId = "36D41E8E-F531-4154-A930-CD44EA9C85A7";
paths = (
{
closed = 1;
nodes = (
"267 -83 LINE",
"296 42 LINE",
"187 42 LINE",
"158 -83 LINE"
);
},
{
closed = 1;
nodes = (
"461 625 LINE",
"489 750 LINE",
"380 750 LINE",
"352 625 LINE"
);
}
);
width = 582;
}
);
leftMetricsKey = S;
note = dollar;
rightMetricsKey = S;
unicode = 0024;
},
{
glyphname = florin;
lastChange = "2018-03-05 12:20:23 +0000";
layers = (
{
layerId = "36D41E8E-F531-4154-A930-CD44EA9C85A7";
paths = (
{
closed = 1;
nodes = (
"48 -212 OFFCURVE",
"161 -118 OFFCURVE",
"199 47 CURVE SMOOTH",
"244 241 LINE",
"417 241 LINE",
"441 343 LINE",
"268 343 LINE",
"294 458 LINE SMOOTH",
"322 579 OFFCURVE",
"379 621 OFFCURVE",
"459 621 CURVE SMOOTH",
"539 621 OFFCURVE",
"577 567 OFFCURVE",
"577 567 CURVE",
"599 663 LINE",
"599 663 OFFCURVE",
"576 717 OFFCURVE",
"466 717 CURVE SMOOTH",
"337 717 OFFCURVE",
"224 623 OFFCURVE",
"186 458 CURVE SMOOTH",
"160 343 LINE",
"33 343 LINE",
"9 241 LINE",
"136 241 LINE",
"91 47 LINE SMOOTH",
"63 -74 OFFCURVE",
"7 -116 OFFCURVE",
"-73 -116 CURVE SMOOTH",
"-153 -116 OFFCURVE",
"-192 -62 OFFCURVE",
"-192 -62 CURVE",
"-214 -158 LINE",
"-214 -158 OFFCURVE",
"-191 -212 OFFCURVE",
"-81 -212 CURVE SMOOTH"
);
}
);
width = 521;
}
);
unicode = 0192;
},
{
glyphname = sterling;
lastChange = "2018-03-05 12:20:23 +0000";
layers = (
{
layerId = "36D41E8E-F531-4154-A930-CD44EA9C85A7";
paths = (
{
closed = 1;
nodes = (
"524 0 LINE",
"549 103 LINE",
"234 103 LINE",
"282 310 LINE",
"471 310 LINE",
"495 413 LINE",
"307 413 LINE",
"329 508 LINE",
"328 508 LINE",
"340 560 OFFCURVE",
"393 602 OFFCURVE",
"447 602 CURVE SMOOTH",
"501 602 OFFCURVE",
"536 560 OFFCURVE",
"524 508 CURVE",
"632 508 LINE",
"658 622 OFFCURVE",
"582 714 OFFCURVE",
"468 714 CURVE SMOOTH",
"341 714 OFFCURVE",
"219 607 OFFCURVE",
"193 493 CURVE SMOOTH",
"175 413 LINE",
"70 413 LINE",
"46 310 LINE",
"151 310 LINE",
"79 0 LINE"
);
}
);
width = 642;
}
);
note = sterling;
unicode = 00A3;
},
{
glyphname = yen;
lastChange = "2018-03-05 12:20:23 +0000";
layers = (
{
components = (
{
name = Y;
transform = "{1, 0, 0.23087, 1, -60, 0}";
}
);
layerId = "36D41E8E-F531-4154-A930-CD44EA9C85A7";
paths = (
{
closed = 1;
nodes = (
"527 241 LINE",
"551 343 LINE",
"143 343 LINE",
"119 241 LINE"
);
},
{
closed = 1;
nodes = (
"492 90 LINE",
"516 192 LINE",
"108 192 LINE",
"84 90 LINE"
);
}
);
width = 653;
}
);
unicode = 00A5;
},
{
glyphname = plus;
lastChange = "2018-03-05 12:20:23 +0000";
layers = (
{
layerId = "36D41E8E-F531-4154-A930-CD44EA9C85A7";
paths = (
{
closed = 1;
nodes = (
"360 100 LINE",
"407 303 LINE",
"615 303 LINE",
"639 406 LINE",
"431 406 LINE",
"478 609 LINE",
"361 609 LINE",
"314 406 LINE",
"106 406 LINE",
"82 303 LINE",
"290 303 LINE",
"243 100 LINE"
);
}
);
width = 677;
}
);
note = plus;
unicode = 002B;
},
{
glyphname = minus;
lastChange = "2018-03-05 12:20:23 +0000";
layers = (
{
layerId = "36D41E8E-F531-4154-A930-CD44EA9C85A7";
paths = (
{
closed = 1;
nodes = (
"489 244 LINE",
"512 346 LINE",
"70 346 LINE",
"47 244 LINE"
);
}
);
width = 542;
}
);
unicode = 2212;
},
{
glyphname = multiply;
lastChange = "2018-03-05 12:20:23 +0000";
layers = (
{
layerId = "36D41E8E-F531-4154-A930-CD44EA9C85A7";
paths = (
{
closed = 1;
nodes = (
"345 263 LINE",
"462 111 LINE",
"552 184 LINE",
"435 336 LINE",
"622 488 LINE",
"566 561 LINE",
"379 409 LINE",
"262 561 LINE",
"172 488 LINE",
"289 336 LINE",
"102 184 LINE",
"158 111 LINE"
);
}
);
width = 677;
}
);
note = multiply;
unicode = 00D7;
},
{
glyphname = divide;
lastChange = "2018-03-05 12:20:23 +0000";
layers = (
{
layerId = "36D41E8E-F531-4154-A930-CD44EA9C85A7";
paths = (
{
closed = 1;
nodes = (
"502 206 LINE",
"525 308 LINE",
"82 308 LINE",
"59 206 LINE"
);
},
{
closed = 1;
nodes = (
"276 -7 OFFCURVE",
"320 27 OFFCURVE",
"330 73 CURVE SMOOTH",
"340 117 OFFCURVE",
"313 153 OFFCURVE",
"269 153 CURVE SMOOTH",
"223 153 OFFCURVE",
"180 117 OFFCURVE",
"170 73 CURVE SMOOTH",
"160 27 OFFCURVE",
"186 -7 OFFCURVE",
"232 -7 CURVE SMOOTH"
);
},
{
closed = 1;
nodes = (
"360 359 OFFCURVE",
"404 393 OFFCURVE",
"415 439 CURVE SMOOTH",
"425 483 OFFCURVE",
"397 519 OFFCURVE",
"353 519 CURVE SMOOTH",
"307 519 OFFCURVE",
"265 483 OFFCURVE",
"255 439 CURVE SMOOTH",
"244 393 OFFCURVE",
"270 359 OFFCURVE",
"316 359 CURVE SMOOTH"
);
}
);
width = 585;
}
);
unicode = 00F7;
},
{
glyphname = equal;
lastChange = "2018-03-05 12:20:23 +0000";
layers = (
{
layerId = "36D41E8E-F531-4154-A930-CD44EA9C85A7";
paths = (
{
closed = 1;
nodes = (
"571 393 LINE",
"595 495 LINE",
"146 495 LINE",
"122 393 LINE"
);
},
{
closed = 1;
nodes = (
"524 188 LINE",
"547 290 LINE",
"98 290 LINE",
"75 188 LINE"
);
}
);
width = 630;
}
);
note = equal;
unicode = 003D;
},
{
glyphname = notequal;
lastChange = "2018-03-05 12:20:23 +0000";
layers = (
{
layerId = "36D41E8E-F531-4154-A930-CD44EA9C85A7";
paths = (
{
closed = 1;
nodes = (
"180 -2 LINE",
"297 188 LINE",
"524 188 LINE",
"547 290 LINE",
"360 290 LINE",
"424 393 LINE",
"571 393 LINE",
"595 495 LINE",
"487 495 LINE",
"582 649 LINE",
"465 649 LINE",
"370 495 LINE",
"146 495 LINE",
"122 393 LINE",
"307 393 LINE",
"243 290 LINE",
"98 290 LINE",
"75 188 LINE",
"180 188 LINE",
"63 -2 LINE"
);
}
);
width = 630;
}
);
note = notequal;
unicode = 2260;
},
{
glyphname = greater;
lastChange = "2018-03-05 12:20:23 +0000";
layers = (
{
layerId = "36D41E8E-F531-4154-A930-CD44EA9C85A7";
paths = (
{
closed = 1;
nodes = (
"487 250 LINE",
"502 315 LINE",
"110 517 LINE",
"87 417 LINE",
"375 284 LINE",
"13 100 LINE",
"-10 0 LINE"
);
}
);
width = 539;
}
);
unicode = 003E;
},
{
glyphname = less;
lastChange = "2018-03-05 12:20:23 +0000";
layers = (
{
layerId = "36D41E8E-F531-4154-A930-CD44EA9C85A7";
paths = (
{
closed = 1;
nodes = (
"452 100 LINE",
"176 284 LINE",
"526 417 LINE",
"549 517 LINE",
"63 315 LINE",
"48 250 LINE",
"429 0 LINE"
);
}
);
width = 539;
}
);
unicode = 003C;
},
{
glyphname = greaterequal;
lastChange = "2018-03-05 12:20:23 +0000";
layers = (
{
layerId = "36D41E8E-F531-4154-A930-CD44EA9C85A7";
paths = (
{
closed = 1;
nodes = (
"502 299 LINE",
"522 384 LINE",
"114 517 LINE",
"91 417 LINE",
"350 343 LINE",
"52 249 LINE",
"29 149 LINE"
);
},
{
closed = 1;
nodes = (
"433 0 LINE",
"457 102 LINE",
"14 102 LINE",
"-10 0 LINE"
);
}
);
width = 543;
}
);
unicode = 2265;
},
{
glyphname = lessequal;
lastChange = "2018-03-05 12:20:23 +0000";
layers = (
{
layerId = "36D41E8E-F531-4154-A930-CD44EA9C85A7";
paths = (
{
closed = 1;
nodes = (
"487 249 LINE",
"233 343 LINE",
"526 417 LINE",
"549 517 LINE",
"79 384 LINE",
"59 299 LINE",
"464 149 LINE"
);
},
{
closed = 1;
nodes = (
"433 0 LINE",
"457 102 LINE",
"14 102 LINE",
"-10 0 LINE"
);
}
);
width = 543;
}
);
unicode = 2264;
},
{
glyphname = plusminus;
lastChange = "2018-03-05 12:20:23 +0000";
layers = (
{
layerId = "36D41E8E-F531-4154-A930-CD44EA9C85A7";
paths = (
{
closed = 1;
nodes = (
"315 199 LINE",
"339 303 LINE",
"502 303 LINE",
"526 406 LINE",
"363 406 LINE",
"389 517 LINE",
"272 517 LINE",
"246 406 LINE",
"84 406 LINE",
"60 303 LINE",
"222 303 LINE",
"198 199 LINE"
);
},
{
closed = 1;
nodes = (
"432 0 LINE",
"456 102 LINE",
"14 102 LINE",
"-10 0 LINE"
);
}
);
width = 542;
}
);
unicode = 00B1;
},
{
glyphname = approxequal;
lastChange = "2018-03-05 12:20:23 +0000";
layers = (
{
layerId = "36D41E8E-F531-4154-A930-CD44EA9C85A7";
paths = (
{
closed = 1;
nodes = (
"457 304 OFFCURVE",
"505 353 OFFCURVE",
"532 411 CURVE",
"427 441 LINE",
"418 421 OFFCURVE",
"409 396 OFFCURVE",
"378 396 CURVE SMOOTH",
"358 396 OFFCURVE",
"334 410 OFFCURVE",
"313 421 CURVE SMOOTH",
"281 437 OFFCURVE",
"254 448 OFFCURVE",
"218 448 CURVE SMOOTH",
"145 448 OFFCURVE",
"95 399 OFFCURVE",
"69 341 CURVE",
"174 311 LINE",
"184 331 OFFCURVE",
"193 356 OFFCURVE",
"224 356 CURVE SMOOTH",
"244 356 OFFCURVE",
"268 343 OFFCURVE",
"289 331 CURVE SMOOTH",
"325 311 OFFCURVE",
"354 304 OFFCURVE",
"384 304 CURVE SMOOTH"
);
},
{
closed = 1;
nodes = (
"410 104 OFFCURVE",
"459 153 OFFCURVE",
"486 211 CURVE",
"381 241 LINE",
"371 221 OFFCURVE",
"363 196 OFFCURVE",
"332 196 CURVE SMOOTH",
"312 196 OFFCURVE",
"288 210 OFFCURVE",
"266 221 CURVE SMOOTH",
"235 237 OFFCURVE",
"208 248 OFFCURVE",
"172 248 CURVE SMOOTH",
"99 248 OFFCURVE",
"49 199 OFFCURVE",
"23 141 CURVE",
"128 111 LINE",
"138 131 OFFCURVE",
"146 156 OFFCURVE",
"177 156 CURVE SMOOTH",
"197 156 OFFCURVE",
"221 143 OFFCURVE",
"243 131 CURVE SMOOTH",
"279 111 OFFCURVE",
"307 104 OFFCURVE",
"337 104 CURVE SMOOTH"
);
}
);
width = 547;
}
);
unicode = 2248;
},
{
glyphname = asciitilde;
lastChange = "2018-03-05 12:20:23 +0000";
layers = (
{
anchors = (
{
name = _top;
position = "{277, 517}";
}
);
layerId = "36D41E8E-F531-4154-A930-CD44EA9C85A7";
paths = (
{
closed = 1;
nodes = (
"433 204 OFFCURVE",
"482 253 OFFCURVE",
"509 311 CURVE",
"404 341 LINE",
"394 321 OFFCURVE",
"386 296 OFFCURVE",
"355 296 CURVE SMOOTH",
"335 296 OFFCURVE",
"311 310 OFFCURVE",
"289 321 CURVE SMOOTH",
"258 337 OFFCURVE",
"231 348 OFFCURVE",
"195 348 CURVE SMOOTH",
"122 348 OFFCURVE",
"72 299 OFFCURVE",
"46 241 CURVE",
"151 211 LINE",
"161 231 OFFCURVE",
"169 256 OFFCURVE",
"200 256 CURVE SMOOTH",
"220 256 OFFCURVE",
"244 240 OFFCURVE",
"266 231 CURVE SMOOTH",
"304 215 OFFCURVE",
"330 204 OFFCURVE",
"360 204 CURVE SMOOTH"
);
}
);
width = 547;
}
);
unicode = 007E;
},
{
glyphname = logicalnot;
lastChange = "2018-03-05 12:20:23 +0000";
layers = (
{
layerId = "36D41E8E-F531-4154-A930-CD44EA9C85A7";
paths = (
{
closed = 1;
nodes = (
"455 99 LINE",
"512 347 LINE",
"70 347 LINE",
"47 245 LINE",
"372 245 LINE",
"338 99 LINE"
);
}
);
width = 542;
}
);
leftKerningGroup = tiret;
rightKerningGroup = tiret;
unicode = 00AC;
},
{
glyphname = asciicircum;
lastChange = "2018-03-05 12:20:23 +0000";
layers = (
{
layerId = "36D41E8E-F531-4154-A930-CD44EA9C85A7";
paths = (
{
closed = 1;
nodes = (
"164 320 LINE",
"381 589 LINE",
"481 320 LINE",
"581 320 LINE",
"439 699 LINE",
"374 699 LINE",
"64 320 LINE"
);
}
);
width = 617;
}
);
unicode = 005E;
},
{
glyphname = infinity;
lastChange = "2018-03-05 12:20:23 +0000";
layers = (
{
layerId = "36D41E8E-F531-4154-A930-CD44EA9C85A7";
paths = (
{
closed = 1;
nodes = (
"335 109 OFFCURVE",
"400 137 OFFCURVE",
"449 182 CURVE",
"478 137 OFFCURVE",
"529 109 OFFCURVE",
"595 109 CURVE SMOOTH",
"714 109 OFFCURVE",
"831 202 OFFCURVE",
"857 316 CURVE SMOOTH",
"884 431 OFFCURVE",
"810 524 OFFCURVE",
"691 524 CURVE SMOOTH",
"625 524 OFFCURVE",
"561 496 OFFCURVE",
"511 451 CURVE",
"483 496 OFFCURVE",
"431 524 OFFCURVE",
"365 524 CURVE SMOOTH",
"246 524 OFFCURVE",
"130 431 OFFCURVE",
"103 316 CURVE SMOOTH",
"77 202 OFFCURVE",
"150 109 OFFCURVE",
"269 109 CURVE SMOOTH"
);
},
{
closed = 1;
nodes = (
"229 207 OFFCURVE",
"191 256 OFFCURVE",
"205 316 CURVE SMOOTH",
"219 377 OFFCURVE",
"280 426 OFFCURVE",
"343 426 CURVE SMOOTH",
"406 426 OFFCURVE",
"443 377 OFFCURVE",
"429 316 CURVE SMOOTH",
"415 256 OFFCURVE",
"355 207 OFFCURVE",
"292 207 CURVE SMOOTH"
);
},
{
closed = 1;
nodes = (
"555 207 OFFCURVE",
"517 256 OFFCURVE",
"531 316 CURVE SMOOTH",
"545 377 OFFCURVE",
"606 426 OFFCURVE",
"669 426 CURVE SMOOTH",
"732 426 OFFCURVE",
"769 377 OFFCURVE",
"755 316 CURVE SMOOTH",
"741 256 OFFCURVE",
"681 207 OFFCURVE",
"618 207 CURVE SMOOTH"
);
}
);
width = 934;
}
);
unicode = 221E;
},
{
glyphname = integral;
lastChange = "2018-03-05 12:20:23 +0000";
layers = (
{
layerId = "36D41E8E-F531-4154-A930-CD44EA9C85A7";
paths = (
{
closed = 1;
nodes = (
"91 -212 OFFCURVE",
"175 -118 OFFCURVE",
"252 47 CURVE SMOOTH",
"342 241 LINE",
"486 241 LINE",
"510 343 LINE",
"389 343 LINE",
"441 458 LINE SMOOTH",
"493 569 OFFCURVE",
"541 621 OFFCURVE",
"648 621 CURVE",
"670 717 LINE",
"494 717 OFFCURVE",
"403 623 OFFCURVE",
"326 458 CURVE SMOOTH",
"274 343 LINE",
"142 343 LINE",
"118 241 LINE",
"226 241 LINE",
"166 110 LINE",
"167 110 LINE",
"137 47 LINE SMOOTH",
"86 -64 OFFCURVE",
"39 -116 OFFCURVE",
"-62 -116 CURVE",
"-85 -212 LINE"
);
}
);
width = 600;
}
);
unicode = 222B;
},
{
glyphname = product;
lastChange = "2018-03-05 12:20:23 +0000";
layers = (
{
layerId = "36D41E8E-F531-4154-A930-CD44EA9C85A7";
paths = (
{
closed = 1;
nodes = (
"178 0 LINE",
"312 577 LINE",
"614 577 LINE",
"480 0 LINE",
"588 0 LINE",
"722 577 LINE",
"812 577 LINE",
"835 679 LINE",
"137 679 LINE",
"114 577 LINE",
"204 577 LINE",
"70 0 LINE"
);
}
);
width = 778;
}
);
unicode = 220F;
},
{
glyphname = summation;
lastChange = "2018-03-05 12:20:23 +0000";
layers = (
{
layerId = "36D41E8E-F531-4154-A930-CD44EA9C85A7";
paths = (
{
closed = 1;
nodes = (
"501 0 LINE",
"525 102 LINE",
"173 102 LINE",
"425 292 LINE",
"445 378 LINE",
"273 577 LINE",
"623 577 LINE",
"646 679 LINE",
"157 679 LINE",
"135 582 LINE",
"341 335 LINE",
"23 97 LINE",
"0 0 LINE"
);
}
);
width = 596;
}
);
unicode = 2211;
},
{
glyphname = radical;
lastChange = "2018-03-05 12:20:23 +0000";
layers = (
{
anchors = (
{
name = top;
position = "{420, 517}";
}
);
layerId = "36D41E8E-F531-4154-A930-CD44EA9C85A7";
paths = (
{
closed = 1;
nodes = (
"289 0 LINE",
"766 725 LINE",
"653 725 LINE",
"269 133 LINE",
"202 472 LINE",
"89 472 LINE",
"183 0 LINE"
);
}
);
width = 593;
}
);
unicode = 221A;
},
{
glyphname = partialdiff;
lastChange = "2018-03-05 12:20:23 +0000";
layers = (
{
layerId = "36D41E8E-F531-4154-A930-CD44EA9C85A7";
paths = (
{
closed = 1;
nodes = (
"373 -26 OFFCURVE",
"510 59 OFFCURVE",
"571 251 CURVE SMOOTH",
"642 473 OFFCURVE",
"590 662 OFFCURVE",
"262 692 CURVE",
"232 598 LINE",
"429 580 OFFCURVE",
"517 498 OFFCURVE",
"502 348 CURVE",
"497 387 OFFCURVE",
"448 443 OFFCURVE",
"358 452 CURVE SMOOTH",
"219 464 OFFCURVE",
"100 376 OFFCURVE",
"57 240 CURVE SMOOTH",
"13 104 OFFCURVE",
"86 -1 OFFCURVE",
"232 -14 CURVE SMOOTH"
);
},
{
closed = 1;
nodes = (
"174 90 OFFCURVE",
"138 154 OFFCURVE",
"163 233 CURVE SMOOTH",
"191 321 OFFCURVE",
"257 377 OFFCURVE",
"354 369 CURVE SMOOTH",
"440 361 OFFCURVE",
"473 282 OFFCURVE",
"450 208 CURVE SMOOTH",
"426 133 OFFCURVE",
"350 74 OFFCURVE",
"262 82 CURVE SMOOTH"
);
}
);
width = 635;
}
);
unicode = 2202;
},
{
glyphname = percent;
lastChange = "2018-03-05 12:21:33 +0000";
layers = (
{
layerId = "36D41E8E-F531-4154-A930-CD44EA9C85A7";
paths = (
{
closed = 1;
nodes = (
"153 -16 LINE",
"699 697 LINE",
"603 697 LINE",
"57 -16 LINE"
);
},
{
closed = 1;
nodes = (
"532 -16 OFFCURVE",
"613 49 OFFCURVE",
"631 129 CURVE SMOOTH",
"650 210 OFFCURVE",
"599 276 OFFCURVE",
"518 276 CURVE SMOOTH",
"438 276 OFFCURVE",
"358 210 OFFCURVE",
"339 129 CURVE SMOOTH",
"321 49 OFFCURVE",
"371 -16 OFFCURVE",
"451 -16 CURVE SMOOTH"
);
},
{
closed = 1;
nodes = (
"426 54 OFFCURVE",
"400 88 OFFCURVE",
"409 129 CURVE SMOOTH",
"419 171 OFFCURVE",
"461 206 OFFCURVE",
"502 206 CURVE SMOOTH",
"544 206 OFFCURVE",
"571 171 OFFCURVE",
"561 129 CURVE SMOOTH",
"552 88 OFFCURVE",
"509 54 OFFCURVE",
"467 54 CURVE SMOOTH"
);
},
{
closed = 1;
nodes = (
"320 407 OFFCURVE",
"401 472 OFFCURVE",
"420 552 CURVE SMOOTH",
"438 633 OFFCURVE",
"388 699 OFFCURVE",
"307 699 CURVE SMOOTH",
"227 699 OFFCURVE",
"146 633 OFFCURVE",
"128 552 CURVE SMOOTH",
"109 472 OFFCURVE",
"159 407 OFFCURVE",
"239 407 CURVE SMOOTH"
);
},
{
closed = 1;
nodes = (
"214 477 OFFCURVE",
"188 511 OFFCURVE",
"198 552 CURVE SMOOTH",
"207 594 OFFCURVE",
"250 629 OFFCURVE",
"291 629 CURVE SMOOTH",
"333 629 OFFCURVE",
"359 594 OFFCURVE",
"350 552 CURVE SMOOTH",
"340 511 OFFCURVE",
"297 477 OFFCURVE",
"255 477 CURVE SMOOTH"
);
}
);
width = 721;
}
);
note = percent;
unicode = 0025;
},
